<svg width="37" height="37" viewBox="0 0 37 37" fill="none" xmlns="http://www.w3.org/2000/svg">
<circle cx="18.5" cy="18.368" r="18" fill="#F2F2F2"/>
<path d="M11.6191 14.0175C11.2826 13.705 11.1152 13.3183 11.1152 12.8581C11.1152 12.398 11.2835 11.9942 11.6191 11.6809C11.9556 11.3685 12.3887 11.2118 12.9195 11.2118C13.4502 11.2118 13.8663 11.3685 14.2019 11.6809C14.5384 11.9933 14.7058 12.3864 14.7058 12.8581C14.7058 13.3299 14.5375 13.705 14.2019 14.0175C13.8654 14.3299 13.4385 14.4866 12.9195 14.4866C12.4004 14.4866 11.9556 14.3299 11.6191 14.0175ZM14.423 15.8097V25.3887H11.3971V15.8097H14.423Z" fill="#3B3B3B"/>
<path d="M24.4961 16.7559C25.1557 17.4721 25.4851 18.4551 25.4851 19.7066V25.2195H22.6114V20.0952C22.6114 19.464 22.4476 18.9734 22.121 18.6243C21.7943 18.2751 21.354 18.0997 20.8027 18.0997C20.2514 18.0997 19.8111 18.2743 19.4844 18.6243C19.1577 18.9734 18.994 19.464 18.994 20.0952V25.2195H16.1033V15.7828H18.994V17.0344C19.2866 16.6172 19.6813 16.2877 20.1771 16.0451C20.6729 15.8025 21.2305 15.6816 21.8507 15.6816C22.955 15.6816 23.8375 16.0397 24.4961 16.7559Z" fill="#3B3B3B"/>
</svg>
