<svg width="37" height="37" viewBox="0 0 37 37" fill="none" xmlns="http://www.w3.org/2000/svg">
<circle cx="18.5" cy="18.368" r="18" fill="#F2F2F2"/>
<path d="M18.5012 11.2285C20.8267 11.2285 21.1021 11.2372 22.0207 11.2791C22.5731 11.2858 23.1202 11.3872 23.6382 11.5789C24.0139 11.7238 24.3551 11.9458 24.6398 12.2305C24.9246 12.5152 25.1465 12.8564 25.2914 13.2321C25.4831 13.7502 25.5845 14.2973 25.5913 14.8496C25.6327 15.7683 25.6419 16.0437 25.6419 18.3691C25.6419 20.6946 25.6332 20.97 25.5913 21.8887C25.5845 22.441 25.4831 22.9881 25.2914 23.5062C25.1465 23.8819 24.9246 24.2231 24.6398 24.5078C24.3551 24.7925 24.0139 25.0145 23.6382 25.1594C23.1202 25.3511 22.5731 25.4525 22.0207 25.4592C21.1025 25.5007 20.8271 25.5098 18.5012 25.5098C16.1753 25.5098 15.8999 25.5011 14.9816 25.4592C14.4293 25.4525 13.8822 25.3511 13.3641 25.1594C12.9884 25.0145 12.6472 24.7925 12.3625 24.5078C12.0778 24.2231 11.8558 23.8819 11.711 23.5062C11.5193 22.9881 11.4178 22.441 11.4111 21.8887C11.3696 20.97 11.3605 20.6946 11.3605 18.3691C11.3605 16.0437 11.3692 15.7683 11.4111 14.8496C11.4178 14.2973 11.5193 13.7502 11.711 13.2321C11.8558 12.8564 12.0778 12.5152 12.3625 12.2305C12.6472 11.9458 12.9884 11.7238 13.3641 11.5789C13.8822 11.3872 14.4293 11.2858 14.9816 11.2791C15.9003 11.2376 16.1757 11.2285 18.5012 11.2285ZM18.5012 9.65906C16.1371 9.65906 15.8393 9.66901 14.9103 9.71132C14.1874 9.72569 13.4722 9.86257 12.7951 10.1161C12.2142 10.335 11.6881 10.6779 11.2535 11.121C10.81 11.5558 10.4667 12.0823 10.2477 12.6635C9.99418 13.3406 9.85731 14.0558 9.84293 14.7787C9.80146 15.7069 9.7915 16.0047 9.7915 18.3687C9.7915 20.7328 9.80146 21.0306 9.84376 21.9596C9.85814 22.6825 9.99501 23.3977 10.2486 24.0748C10.4673 24.656 10.8103 25.1824 11.2535 25.6173C11.6884 26.0605 12.2148 26.4035 12.7959 26.6222C13.473 26.8757 14.1883 27.0126 14.9111 27.027C15.8402 27.0685 16.1367 27.0792 18.502 27.0792C20.8673 27.0792 21.1639 27.0693 22.0929 27.027C22.8158 27.0126 23.531 26.8757 24.2081 26.6222C24.7865 26.398 25.3117 26.0555 25.7502 25.6168C26.1887 25.178 26.5308 24.6525 26.7546 24.074C27.0082 23.3969 27.1451 22.6817 27.1594 21.9588C27.2009 21.0306 27.2109 20.7328 27.2109 18.3687C27.2109 16.0047 27.2009 15.7069 27.1586 14.7779C27.1442 14.055 27.0073 13.3398 26.7538 12.6627C26.5351 12.0815 26.1921 11.5551 25.7489 11.1202C25.314 10.677 24.7876 10.334 24.2064 10.1153C23.5293 9.86174 22.8141 9.72486 22.0912 9.71049C21.163 9.66901 20.8652 9.65906 18.5012 9.65906Z" fill="#3B3B3B"/>
<path d="M18.5014 13.8993C17.6168 13.8993 16.7521 14.1616 16.0166 14.6531C15.2811 15.1445 14.7078 15.8431 14.3693 16.6603C14.0307 17.4776 13.9422 18.3769 14.1148 19.2445C14.2873 20.1121 14.7133 20.909 15.3388 21.5345C15.9643 22.1601 16.7613 22.586 17.6289 22.7586C18.4965 22.9312 19.3958 22.8426 20.213 22.5041C21.0303 22.1656 21.7288 21.5923 22.2203 20.8568C22.7117 20.1213 22.9741 19.2565 22.9741 18.3719C22.9741 17.1857 22.5028 16.0481 21.6641 15.2093C20.8253 14.3705 19.6877 13.8993 18.5014 13.8993ZM18.5014 21.2751C17.9272 21.2751 17.3659 21.1049 16.8885 20.7859C16.4111 20.4669 16.0389 20.0134 15.8192 19.4829C15.5995 18.9524 15.542 18.3687 15.654 17.8055C15.766 17.2424 16.0425 16.7251 16.4485 16.319C16.8546 15.913 17.3719 15.6365 17.935 15.5245C18.4982 15.4125 19.082 15.4699 19.6125 15.6897C20.1429 15.9094 20.5964 16.2815 20.9154 16.759C21.2344 17.2364 21.4047 17.7977 21.4047 18.3719C21.4047 19.1419 21.0988 19.8803 20.5543 20.4248C20.0099 20.9693 19.2714 21.2751 18.5014 21.2751Z" fill="#3B3B3B"/>
<path d="M23.1506 14.7631C23.7279 14.7631 24.1958 14.2951 24.1958 13.7179C24.1958 13.1407 23.7279 12.6727 23.1506 12.6727C22.5734 12.6727 22.1055 13.1407 22.1055 13.7179C22.1055 14.2951 22.5734 14.7631 23.1506 14.7631Z" fill="#3B3B3B"/>
</svg>
