<svg width="37" height="37" viewBox="0 0 37 37" fill="none" xmlns="http://www.w3.org/2000/svg">
<circle cx="18.5" cy="18.368" r="18" fill="#F2F2F2"/>
<path d="M17.6596 19.1313C17.3455 18.7373 16.9858 18.4357 16.5831 18.2317C16.939 18.0151 17.2455 17.7491 17.4988 17.4323C17.9256 16.8977 18.1422 16.2274 18.1422 15.4394C18.1422 14.7819 17.9687 14.1776 17.6254 13.6442C17.2835 13.1108 16.7743 12.6826 16.1119 12.3709C15.4634 12.0656 14.6819 11.911 13.7916 11.911H8.72656V24.9947H14.0246C14.8922 24.9947 15.6673 24.8363 16.3272 24.5246C16.9998 24.2079 17.5241 23.7645 17.8838 23.2083C18.2448 22.6496 18.4284 22.0148 18.4284 21.3218C18.4284 20.5097 18.1701 19.7736 17.6596 19.1326V19.1313ZM14.9695 16.7469C14.6566 17.0003 14.1994 17.1295 13.613 17.1295H11.4218V14.2308H13.613C14.1969 14.2308 14.6515 14.3638 14.9644 14.6273C15.2646 14.8794 15.4102 15.2279 15.4102 15.689C15.4102 16.1502 15.2658 16.5074 14.9695 16.7469ZM11.4218 19.4506H13.7738C14.3894 19.4506 14.8631 19.6 15.2215 19.9079C15.5647 20.2031 15.7319 20.5946 15.7319 21.1065C15.7319 21.6183 15.5774 21.9793 15.2582 22.2492C14.9277 22.5292 14.4527 22.6711 13.8447 22.6711H11.4218V19.4506Z" fill="#3B3B3B"/>
<path d="M28.7768 16.9437C28.369 16.2064 27.7914 15.6248 27.0594 15.2169C26.3285 14.8089 25.4837 14.6024 24.5516 14.6024C23.6194 14.6024 22.7112 14.8153 21.9627 15.2346C21.2129 15.6552 20.6227 16.2596 20.2098 17.0337C19.7969 17.8065 19.5879 18.7136 19.5879 19.7297C19.5879 20.7458 19.8032 21.6542 20.2288 22.4258C20.6543 23.1986 21.2496 23.8067 21.9994 24.2324C22.748 24.6581 23.6067 24.8735 24.5528 24.8735C25.7143 24.8735 26.7009 24.5783 27.4862 23.9967C28.2715 23.4152 28.8211 22.6576 29.1213 21.7467L29.1429 21.682H26.8453L26.8314 21.7099C26.3893 22.6057 25.6231 23.0592 24.5516 23.0592C23.8056 23.0592 23.1672 22.8223 22.6542 22.3573C22.154 21.9025 21.8664 21.2944 21.7993 20.5481H29.3126L29.3189 20.5064C29.367 20.2061 29.3911 19.8665 29.3911 19.4978C29.3911 18.54 29.1846 17.6811 28.7768 16.9437ZM22.6897 17.0755C23.1786 16.6384 23.7752 16.4179 24.4616 16.4179C25.2203 16.4179 25.865 16.6422 26.3779 17.0856C26.877 17.5164 27.1417 18.0954 27.1645 18.8048H21.8208C21.9222 18.084 22.2147 17.5024 22.691 17.0767L22.6897 17.0755Z" fill="#3B3B3B"/>
<path d="M26.9905 12.2118H21.9863V13.3977H26.9905V12.2118Z" fill="#3B3B3B"/>
</svg>
