<svg width="37" height="37" viewBox="0 0 37 37" fill="none" xmlns="http://www.w3.org/2000/svg">
<circle cx="18.5" cy="18.368" r="18" fill="#F2F2F2"/>
<path d="M27.026 18.807C27.0279 18.7772 27.0289 18.7465 27.0299 18.7158L27.0462 18.3348L27.0318 18.3309C27.004 16.3176 26.2863 14.4097 24.9921 12.8858L25.0075 12.8695L24.5997 12.4501C22.964 10.7697 20.7737 9.8446 18.4309 9.8446C17.2278 9.8446 16.0708 10.0874 14.9838 10.5644L14.9752 10.5576L14.6221 10.7323C14.1549 10.9636 13.7136 11.2342 13.302 11.5403C13.0276 11.7447 12.7667 11.9636 12.5192 12.1977C12.4271 12.285 12.3378 12.3743 12.2496 12.4655C11.0398 13.7159 10.2186 15.3195 9.93554 17.0738L9.8444 17.6419L9.86455 17.6467C9.8396 17.9135 9.82617 18.1831 9.82617 18.4519C9.82617 20.733 10.7357 22.9201 12.3369 24.5275L12.3302 24.54L12.689 24.8615C14.2691 26.2779 16.3078 27.0591 18.4299 27.0591C18.5806 27.0591 18.7302 27.0553 18.8789 27.0476C19.9227 26.9948 20.933 26.7549 21.8866 26.3355C21.8866 26.3355 21.8876 26.3355 21.8885 26.3355L22.2617 26.1714V26.1599C25.0391 24.7732 26.8936 21.9393 27.0251 18.8309C27.0251 18.83 27.0251 18.829 27.0251 18.8281C27.0251 18.8271 27.0251 18.8252 27.0251 18.8242V18.8108L27.026 18.807ZM25.7654 19.2772C25.7616 19.3079 25.7577 19.3386 25.7539 19.3693C25.7472 19.4221 25.7404 19.4749 25.7328 19.5267C25.728 19.5603 25.7222 19.5939 25.7165 19.6274C25.7088 19.6764 25.7002 19.7253 25.6915 19.7743C25.6848 19.8098 25.6781 19.8443 25.6704 19.8799C25.6608 19.9269 25.6522 19.9739 25.6416 20.02C25.634 20.0555 25.6253 20.091 25.6167 20.1265C25.6061 20.1726 25.5946 20.2177 25.5831 20.2628C25.5735 20.2983 25.5639 20.3347 25.5543 20.3702C25.5419 20.4144 25.5294 20.4595 25.5169 20.5036C25.5064 20.5391 25.4958 20.5756 25.4843 20.6111C25.4709 20.6553 25.4565 20.6984 25.443 20.7426C25.4315 20.7781 25.4191 20.8136 25.4066 20.8491C25.3912 20.8923 25.3759 20.9355 25.3605 20.9787C25.3481 21.0132 25.3346 21.0487 25.3212 21.0833C25.3049 21.1265 25.2876 21.1687 25.2703 21.2119C25.2569 21.2464 25.2425 21.28 25.2281 21.3146C25.2099 21.3568 25.1917 21.399 25.1725 21.4412C25.1571 21.4748 25.1428 21.5084 25.1274 21.541C25.1073 21.5833 25.0871 21.6255 25.067 21.6677C25.0516 21.7003 25.0353 21.732 25.019 21.7646C24.9979 21.8069 24.9749 21.8491 24.9528 21.8913C24.9365 21.922 24.9202 21.9527 24.9039 21.9834C24.8799 22.0266 24.8549 22.0698 24.83 22.113C24.8137 22.1418 24.7974 22.1706 24.7811 22.1984C24.7532 22.2454 24.7245 22.2924 24.6957 22.3385C24.6813 22.3615 24.6669 22.3855 24.6525 22.4095C24.6122 22.4729 24.571 22.5353 24.5287 22.5976C24.5249 22.6044 24.5201 22.6101 24.5163 22.6168C24.4693 22.685 24.4213 22.7521 24.3724 22.8193C24.358 22.8385 24.3426 22.8577 24.3282 22.8769C24.2937 22.9239 24.2582 22.97 24.2227 23.016C24.2035 23.041 24.1834 23.065 24.1632 23.0899C24.1316 23.1293 24.0989 23.1696 24.0663 23.208C24.0443 23.2339 24.0212 23.2598 23.9992 23.2857C23.9675 23.3222 23.9358 23.3586 23.9032 23.3951C23.8792 23.422 23.8553 23.4479 23.8313 23.4738C23.7996 23.5084 23.767 23.5429 23.7344 23.5775C23.7094 23.6034 23.6835 23.6293 23.6576 23.6552C23.625 23.6878 23.5924 23.7214 23.5588 23.754C23.5319 23.7799 23.506 23.8049 23.4792 23.8308C23.4456 23.8625 23.412 23.8941 23.3784 23.9248C23.3506 23.9498 23.3228 23.9747 23.295 23.9997C23.2604 24.0304 23.2259 24.0602 23.1904 24.0899C23.1616 24.1139 23.1338 24.1379 23.1041 24.1619C23.0686 24.1907 23.0331 24.2204 22.9966 24.2483C22.9678 24.2713 22.9381 24.2943 22.9083 24.3174C22.8719 24.3452 22.8345 24.373 22.798 24.4008C22.7683 24.4229 22.7376 24.445 22.7078 24.4671C22.6704 24.4939 22.632 24.5208 22.5937 24.5467C22.563 24.5678 22.5332 24.5889 22.5025 24.6091C22.4632 24.635 22.4229 24.6609 22.3836 24.6859C22.3529 24.705 22.3222 24.7252 22.2915 24.7444C22.2627 24.7626 22.2329 24.779 22.2032 24.7972C22.0641 22.9815 21.6573 21.1015 21.0116 19.2935C22.6109 18.9336 24.2342 18.9221 25.7673 19.2637C25.7673 19.2685 25.7673 19.2733 25.7663 19.2772H25.7654ZM20.5626 18.1438C20.3458 17.6304 20.1137 17.1285 19.8642 16.6429C21.4702 15.9126 22.9275 14.9309 24.1364 13.7668C25.1303 14.975 25.7088 16.4538 25.798 18.021C24.1009 17.6803 22.3145 17.7225 20.5617 18.1438H20.5626ZM11.2652 16.665C11.2931 16.5527 11.3238 16.4404 11.3573 16.3291C11.3631 16.3089 11.3698 16.2878 11.3756 16.2677C11.4092 16.1592 11.4447 16.0517 11.483 15.9452C11.4859 15.9375 11.4878 15.9308 11.4907 15.9231C11.4955 15.9097 11.5003 15.8963 11.5051 15.8828C11.5444 15.7773 11.5857 15.6736 11.6289 15.57C11.6356 15.5546 11.6413 15.5402 11.648 15.5249C11.649 15.522 11.6509 15.5191 11.6519 15.5153C11.697 15.4097 11.7449 15.3061 11.7958 15.2034C11.8035 15.1871 11.8121 15.1708 11.8198 15.1535C11.8716 15.0498 11.9253 14.9481 11.9819 14.8474C11.9905 14.831 11.9992 14.8157 12.0088 14.8003C12.0644 14.7025 12.1229 14.6055 12.1834 14.5096C12.1901 14.499 12.1968 14.4884 12.2035 14.4779C12.2074 14.4712 12.2122 14.4644 12.217 14.4577C12.2784 14.3618 12.3426 14.2677 12.4079 14.1756C12.4194 14.1593 12.4319 14.142 12.4434 14.1257C12.5105 14.0326 12.5806 13.9405 12.6525 13.8503C12.664 13.8359 12.6765 13.8215 12.688 13.8071C12.7609 13.7169 12.8358 13.6276 12.9135 13.5403C12.9231 13.5288 12.9336 13.5182 12.9432 13.5067C13.0228 13.4174 13.1053 13.3311 13.1898 13.2457C13.1994 13.2361 13.208 13.2274 13.2176 13.2178C13.3001 13.1363 13.3836 13.0556 13.4699 12.9779C13.4776 12.9712 13.4853 12.9635 13.4929 12.9568C13.4977 12.953 13.5016 12.9491 13.5064 12.9453C13.5927 12.8685 13.681 12.7937 13.7702 12.7198C13.7846 12.7082 13.799 12.6958 13.8134 12.6843C13.9045 12.6113 13.9966 12.5413 14.0916 12.4722C14.1079 12.4607 14.1242 12.4482 14.1415 12.4367C14.2365 12.3685 14.3334 12.3023 14.4322 12.239C14.4475 12.2294 14.4638 12.2188 14.4792 12.2092C14.5809 12.1449 14.6835 12.0825 14.7891 12.023C14.7967 12.0192 14.8044 12.0144 14.8121 12.0106C16.0468 13.0854 17.1779 14.4577 18.122 16.0249C15.8444 16.8262 13.4392 17.0584 11.2585 16.688C11.2605 16.6803 11.2624 16.6717 11.2643 16.663L11.2652 16.665ZM18.7868 11.0749C18.8262 11.0768 18.8655 11.0806 18.9048 11.0826C18.9845 11.0874 19.0631 11.0931 19.1418 11.0999C19.1878 11.1047 19.2339 11.1104 19.28 11.1152C19.3509 11.1229 19.4219 11.1315 19.4929 11.1421C19.5419 11.1488 19.5898 11.1574 19.6378 11.1651C19.7059 11.1766 19.7731 11.1882 19.8402 11.2006C19.8892 11.2102 19.9381 11.2198 19.987 11.2304C20.0532 11.2448 20.1194 11.2591 20.1846 11.2755C20.2336 11.287 20.2815 11.2995 20.3295 11.3119C20.3948 11.3292 20.46 11.3475 20.5252 11.3666C20.5722 11.3801 20.6193 11.3945 20.6663 11.4089C20.7325 11.43 20.7987 11.452 20.8648 11.4751C20.909 11.4904 20.9531 11.5048 20.9972 11.5211C21.0682 11.548 21.1392 11.5759 21.2093 11.6046C21.2467 11.62 21.2841 11.6334 21.3206 11.6497C21.4213 11.6929 21.5211 11.738 21.6199 11.785C21.6295 11.7898 21.64 11.7947 21.6496 11.7995C21.7494 11.8474 21.8482 11.8983 21.9451 11.9511C21.9806 11.9703 22.0152 11.9904 22.0497 12.0106C22.1159 12.048 22.1821 12.0854 22.2483 12.1257C22.2886 12.1497 22.327 12.1756 22.3663 12.2006C22.4258 12.238 22.4843 12.2754 22.5428 12.3148C22.5841 12.3426 22.6244 12.3705 22.6647 12.3993C22.7203 12.4386 22.7759 12.4779 22.8306 12.5192C22.8709 12.549 22.9103 12.5797 22.9506 12.6104C23.0043 12.6526 23.058 12.6948 23.1108 12.739C23.1491 12.7706 23.1875 12.8033 23.2259 12.8359C23.246 12.8532 23.2662 12.8724 23.2863 12.8896C22.1562 13.9779 20.7852 14.8915 19.2723 15.5681C18.3474 13.9971 17.2422 12.6008 16.0286 11.4636C16.7961 11.1987 17.6001 11.0643 18.429 11.0643C18.5489 11.0643 18.6679 11.0672 18.7868 11.073V11.0749ZM11.0676 17.8962C11.8083 18.021 12.571 18.0834 13.3442 18.0834C15.1268 18.0834 16.9678 17.7551 18.7273 17.1093C18.9595 17.5555 19.1783 18.0152 19.3816 18.4874C19.279 18.5219 19.1773 18.5565 19.0756 18.5939C16.4949 19.5488 14.3564 21.2483 12.9701 23.4201C11.7401 22.0679 11.0465 20.2954 11.0465 18.4509C11.0465 18.2657 11.0542 18.0805 11.0676 17.8962ZM18.1028 25.8279C18.0673 25.8259 18.0318 25.8231 17.9963 25.8211C17.9234 25.8173 17.8514 25.8125 17.7785 25.8058C17.7363 25.802 17.695 25.7971 17.6528 25.7923C17.5876 25.7856 17.5214 25.778 17.4562 25.7693C17.412 25.7636 17.3679 25.7568 17.3238 25.7501C17.2614 25.7405 17.199 25.7309 17.1367 25.7194C17.0916 25.7117 17.0465 25.7031 17.0024 25.6935C16.941 25.681 16.8805 25.6686 16.8201 25.6551C16.775 25.6455 16.7309 25.635 16.6867 25.6234C16.6263 25.6091 16.5659 25.5927 16.5064 25.5774C16.4622 25.5659 16.4191 25.5534 16.3759 25.5409C16.3154 25.5237 16.255 25.5045 16.1946 25.4853C16.1524 25.4718 16.1111 25.4594 16.0689 25.445C16.0065 25.4239 15.9442 25.4008 15.8828 25.3788C15.8444 25.3644 15.8051 25.3509 15.7667 25.3355C15.6995 25.3096 15.6324 25.2818 15.5652 25.253C15.5336 25.2396 15.5019 25.2271 15.4702 25.2137C15.3743 25.1714 15.2793 25.1273 15.1853 25.0812C15.1834 25.0812 15.1815 25.0793 15.1795 25.0784C15.0826 25.0313 14.9877 24.9814 14.8927 24.9296C14.8649 24.9143 14.837 24.897 14.8083 24.8816C14.743 24.8452 14.6778 24.8077 14.6135 24.7694C14.579 24.7482 14.5444 24.7262 14.5099 24.7041C14.4533 24.6686 14.3967 24.6331 14.341 24.5956C14.3046 24.5717 14.2681 24.5457 14.2326 24.5208C14.1799 24.4843 14.1281 24.4479 14.0762 24.4095C14.0388 24.3826 14.0024 24.3548 13.9659 24.3269C13.9381 24.3058 13.9103 24.2838 13.8825 24.2617C15.1191 22.2234 17.0973 20.6274 19.5006 19.7378C19.61 19.6975 19.7213 19.6601 19.8326 19.6227C20.5176 21.5132 20.9243 23.4872 21.0164 25.3672C20.9099 25.4075 20.8025 25.4449 20.695 25.4795C20.6663 25.4891 20.6365 25.4968 20.6077 25.5054C20.5233 25.5313 20.4379 25.5572 20.3525 25.5803C20.3103 25.5918 20.2672 25.6014 20.224 25.6129C20.1511 25.6311 20.0782 25.6484 20.0043 25.6647C19.9582 25.6753 19.9112 25.6839 19.8642 25.6935C19.7932 25.7079 19.7222 25.7204 19.6503 25.7329C19.6033 25.7405 19.5553 25.7482 19.5073 25.7549C19.4344 25.7655 19.3615 25.7751 19.2876 25.7828C19.2416 25.7885 19.1965 25.7933 19.1504 25.7981C19.0698 25.8058 18.9893 25.8115 18.9087 25.8163C18.8693 25.8192 18.831 25.8221 18.7916 25.824C18.6717 25.8298 18.5508 25.8336 18.4299 25.8336C18.3206 25.8336 18.2122 25.8307 18.1037 25.8259L18.1028 25.8279Z" fill="#3B3B3B"/>
</svg>
