<svg width="37" height="37" viewBox="0 0 37 37" fill="none" xmlns="http://www.w3.org/2000/svg">
<circle cx="18.5" cy="18.368" r="18" fill="#F2F2F2"/>
<path fill-rule="evenodd" clip-rule="evenodd" d="M17.328 20.9558C17.3125 21.0096 17.2979 21.0553 17.286 21.1009C16.5976 23.7989 16.521 24.3982 15.8134 25.6514C15.476 26.247 15.0958 26.8117 14.6754 27.3516C14.628 27.4127 14.5833 27.4912 14.4885 27.472C14.3845 27.4501 14.3763 27.3571 14.3654 27.2732C14.2523 26.4532 14.1894 25.6314 14.2167 24.8032C14.2523 23.725 14.3854 23.3547 15.7751 17.5098C15.7952 17.4204 15.7724 17.3466 15.7432 17.2663C15.4103 16.3688 15.3447 15.4576 15.6356 14.5345C16.2648 12.5406 18.5243 12.3883 18.9192 14.0328C19.1626 15.0499 18.5189 16.3816 18.0246 18.3499C17.6152 19.9735 19.5265 21.1282 21.1596 19.9425C22.666 18.8498 23.2505 16.2301 23.1392 14.3731C22.9204 10.6708 18.8617 9.87083 16.2876 11.063C13.3359 12.4284 12.6648 16.0878 13.9979 17.7607C14.1666 17.9732 14.4848 18.1036 14.4292 18.3189C14.3435 18.6536 14.2678 18.9911 14.1748 19.3241C14.1055 19.5722 13.7107 19.6624 13.4599 19.5603C12.9684 19.3614 12.559 19.0486 12.2271 18.6363C11.0955 17.2344 10.7718 14.4615 12.2681 12.1137C13.9259 9.51328 17.0097 8.46069 19.8255 8.77993C23.1884 9.16211 25.314 11.4607 25.7115 14.0684C25.893 15.256 25.7626 18.1848 24.0957 20.2553C22.1781 22.6341 19.0696 22.7919 17.6353 21.3316C17.5249 21.2194 17.4365 21.089 17.328 20.9549V20.9558Z" fill="#3B3B3B"/>
</svg>
