<svg width="1009" height="105" viewBox="0 0 1009 105" fill="none" xmlns="http://www.w3.org/2000/svg">
<path d="M61.4395 104.056L58.6399 103.351L60.6496 101.279L61.4395 104.056ZM60.2532 102.905L60.4273 102.726L60.2532 102.905ZM60.3757 103.372L60.0792 103.085L60.4273 102.726L60.7238 103.013L60.3757 103.372ZM60.0792 103.085C59.9599 102.969 59.8401 102.854 59.7197 102.74L60.0636 102.377C60.1853 102.493 60.3066 102.609 60.4273 102.726L60.0792 103.085ZM58.9917 102.067C58.7462 101.845 58.4986 101.626 58.2492 101.412L58.5755 101.033C58.828 101.25 59.0785 101.471 59.3269 101.696L58.9917 102.067ZM57.4897 100.773C57.2341 100.563 56.9767 100.357 56.7174 100.154L57.0254 99.7601C57.2878 99.9652 57.5483 100.174 57.807 100.386L57.4897 100.773ZM55.9281 99.5518C55.663 99.3545 55.3961 99.1609 55.1274 98.9708L55.4162 98.5626C55.6881 98.755 55.9582 98.951 56.2265 99.1507L55.9281 99.5518ZM54.31 98.407C54.0357 98.2227 53.7599 98.042 53.4823 97.865L53.7512 97.4435C54.0321 97.6226 54.3113 97.8055 54.5889 97.992L54.31 98.407ZM52.6388 97.3412C52.356 97.1703 52.0715 97.003 51.7856 96.8394L52.0339 96.4054C52.3233 96.571 52.6111 96.7403 52.8974 96.9133L52.6388 97.3412ZM50.9183 96.3571C50.6275 96.2 50.3352 96.0466 50.0415 95.8969L50.2686 95.4514C50.5658 95.6029 50.8616 95.7582 51.156 95.9172L50.9183 96.3571ZM49.1523 95.4571C48.8542 95.3142 48.5548 95.175 48.2541 95.0396L48.4594 94.5837C48.7638 94.7207 49.0668 94.8616 49.3685 95.0063L49.1523 95.4571ZM47.345 94.6433C47.0403 94.5149 46.7345 94.3903 46.4275 94.2695L46.6106 93.8042C46.9213 93.9265 47.2309 94.0526 47.5392 94.1826L47.345 94.6433ZM45.5005 93.9175C45.19 93.8039 44.8785 93.6941 44.5659 93.5882L44.7264 93.1147C45.0428 93.2219 45.3581 93.333 45.6723 93.448L45.5005 93.9175ZM43.6232 93.2813C43.3076 93.1827 42.9911 93.088 42.6738 92.9972L42.8114 92.5165C43.1326 92.6084 43.4529 92.7043 43.7723 92.804L43.6232 93.2813ZM41.7175 92.7359C41.3976 92.6526 41.0769 92.5732 40.7554 92.4976L40.8698 92.0109C41.1951 92.0873 41.5197 92.1677 41.8435 92.252L41.7175 92.7359ZM39.7878 92.2824C39.4643 92.2145 39.1401 92.1505 38.8154 92.0904L38.9064 91.5988C39.235 91.6596 39.5631 91.7244 39.8905 91.7931L39.7878 92.2824ZM37.8386 91.9217C37.5122 91.8693 37.1853 91.8209 36.858 91.7764L36.9255 91.2809C37.2567 91.326 37.5875 91.375 37.9178 91.428L37.8386 91.9217ZM35.8743 91.6544C35.5458 91.6177 35.217 91.5848 34.888 91.5559L34.9317 91.0579C35.2647 91.0871 35.5975 91.1203 35.9299 91.1575L35.8743 91.6544ZM33.8995 91.481C33.5697 91.4599 33.2397 91.4428 32.9096 91.4296L32.9296 90.93C33.2637 90.9433 33.5976 90.9607 33.9314 90.982L33.8995 91.481ZM31.9187 91.4017C31.5883 91.3963 31.2579 91.3949 30.9275 91.3974L30.9237 90.8974C31.2581 90.8949 31.5925 90.8963 31.9269 90.9018L31.9187 91.4017ZM29.9364 91.4167C29.6061 91.427 29.276 91.4413 28.946 91.4595L28.9185 90.9602C29.2524 90.9418 29.5865 90.9274 29.9207 90.9169L29.9364 91.4167ZM27.957 91.5258C27.6277 91.5519 27.2986 91.5818 26.9698 91.6157L26.9186 91.1183C27.2513 91.0841 27.5843 91.0537 27.9176 91.0274L27.957 91.5258ZM25.9851 91.729C25.6574 91.7707 25.3301 91.8163 25.0033 91.8658L24.9284 91.3714C25.2591 91.3213 25.5904 91.2752 25.922 91.233L25.9851 91.729ZM24.025 92.0258C23.6997 92.0831 23.375 92.1442 23.0509 92.2092L22.9526 91.719C23.2806 91.6532 23.6092 91.5913 23.9384 91.5334L24.025 92.0258ZM22.0814 92.4158C21.7593 92.4884 21.4378 92.565 21.1172 92.6454L20.9955 92.1604C21.32 92.079 21.6453 92.0016 21.9714 91.928L22.0814 92.4158ZM20.1586 92.898C19.8404 92.986 19.523 93.0778 19.2066 93.1735L19.0618 92.6949C19.3821 92.5981 19.7033 92.5051 20.0254 92.4161L20.1586 92.898ZM18.2611 93.4718C17.9476 93.5749 17.635 93.6818 17.3235 93.7926L17.156 93.3215C17.4712 93.2094 17.7876 93.1012 18.105 92.9968L18.2611 93.4718ZM16.3934 94.1359C16.0852 94.2539 15.7782 94.3757 15.4723 94.5013L15.2824 94.0388C15.5919 93.9117 15.9027 93.7884 16.2146 93.669L16.3934 94.1359ZM14.5597 94.889C14.2577 95.0217 13.9569 95.1581 13.6575 95.2982L13.4455 94.8454C13.7485 94.7035 14.053 94.5655 14.3587 94.4312L14.5597 94.889ZM12.7644 95.7296C12.4692 95.8765 12.1754 96.0272 11.8831 96.1817L11.6496 95.7396C11.9454 95.5833 12.2428 95.4307 12.5416 95.282L12.7644 95.7296ZM11.0117 96.6557C10.7241 96.8166 10.438 96.9813 10.1535 97.1496L9.89887 96.7193C10.1868 96.5489 10.4764 96.3823 10.7675 96.2194L11.0117 96.6557ZM9.30557 97.6653C9.02621 97.8398 8.74851 98.018 8.47253 98.1998L8.19746 97.7823C8.4768 97.5983 8.75788 97.4179 9.04063 97.2413L9.30557 97.6653ZM7.64998 98.756C7.37955 98.9437 7.11089 99.1349 6.84406 99.3297L6.54923 98.9259C6.8193 98.7287 7.09122 98.5352 7.36493 98.3453L7.64998 98.756ZM6.04911 99.9249C5.78807 100.125 5.5289 100.329 5.27166 100.537L4.95782 100.147C5.21816 99.9374 5.48046 99.7311 5.74466 99.5283L6.04911 99.9249ZM4.5063 101.169C4.2551 101.382 4.00587 101.598 3.75866 101.817L3.42662 101.443C3.67679 101.221 3.92901 101.003 4.18323 100.787L4.5063 101.169ZM3.02457 102.485C2.78366 102.71 2.54481 102.937 2.30807 103.169L1.9587 102.811C2.19825 102.577 2.43996 102.346 2.68374 102.119L3.02457 102.485ZM1.60679 103.87C1.49097 103.989 1.37569 104.108 1.26097 104.228L0.899189 103.883C1.01527 103.761 1.13191 103.641 1.2491 103.521L1.60679 103.87Z" fill="url(#paint0_linear_1_5687)"/>
<path d="M328.979 104.056L324.779 102.999L327.794 99.8907L328.979 104.056ZM327.199 102.33L327.46 102.061L327.199 102.33ZM327.383 103.031L326.938 102.599L327.46 102.061L327.905 102.492L327.383 103.031ZM326.938 102.599C326.759 102.426 326.579 102.253 326.399 102.082L326.915 101.538C327.097 101.711 327.279 101.885 327.46 102.061L326.938 102.599ZM325.307 101.072C324.939 100.739 324.567 100.412 324.193 100.089L324.683 99.5213C325.061 99.8475 325.437 100.179 325.81 100.516L325.307 101.072ZM323.054 99.1313C322.671 98.8166 322.284 98.5072 321.895 98.2031L322.357 97.6123C322.751 97.9201 323.142 98.2332 323.53 98.5516L323.054 99.1313ZM320.711 97.2999C320.314 97.004 319.913 96.7135 319.51 96.4284L319.944 95.8161C320.352 96.1047 320.757 96.3987 321.159 96.6982L320.711 97.2999ZM318.284 95.5826C317.873 95.3062 317.459 95.0352 317.043 94.7697L317.446 94.1374C317.867 94.4061 318.286 94.6804 318.703 94.9602L318.284 95.5826ZM315.778 93.984C315.353 93.7276 314.927 93.4767 314.498 93.2314L314.87 92.5803C315.304 92.8287 315.736 93.0826 316.165 93.3421L315.778 93.984ZM313.197 92.5079C312.761 92.2722 312.322 92.042 311.882 91.8175L312.222 91.1493C312.668 91.3766 313.112 91.6095 313.553 91.8481L313.197 92.5079ZM310.548 91.1579C310.101 90.9435 309.652 90.7347 309.201 90.5316L309.508 89.8477C309.965 90.0533 310.42 90.2646 310.872 90.4817L310.548 91.1579ZM307.837 89.9372C307.38 89.7445 306.921 89.5576 306.461 89.3764L306.735 88.6785C307.201 88.8619 307.666 89.0511 308.128 89.2461L307.837 89.9372ZM305.07 88.8485C304.604 88.6781 304.137 88.5134 303.668 88.3545L303.909 87.6442C304.384 87.805 304.857 87.9717 305.328 88.1442L305.07 88.8485ZM302.254 87.8941C301.781 87.7463 301.306 87.6042 300.83 87.468L301.036 86.7469C301.518 86.8848 301.999 87.0286 302.478 87.1782L302.254 87.8941ZM299.396 87.076C298.916 86.9511 298.435 86.8319 297.953 86.7186L298.124 85.9885C298.612 86.1032 299.099 86.2237 299.585 86.3502L299.396 87.076ZM296.501 86.3958C296.016 86.294 295.53 86.198 295.042 86.1078L295.179 85.3704C295.672 85.4616 296.164 85.5587 296.655 85.6618L296.501 86.3958ZM293.577 85.8548C293.088 85.7762 292.597 85.7035 292.106 85.6367L292.208 84.8936C292.704 84.9612 293.201 85.0347 293.696 85.1142L293.577 85.8548ZM290.631 85.4538C290.138 85.3987 289.645 85.3494 289.151 85.3061L289.217 84.559C289.716 84.6028 290.216 84.6527 290.714 84.7085L290.631 85.4538ZM287.669 85.1937C287.174 85.1621 286.679 85.1363 286.184 85.1165L286.214 84.3671C286.715 84.3872 287.216 84.4132 287.717 84.4452L287.669 85.1937ZM284.697 85.0747C284.202 85.0667 283.706 85.0645 283.211 85.0683L283.205 84.3183C283.706 84.3145 284.208 84.3167 284.71 84.3248L284.697 85.0747ZM281.724 85.0972C281.229 85.1127 280.733 85.1341 280.238 85.1614L280.197 84.4125C280.698 84.3849 281.199 84.3633 281.7 84.3475L281.724 85.0972ZM278.755 85.2609C278.261 85.3 277.767 85.3449 277.274 85.3957L277.197 84.6497C277.696 84.5983 278.196 84.5528 278.696 84.5133L278.755 85.2609ZM275.797 85.5657C275.305 85.6282 274.814 85.6966 274.324 85.7708L274.212 85.0293C274.708 84.9541 275.205 84.885 275.702 84.8217L275.797 85.5657ZM272.857 86.0109C272.369 86.0968 271.882 86.1885 271.396 86.286L271.248 85.5506C271.74 85.4519 272.233 85.3591 272.727 85.2723L272.857 86.0109ZM269.941 86.5958C269.458 86.7048 268.976 86.8196 268.495 86.9403L268.313 86.2128C268.799 86.0907 269.287 85.9745 269.776 85.8642L269.941 86.5958ZM267.057 87.3192C266.58 87.4512 266.104 87.5889 265.629 87.7325L265.412 87.0146C265.893 86.8693 266.374 86.7299 266.857 86.5964L267.057 87.3192ZM264.211 88.1799C263.741 88.3345 263.272 88.4949 262.805 88.661L262.553 87.9544C263.026 87.7862 263.501 87.6239 263.977 87.4674L264.211 88.1799ZM261.409 89.176C260.947 89.353 260.487 89.5357 260.028 89.7241L259.743 89.0304C260.207 88.8397 260.673 88.6548 261.141 88.4756L261.409 89.176ZM258.659 90.3057C258.206 90.5047 257.755 90.7093 257.306 90.9196L256.988 90.2403C257.442 90.0275 257.899 89.8204 258.357 89.619L258.659 90.3057ZM255.966 91.5665C255.523 91.787 255.082 92.0131 254.644 92.2447L254.294 91.5816C254.737 91.3471 255.183 91.1183 255.632 90.8951L255.966 91.5665ZM253.337 92.9557C252.905 93.1971 252.476 93.4441 252.05 93.6966L251.668 93.0512C252.1 92.7956 252.534 92.5456 252.971 92.3012L253.337 92.9557ZM250.778 94.4701C250.359 94.7319 249.942 94.9992 249.528 95.2719L249.116 94.6456C249.535 94.3696 249.956 94.0991 250.38 93.8341L250.778 94.4701ZM248.294 96.1063C247.889 96.3877 247.486 96.6746 247.085 96.9668L246.643 96.3611C247.048 96.0653 247.456 95.775 247.867 95.4901L248.294 96.1063ZM245.893 97.8596C245.501 98.1601 245.113 98.466 244.727 98.7771L244.256 98.1932C244.647 97.8784 245.04 97.5688 245.436 97.2646L245.893 97.8596ZM243.579 99.7257C243.202 100.045 242.828 100.369 242.457 100.698L241.959 100.137C242.334 99.8041 242.713 99.4761 243.094 99.1532L243.579 99.7257ZM241.356 101.7C240.995 102.037 240.637 102.378 240.281 102.725L239.757 102.189C240.117 101.838 240.479 101.492 240.845 101.151L241.356 101.7ZM239.229 103.777C239.056 103.955 238.883 104.134 238.711 104.314L238.168 103.797C238.342 103.614 238.517 103.433 238.693 103.253L239.229 103.777Z" fill="url(#paint1_linear_1_5687)"/>
<path d="M626.697 104.056L621.098 102.647L625.118 98.5024L626.697 104.056ZM624.325 101.755L624.673 101.396L624.325 101.755ZM624.57 102.689L623.977 102.114L624.673 101.396L625.266 101.971L624.57 102.689ZM623.977 102.114C623.738 101.882 623.498 101.653 623.258 101.425L623.945 100.699C624.189 100.929 624.431 101.162 624.673 101.396L623.977 102.114ZM621.802 100.078C621.311 99.634 620.816 99.1973 620.317 98.7674L620.969 98.0098C621.474 98.4448 621.975 98.8867 622.472 99.3357L621.802 100.078ZM618.798 97.4899C618.287 97.0703 617.772 96.6577 617.253 96.2523L617.869 95.4645C618.394 95.8749 618.915 96.2923 619.432 96.717L618.798 97.4899ZM615.674 95.048C615.144 94.6534 614.61 94.2661 614.073 93.8859L614.651 93.0696C615.195 93.4544 615.735 93.8464 616.271 94.2457L615.674 95.048ZM612.438 92.7583C611.89 92.3897 611.338 92.0284 610.783 91.6744L611.321 90.8313C611.883 91.1896 612.441 91.5553 612.996 91.9283L612.438 92.7583ZM609.096 90.6268C608.53 90.2849 607.961 89.9504 607.39 89.6233L607.886 88.7552C608.465 89.0863 609.041 89.4249 609.613 89.7709L609.096 90.6268ZM605.655 88.6586C605.073 88.3443 604.489 88.0375 603.901 87.7382L604.356 86.8472C604.95 87.1502 605.542 87.4607 606.13 87.7789L605.655 88.6586ZM602.123 86.8587C601.527 86.5727 600.928 86.2944 600.327 86.0236L600.737 85.1118C601.346 85.3858 601.952 85.6676 602.555 85.957L602.123 86.8587ZM598.508 85.231C597.899 84.9742 597.287 84.7249 596.673 84.4833L597.04 83.5528C597.661 83.7973 598.28 84.0496 598.897 84.3096L598.508 85.231ZM594.819 83.7794C594.198 83.5522 593.575 83.3326 592.95 83.1208L593.271 82.1737C593.904 82.3881 594.535 82.6103 595.163 82.8403L594.819 83.7794ZM591.065 82.5069C590.434 82.3098 589.801 82.1204 589.166 81.9388L589.441 80.9774C590.083 81.1612 590.724 81.3529 591.363 81.5524L591.065 82.5069ZM587.253 81.4161C586.614 81.2495 585.972 81.0907 585.329 80.9396L585.558 79.9661C586.209 80.119 586.858 80.2798 587.505 80.4484L587.253 81.4161ZM583.394 80.5092C582.747 80.3734 582.099 80.2454 581.449 80.1252L581.631 79.1419C582.288 79.2635 582.944 79.3931 583.599 79.5305L583.394 80.5092ZM579.495 79.7878C578.843 79.6831 578.189 79.5862 577.534 79.4971L577.669 78.5062C578.332 78.5964 578.993 78.6944 579.654 78.8004L579.495 79.7878ZM575.567 79.2532C574.91 79.1797 574.252 79.1141 573.594 79.0563L573.682 78.0601C574.348 78.1186 575.013 78.185 575.678 78.2594L575.567 79.2532ZM571.617 78.9063C570.958 78.8642 570.298 78.8299 569.638 78.8035L569.678 77.8043C570.346 77.831 571.014 77.8657 571.681 77.9084L571.617 78.9063ZM567.656 78.7478C566.995 78.737 566.334 78.7342 565.673 78.7392L565.666 77.7392C566.334 77.7341 567.003 77.737 567.672 77.7479L567.656 78.7478ZM563.691 78.7777C563.031 78.7984 562.37 78.8269 561.71 78.8633L561.655 77.8649C562.323 77.828 562.991 77.7991 563.66 77.7782L563.691 78.7777ZM559.732 78.9961C559.074 79.0481 558.415 79.108 557.758 79.1758L557.655 78.181C558.321 78.1125 558.987 78.0519 559.654 77.9992L559.732 78.9961ZM555.788 79.4024C555.133 79.4858 554.478 79.5769 553.825 79.6759L553.675 78.6872C554.337 78.587 554.999 78.4947 555.662 78.4104L555.788 79.4024ZM551.868 79.9961C551.218 80.1105 550.568 80.2327 549.92 80.3628L549.723 79.3823C550.379 79.2507 551.037 79.127 551.695 79.0112L551.868 79.9961ZM547.981 80.7759C547.337 80.9212 546.694 81.0743 546.053 81.2351L545.809 80.2652C546.458 80.1024 547.109 79.9475 547.761 79.8004L547.981 80.7759ZM544.136 81.7405C543.499 81.9164 542.864 82.1 542.231 82.2914L541.942 81.3342C542.583 81.1405 543.225 80.9547 543.869 80.7766L544.136 81.7405ZM540.341 82.888C539.713 83.0942 539.088 83.308 538.465 83.5295L538.13 82.5873C538.761 82.3631 539.394 82.1467 540.028 81.938L540.341 82.888ZM536.605 84.2162C535.989 84.4522 535.375 84.6958 534.763 84.947L534.383 84.0219C535.002 83.7677 535.624 83.5211 536.248 83.2823L536.605 84.2162ZM532.938 85.7224C532.334 85.9877 531.732 86.2605 531.133 86.5409L530.709 85.6352C531.315 85.3514 531.924 85.0753 532.536 84.8068L532.938 85.7224ZM529.347 87.4035C528.757 87.6974 528.169 87.9989 527.585 88.3077L527.117 87.4236C527.709 87.1109 528.304 86.8058 528.901 86.5083L529.347 87.4035ZM525.842 89.2557C525.266 89.5776 524.694 89.9069 524.125 90.2436L523.616 89.383C524.192 89.0422 524.771 88.7089 525.353 88.3831L525.842 89.2557ZM522.43 91.2749C521.871 91.624 521.315 91.9804 520.763 92.344L520.213 91.5089C520.772 91.1409 521.334 90.7802 521.9 90.4269L522.43 91.2749ZM519.118 93.4564C518.577 93.8318 518.04 94.2142 517.506 94.6038L516.917 93.7962C517.457 93.4018 518.001 93.0147 518.548 92.6349L519.118 93.4564ZM515.917 95.7942C515.395 96.1949 514.876 96.6027 514.362 97.0175L513.734 96.2391C514.255 95.8192 514.779 95.4065 515.308 95.0009L515.917 95.7942ZM512.831 98.2823C512.329 98.7076 511.83 99.1398 511.336 99.579L510.672 98.8313C511.172 98.3869 511.676 97.9495 512.185 97.5191L512.831 98.2823ZM509.868 100.915C509.386 101.364 508.908 101.819 508.434 102.282L507.736 101.566C508.215 101.098 508.698 100.637 509.186 100.183L509.868 100.915ZM507.032 103.684C506.8 103.921 506.57 104.16 506.34 104.401L505.617 103.71C505.849 103.467 506.082 103.225 506.317 102.986L507.032 103.684Z" fill="url(#paint2_linear_1_5687)"/>
<path d="M1008.92 104.056L999.401 101.661L1006.23 94.6152L1008.92 104.056ZM1004.89 100.144L1005.48 99.5342L1004.89 100.144ZM1005.3 101.732L1004.29 100.755L1005.48 99.5342L1006.49 100.512L1005.3 101.732ZM1004.29 100.755C1003.89 100.361 1003.48 99.9707 1003.07 99.5832L1004.24 98.349C1004.66 98.7411 1005.07 99.1361 1005.48 99.5342L1004.29 100.755ZM1000.6 97.2932C999.762 96.5389 998.92 95.7964 998.072 95.0657L999.182 93.7778C1000.04 94.5172 1000.89 95.2686 1001.74 96.0318L1000.6 97.2932ZM995.49 92.8939C994.621 92.1805 993.746 91.4792 992.864 90.79L993.911 89.4508C994.804 90.1483 995.689 90.8581 996.569 91.5799L995.49 92.8939ZM990.18 88.7426C989.279 88.0719 988.372 87.4135 987.458 86.7672L988.44 85.3795C989.365 86.0335 990.283 86.7 991.195 87.3787L990.18 88.7426ZM984.679 84.8502C983.747 84.2236 982.809 83.6094 981.865 83.0076L982.779 81.5743C983.734 82.1834 984.684 82.8051 985.627 83.4393L984.679 84.8502ZM978.997 81.2266C978.035 80.6454 977.068 80.0767 976.096 79.5206L976.94 78.045C977.924 78.6078 978.903 79.1834 979.876 79.7717L978.997 81.2266ZM973.147 77.8808C972.158 77.3464 971.165 76.8249 970.166 76.316L970.938 74.8014C971.949 75.3164 972.955 75.8443 973.955 76.3852L973.147 77.8808ZM967.143 74.8208C966.129 74.3347 965.111 73.8615 964.089 73.4012L964.787 71.8511C965.822 72.317 966.852 72.796 967.878 73.288L967.143 74.8208ZM960.998 72.0539C959.962 71.6172 958.922 71.1935 957.879 70.7828L958.501 69.2008C959.558 69.6165 960.61 70.0454 961.658 70.4874L960.998 72.0539ZM954.727 69.5861C953.671 69.1998 952.612 68.8266 951.549 68.4664L952.095 66.8564C953.171 67.2209 954.243 67.5987 955.311 67.9897L954.727 69.5861ZM948.344 67.4229C947.271 67.0878 946.195 66.7658 945.116 66.457L945.584 64.8226C946.676 65.1351 947.765 65.461 948.851 65.8002L948.344 67.4229ZM941.865 65.5685C940.777 65.2853 939.686 65.0152 938.594 64.7584L938.983 63.1035C940.089 63.3634 941.192 63.6367 942.293 63.9234L941.865 65.5685ZM935.304 64.0267C934.204 63.7959 933.101 63.5783 931.997 63.374L932.307 61.7024C933.424 61.9091 934.54 62.1293 935.653 62.363L935.304 64.0267ZM928.676 62.8003C927.567 62.6223 926.455 62.4575 925.342 62.3061L925.572 60.6216C926.698 60.7749 927.823 60.9416 928.946 61.1218L928.676 62.8003ZM921.998 61.8915C920.881 61.7666 919.763 61.655 918.644 61.5567L918.793 59.8632C919.925 59.9627 921.057 60.0756 922.187 60.2021L921.998 61.8915ZM915.284 61.3018C914.162 61.2302 913.04 61.1719 911.918 61.127L911.986 59.4284C913.122 59.4738 914.257 59.5328 915.392 59.6053L915.284 61.3018ZM908.549 61.0323C907.425 61.014 906.302 61.0092 905.178 61.0176L905.166 59.3177C906.303 59.3091 907.44 59.314 908.576 59.3325L908.549 61.0323ZM901.809 61.0832C900.686 61.1183 899.563 61.1669 898.442 61.2288L898.348 59.5313C899.483 59.4687 900.619 59.4196 901.756 59.384L901.809 61.0832ZM895.079 61.4544C893.959 61.5429 892.84 61.6447 891.722 61.7599L891.548 60.0688C892.679 59.9523 893.812 59.8492 894.945 59.7596L895.079 61.4544ZM888.374 62.1452C887.26 62.2868 886.147 62.4418 885.036 62.6101L884.782 60.9292C885.906 60.759 887.032 60.6021 888.16 60.4588L888.374 62.1452ZM881.71 63.1544C880.604 63.3489 879.5 63.5567 878.398 63.7778L878.064 62.111C879.179 61.8873 880.296 61.677 881.416 61.4801L881.71 63.1544ZM875.102 64.4801C874.007 64.7271 872.914 64.9874 871.823 65.2608L871.41 63.6119C872.513 63.3352 873.619 63.0718 874.728 62.8217L875.102 64.4801ZM868.564 66.1199C867.482 66.4189 866.403 66.7312 865.327 67.0565L864.835 65.4292C865.924 65.1 867.016 64.784 868.111 64.4813L868.564 66.1199ZM862.113 68.0706C861.047 68.4211 859.984 68.7847 858.925 69.1613L858.355 67.5595C859.427 67.1784 860.503 66.8104 861.582 66.4557L862.113 68.0706ZM855.763 70.3286C854.715 70.7298 853.671 71.1439 852.631 71.571L851.985 69.9984C853.038 69.5662 854.094 69.147 855.155 68.741L855.763 70.3286ZM849.528 72.8892C848.501 73.3402 847.478 73.804 846.46 74.2806L845.74 72.741C846.77 72.2585 847.805 71.7891 848.844 71.3327L849.528 72.8892ZM843.424 75.747C842.42 76.2467 841.421 76.7592 840.428 77.2843L839.633 75.7812C840.639 75.2497 841.65 74.731 842.666 74.2252L843.424 75.747ZM837.465 78.8958C836.487 79.4431 835.514 80.0029 834.547 80.5753L833.681 79.1122C834.66 78.5329 835.645 77.9663 836.634 77.4124L837.465 78.8958ZM831.664 82.3286C830.714 82.922 829.77 83.5278 828.832 84.146L827.896 82.7263C828.846 82.1007 829.802 81.4875 830.763 80.8868L831.664 82.3286ZM826.035 86.0371C825.115 86.6751 824.202 87.3253 823.295 87.9877L822.292 86.6147C823.211 85.9443 824.135 85.2862 825.066 84.6404L826.035 86.0371ZM820.592 90.0113C819.704 90.6926 818.823 91.3858 817.949 92.091L816.881 90.7676C817.767 90.0539 818.658 89.3523 819.557 88.6628L820.592 90.0113ZM815.346 94.2411C814.492 94.9641 813.645 95.6989 812.804 96.4455L811.675 95.1745C812.526 94.419 813.384 93.6754 814.248 92.9436L815.346 94.2411ZM810.308 98.7161C809.489 99.4792 808.677 100.254 807.872 101.04L806.684 99.8239C807.499 99.0284 808.321 98.2445 809.15 97.4722L810.308 98.7161ZM805.488 103.424C805.094 103.828 804.702 104.234 804.312 104.642L803.082 103.469C803.477 103.055 803.873 102.644 804.272 102.237L805.488 103.424Z" fill="url(#paint3_linear_1_5687)"/>
<defs>
<linearGradient id="paint0_linear_1_5687" x1="58.1573" y1="96.8421" x2="17.1643" y2="96.4744" gradientUnits="userSpaceOnUse">
<stop stop-color="#520909"/>
<stop offset="1" stop-color="#DB0B0B"/>
</linearGradient>
<linearGradient id="paint1_linear_1_5687" x1="324.055" y1="93.2353" x2="262.566" y2="92.6837" gradientUnits="userSpaceOnUse">
<stop stop-color="#520909"/>
<stop offset="1" stop-color="#DB0B0B"/>
</linearGradient>
<linearGradient id="paint2_linear_1_5687" x1="620.133" y1="89.6285" x2="538.147" y2="88.8931" gradientUnits="userSpaceOnUse">
<stop stop-color="#520909"/>
<stop offset="1" stop-color="#DB0B0B"/>
</linearGradient>
<linearGradient id="paint3_linear_1_5687" x1="997.76" y1="79.5296" x2="858.384" y2="78.2794" gradientUnits="userSpaceOnUse">
<stop stop-color="#520909"/>
<stop offset="1" stop-color="#DB0B0B"/>
</linearGradient>
</defs>
</svg>
