<svg width="20" height="20" viewBox="0 0 20 20" fill="none" xmlns="http://www.w3.org/2000/svg">
<path d="M16.4585 10.2452C16.4599 10.2229 16.4606 10.1998 16.4614 10.1768L16.4736 9.89107L16.4628 9.88819C16.4419 8.37815 15.9037 6.94729 14.9331 5.80432L14.9446 5.79209L14.6388 5.47755C13.412 4.21727 11.7692 3.52344 10.0121 3.52344C9.10983 3.52344 8.24207 3.70553 7.42683 4.06325L7.42036 4.05821L7.15557 4.18921C6.80515 4.36267 6.47416 4.56563 6.16548 4.79523C5.95969 4.94854 5.76398 5.11265 5.57834 5.28827C5.50926 5.35376 5.44235 5.4207 5.37615 5.48908C4.46881 6.42692 3.85288 7.62962 3.64062 8.94532L3.57227 9.37141L3.58737 9.37501C3.56867 9.5751 3.55859 9.77735 3.55859 9.97888C3.55859 11.6897 4.24072 13.33 5.44162 14.5356L5.43659 14.545L5.7057 14.7861C6.89078 15.8484 8.4198 16.4343 10.0114 16.4343C10.1244 16.4343 10.2366 16.4314 10.3482 16.4257C11.131 16.3861 11.8887 16.2062 12.6039 15.8916C12.6039 15.8916 12.6046 15.8916 12.6054 15.8916L12.8853 15.7686V15.7599C14.9683 14.7199 16.3592 12.5945 16.4578 10.2632C16.4578 10.2625 16.4578 10.2617 16.4578 10.261C16.4578 10.2603 16.4578 10.2589 16.4578 10.2581V10.2481L16.4585 10.2452ZM15.513 10.5979C15.5101 10.6209 15.5072 10.6439 15.5044 10.667C15.4993 10.7065 15.4943 10.7461 15.4885 10.785C15.4849 10.8102 15.4806 10.8354 15.4763 10.8606C15.4706 10.8973 15.4641 10.934 15.4576 10.9707C15.4526 10.9973 15.4475 11.0232 15.4418 11.0499C15.4346 11.0851 15.4281 11.1204 15.4202 11.155C15.4144 11.1816 15.408 11.2082 15.4015 11.2349C15.3936 11.2694 15.3849 11.3032 15.3763 11.3371C15.3691 11.3637 15.3619 11.391 15.3547 11.4177C15.3454 11.4508 15.336 11.4846 15.3266 11.5177C15.3187 11.5443 15.3108 11.5717 15.3022 11.5983C15.2921 11.6314 15.2813 11.6638 15.2712 11.6969C15.2626 11.7236 15.2533 11.7502 15.2439 11.7768C15.2324 11.8092 15.2209 11.8416 15.2094 11.874C15.2 11.8999 15.1899 11.9265 15.1799 11.9524C15.1676 11.9848 15.1547 12.0165 15.1417 12.0489C15.1317 12.0748 15.1209 12.1 15.1101 12.1259C15.0964 12.1576 15.0827 12.1892 15.0683 12.2209C15.0568 12.2461 15.046 12.2713 15.0345 12.2958C15.0194 12.3274 15.0043 12.3591 14.9892 12.3908C14.9777 12.4152 14.9654 12.439 14.9532 12.4635C14.9374 12.4951 14.9201 12.5268 14.9036 12.5585C14.8913 12.5815 14.8791 12.6045 14.8669 12.6276C14.8489 12.66 14.8302 12.6923 14.8115 12.7247C14.7992 12.7463 14.787 12.7679 14.7748 12.7888C14.7539 12.8241 14.7323 12.8593 14.7107 12.8939C14.6999 12.9111 14.6891 12.9291 14.6783 12.9471C14.6481 12.9946 14.6172 13.0414 14.5855 13.0882C14.5826 13.0933 14.579 13.0976 14.5762 13.1026C14.5409 13.1537 14.5049 13.2041 14.4682 13.2545C14.4574 13.2689 14.4459 13.2833 14.4351 13.2977C14.4092 13.3329 14.3826 13.3675 14.356 13.402C14.3416 13.4207 14.3265 13.4387 14.3114 13.4574C14.2876 13.4869 14.2632 13.5172 14.2387 13.546C14.2222 13.5654 14.2049 13.5848 14.1883 13.6043C14.1646 13.6316 14.1408 13.659 14.1164 13.6863C14.0984 13.7065 14.0804 13.7259 14.0624 13.7453C14.0387 13.7712 14.0142 13.7972 13.9897 13.8231C13.971 13.8425 13.9516 13.8619 13.9322 13.8814C13.9077 13.9058 13.8833 13.931 13.8581 13.9555C13.8379 13.9749 13.8185 13.9936 13.7983 14.0131C13.7732 14.0368 13.748 14.0606 13.7228 14.0836C13.7019 14.1023 13.6811 14.121 13.6602 14.1398C13.6343 14.1628 13.6084 14.1851 13.5818 14.2074C13.5602 14.2254 13.5393 14.2434 13.517 14.2614C13.4904 14.283 13.4638 14.3053 13.4364 14.3262C13.4148 14.3435 13.3925 14.3607 13.3702 14.378C13.3429 14.3989 13.3148 14.4197 13.2875 14.4406C13.2652 14.4572 13.2421 14.4737 13.2198 14.4903C13.1918 14.5104 13.163 14.5306 13.1342 14.55C13.1112 14.5658 13.0889 14.5817 13.0659 14.5968C13.0364 14.6162 13.0061 14.6357 12.9766 14.6544C12.9536 14.6688 12.9306 14.6839 12.9076 14.6983C12.886 14.712 12.8637 14.7242 12.8414 14.7379C12.737 13.3761 12.4319 11.9661 11.9477 10.6101C13.1472 10.3402 14.3646 10.3316 15.5144 10.5878C15.5144 10.5914 15.5144 10.595 15.5137 10.5979H15.513ZM11.6109 9.74784C11.4483 9.36277 11.2742 8.98635 11.0871 8.62216C12.2916 8.07443 13.3846 7.33812 14.2912 6.46507C15.0367 7.37123 15.4706 8.48036 15.5375 9.65571C14.2646 9.4002 12.9248 9.43187 11.6102 9.74784H11.6109ZM4.6379 8.63871C4.65877 8.5545 4.68179 8.47029 4.70698 8.3868C4.71129 8.37168 4.71633 8.35584 4.72065 8.34072C4.74583 8.25939 4.77245 8.17879 4.80124 8.0989C4.80339 8.09314 4.80483 8.0881 4.80699 8.08234C4.81059 8.07227 4.81419 8.06218 4.81779 8.0521C4.84729 7.97293 4.87823 7.8952 4.91061 7.81746C4.91564 7.80595 4.91996 7.79515 4.925 7.78364C4.92572 7.78148 4.92716 7.77933 4.92788 7.77645C4.96169 7.69728 4.99767 7.61954 5.03581 7.54253C5.04156 7.53029 5.04804 7.51806 5.05379 7.5051C5.09265 7.42737 5.13294 7.35108 5.1754 7.27551C5.18187 7.26327 5.18835 7.25175 5.19554 7.24024C5.23728 7.16682 5.28117 7.09413 5.3265 7.02215C5.33154 7.01424 5.33657 7.00631 5.34161 6.9984C5.34449 6.99336 5.34808 6.98832 5.35168 6.98328C5.39773 6.91131 5.44594 6.84078 5.49487 6.77168C5.50351 6.75944 5.51286 6.74649 5.52149 6.73425C5.57186 6.66444 5.62439 6.59533 5.67835 6.52768C5.68699 6.51688 5.69634 6.50609 5.70498 6.49529C5.75966 6.42763 5.81579 6.36069 5.87407 6.2952C5.88126 6.28656 5.88918 6.27864 5.89637 6.27C5.9561 6.20306 6.01798 6.13829 6.0813 6.07423C6.08849 6.06703 6.09497 6.06055 6.10216 6.05335C6.16404 5.99217 6.22664 5.93172 6.2914 5.87342C6.29716 5.86838 6.30291 5.86262 6.30867 5.85758C6.31227 5.8547 6.31515 5.85183 6.31874 5.84896C6.3835 5.79138 6.4497 5.73523 6.51662 5.67981C6.52741 5.67117 6.5382 5.66182 6.549 5.65319C6.61735 5.59848 6.68643 5.54595 6.75766 5.49412C6.76989 5.48549 6.78213 5.47612 6.79508 5.46748C6.86631 5.41638 6.93899 5.36672 7.0131 5.31921C7.02461 5.31201 7.03684 5.30411 7.04836 5.29691C7.12463 5.24869 7.20162 5.20189 7.28077 5.15727C7.28652 5.15439 7.29228 5.1508 7.29804 5.14792C8.22408 5.95404 9.07242 6.98327 9.78044 8.15862C8.07226 8.75962 6.26838 8.93381 4.63286 8.65598C4.6343 8.65022 4.63574 8.64375 4.63718 8.63727L4.6379 8.63871ZM10.2791 4.44616C10.3086 4.4476 10.3381 4.45047 10.3676 4.45191C10.4273 4.45551 10.4863 4.45984 10.5453 4.46488C10.5799 4.46848 10.6144 4.47279 10.6489 4.47639C10.7022 4.48214 10.7554 4.48862 10.8087 4.49654C10.8454 4.50158 10.8813 4.50806 10.9173 4.51381C10.9684 4.52245 11.0188 4.5311 11.0691 4.54045C11.1058 4.54765 11.1425 4.55484 11.1792 4.56275C11.2289 4.57355 11.2785 4.58434 11.3275 4.59658C11.3641 4.60522 11.4001 4.61458 11.4361 4.62394C11.485 4.63689 11.534 4.65057 11.5829 4.66497C11.6181 4.67505 11.6534 4.68584 11.6887 4.69663C11.7383 4.71247 11.788 4.72902 11.8376 4.74629C11.8707 4.75781 11.9038 4.7686 11.9369 4.78084C11.9901 4.80099 12.0434 4.82187 12.0959 4.84347C12.124 4.85498 12.152 4.86506 12.1794 4.87729C12.2549 4.90968 12.3298 4.9435 12.4039 4.97877C12.4111 4.98237 12.419 4.98598 12.4262 4.98958C12.501 5.02557 12.5751 5.0637 12.6478 5.10329C12.6744 5.11768 12.7003 5.1328 12.7262 5.14792C12.7759 5.17599 12.8255 5.20406 12.8752 5.23429C12.9054 5.25228 12.9342 5.27172 12.9637 5.29043C13.0083 5.3185 13.0522 5.34656 13.0961 5.37607C13.127 5.39695 13.1572 5.41783 13.1875 5.43942C13.2292 5.46893 13.2709 5.49844 13.3119 5.52939C13.3422 5.5517 13.3717 5.57473 13.4019 5.59776C13.4422 5.62943 13.4825 5.66109 13.522 5.6942C13.5508 5.71795 13.5796 5.74242 13.6084 5.76689C13.6235 5.77985 13.6386 5.79425 13.6537 5.8072C12.8061 6.6234 11.7779 7.30862 10.6432 7.81604C9.94953 6.63781 9.12063 5.59057 8.21041 4.73767C8.78604 4.53901 9.38902 4.43824 10.0107 4.43824C10.1006 4.43824 10.1899 4.4404 10.2791 4.44472V4.44616ZM4.48968 9.56214C5.04516 9.6557 5.61719 9.7025 6.19714 9.7025C7.53404 9.7025 8.91484 9.45634 10.2345 8.97195C10.4086 9.30663 10.5727 9.6514 10.7252 10.0055C10.6482 10.0314 10.5719 10.0573 10.4957 10.0854C8.56011 10.8015 6.95625 12.0762 5.91652 13.705C4.99407 12.6909 4.47385 11.3615 4.47385 9.97816C4.47385 9.83924 4.4796 9.70033 4.48968 9.56214ZM9.76605 15.5109C9.73943 15.5094 9.71281 15.5073 9.68618 15.5058C9.6315 15.503 9.57753 15.4994 9.52285 15.4943C9.49119 15.4915 9.46025 15.4878 9.42859 15.4842C9.37966 15.4792 9.33001 15.4735 9.28108 15.467C9.24798 15.4627 9.21489 15.4576 9.18179 15.4526C9.13502 15.4454 9.08825 15.4382 9.04148 15.4295C9.00766 15.4238 8.97384 15.4173 8.94074 15.4101C8.89469 15.4008 8.84936 15.3914 8.80403 15.3813C8.77021 15.3741 8.73711 15.3662 8.70401 15.3576C8.65868 15.3468 8.61335 15.3345 8.56874 15.323C8.53564 15.3144 8.50326 15.305 8.47088 15.2957C8.42555 15.2827 8.38022 15.2683 8.33489 15.2539C8.30323 15.2439 8.27229 15.2345 8.24063 15.2237C8.19386 15.2079 8.14709 15.1906 8.10104 15.174C8.07226 15.1633 8.04276 15.1532 8.01398 15.1416C7.96361 15.1222 7.91324 15.1013 7.86287 15.0798C7.83913 15.0697 7.81538 15.0603 7.79164 15.0502C7.71968 15.0186 7.64845 14.9855 7.57794 14.9509C7.5765 14.9509 7.57506 14.9495 7.57362 14.9488C7.50094 14.9135 7.42971 14.8761 7.35848 14.8372C7.33761 14.8257 7.31674 14.8127 7.29516 14.8012C7.24623 14.7739 7.1973 14.7458 7.14909 14.717C7.12319 14.7012 7.09728 14.6846 7.07138 14.6681C7.02893 14.6414 6.98648 14.6148 6.94474 14.5867C6.9174 14.5687 6.89006 14.5493 6.86343 14.5306C6.82386 14.5032 6.785 14.4759 6.74615 14.4471C6.71809 14.4269 6.69074 14.4061 6.6634 14.3852C6.64254 14.3694 6.62167 14.3528 6.6008 14.3362C7.52829 12.8075 9.01198 11.6106 10.8144 10.9434C10.8964 10.9131 10.9799 10.8851 11.0634 10.857C11.5771 12.2749 11.8822 13.7554 11.9513 15.1654C11.8714 15.1956 11.7908 15.2237 11.7102 15.2496C11.6887 15.2568 11.6664 15.2626 11.6448 15.269C11.5814 15.2885 11.5174 15.3079 11.4534 15.3252C11.4217 15.3338 11.3893 15.341 11.357 15.3497C11.3023 15.3633 11.2476 15.3763 11.1922 15.3885C11.1576 15.3964 11.1224 15.4029 11.0871 15.4101C11.0339 15.4209 10.9806 15.4303 10.9267 15.4396C10.8914 15.4454 10.8554 15.4511 10.8195 15.4562C10.7648 15.4641 10.7101 15.4713 10.6547 15.4771C10.6201 15.4814 10.5863 15.485 10.5518 15.4886C10.4913 15.4943 10.4309 15.4986 10.3705 15.5022C10.341 15.5044 10.3122 15.5066 10.2827 15.508C10.1927 15.5123 10.1021 15.5152 10.0114 15.5152C9.92939 15.5152 9.84808 15.513 9.76677 15.5094L9.76605 15.5109Z" fill="#3B3B3B"/>
</svg>
