<svg width="19" height="20" viewBox="0 0 19 20" fill="none" xmlns="http://www.w3.org/2000/svg">
<path d="M8.68736 10.4875C8.45177 10.192 8.182 9.9658 7.87992 9.81282C8.14685 9.65033 8.37673 9.45081 8.56671 9.21326C8.88684 8.81227 9.04928 8.30959 9.04928 7.71857C9.04928 7.22541 8.91914 6.77217 8.66171 6.37214C8.40523 5.9721 8.02336 5.65093 7.52655 5.41718C7.04019 5.18818 6.45409 5.07227 5.78629 5.07227H1.98755V14.885H5.96108C6.61177 14.885 7.19313 14.7662 7.68804 14.5325C8.19245 14.2949 8.58571 13.9624 8.85549 13.5452C9.12622 13.1262 9.26396 12.6501 9.26396 12.1304C9.26396 11.5213 9.07017 10.9692 8.68736 10.4884V10.4875ZM6.66972 8.69918C6.43509 8.88922 6.09217 8.98615 5.65235 8.98615H4.00898V6.81209H5.65235C6.09027 6.81209 6.43129 6.91185 6.66592 7.10949C6.89105 7.29859 7.00029 7.5599 7.00029 7.90578C7.00029 8.25165 6.892 8.51959 6.66972 8.69918ZM4.00898 10.7269H5.77299C6.23465 10.7269 6.58993 10.839 6.85875 11.0699C7.11618 11.2913 7.24157 11.585 7.24157 11.9688C7.24157 12.3527 7.12568 12.6235 6.8863 12.8259C6.63837 13.0359 6.28215 13.1423 5.82619 13.1423H4.00898V10.7269Z" fill="#3B3B3B"/>
<path d="M17.0238 8.84582C16.7179 8.2928 16.2847 7.85667 15.7357 7.5507C15.1876 7.24474 14.554 7.08984 13.8548 7.08984C13.1557 7.08984 12.4746 7.24948 11.9132 7.56399C11.3508 7.87946 10.9082 8.3327 10.5985 8.91328C10.2888 9.4929 10.1321 10.1732 10.1321 10.9353C10.1321 11.6974 10.2936 12.3787 10.6127 12.9573C10.9319 13.537 11.3784 13.9931 11.9407 14.3123C12.5021 14.6316 13.1462 14.7931 13.8558 14.7931C14.7269 14.7931 15.4668 14.5717 16.0558 14.1356C16.6448 13.6994 17.057 13.1312 17.2822 12.448L17.2983 12.3996H15.5751L15.5647 12.4205C15.2332 13.0923 14.6585 13.4324 13.8548 13.4324C13.2953 13.4324 12.8166 13.2548 12.4318 12.906C12.0566 12.5649 11.841 12.1088 11.7906 11.5491H17.4256L17.4303 11.5178C17.4664 11.2926 17.4845 11.0379 17.4845 10.7614C17.4845 10.0431 17.3296 9.39883 17.0238 8.84582ZM12.4584 8.94464C12.8251 8.61682 13.2725 8.45149 13.7874 8.45149C14.3564 8.45149 14.8399 8.61968 15.2246 8.95225C15.5989 9.27532 15.7974 9.70955 15.8145 10.2417H11.8068C11.8828 9.70099 12.1022 9.26486 12.4594 8.94559L12.4584 8.94464Z" fill="#3B3B3B"/>
<path d="M15.686 5.29688H11.9329V6.18627H15.686V5.29688Z" fill="#3B3B3B"/>
</svg>
