<svg width="50" height="51" viewBox="0 0 50 51" fill="none" xmlns="http://www.w3.org/2000/svg">
<mask id="mask0_1_616" style="mask-type:luminance" maskUnits="userSpaceOnUse" x="-1" y="0" width="52" height="51">
<path d="M-0.00012207 0.0704346H50.0001V50.0529H-0.00012207V0.0704346Z" fill="white"/>
</mask>
<g mask="url(#mask0_1_616)">
<path d="M44.9648 50.0529H5.0361C2.25889 50.0529 -0.00012207 47.7956 -0.00012207 45.0194V5.10398C-0.00012207 2.32776 2.25889 0.0704346 5.0361 0.0704346H44.9648C47.742 0.0704346 50.0001 2.32776 50.0001 5.10398V45.0211C50.0001 47.7956 47.742 50.0529 44.9648 50.0529ZM5.0361 2.15304C3.40826 2.15304 2.08322 3.47496 2.08322 5.10398V45.0211C2.08322 46.6475 3.40826 47.9703 5.0361 47.9703H44.9648C46.5926 47.9703 47.9168 46.6475 47.9168 45.0194V5.10398C47.9168 3.47496 46.5926 2.15304 44.9648 2.15304H5.0361Z" fill="#0C0815"/>
</g>
<path d="M26.9805 41.1311H13.5809C13.0062 41.1311 12.5392 40.6643 12.5392 40.0898V10.9333C12.5392 10.3588 13.0062 9.89203 13.5809 9.89203H27.7538C30.6078 9.89203 32.9374 10.5671 34.6765 11.8979C36.5224 13.3036 37.4581 15.4109 37.4581 18.1598C37.4581 19.8409 37.0326 21.3084 36.1931 22.5209C35.7667 23.1395 35.2432 23.6875 34.6306 24.1596C35.6722 24.6909 36.5224 25.4304 37.173 26.372C38.2058 27.8651 38.7293 29.735 38.7293 31.9341C38.7293 33.0654 38.5307 34.1667 38.1431 35.2142C38.1431 35.3369 38.1228 35.4578 38.0769 35.5681C37.5976 36.7347 36.8243 37.7672 35.8453 38.557C34.8416 39.3688 33.5977 40.006 32.1517 40.4498C30.689 40.9016 28.9517 41.1311 26.9805 41.1311ZM14.6225 39.0485H26.9831C28.7434 39.0485 30.275 38.8508 31.5373 38.4608C32.7291 38.0963 33.7372 37.5845 34.5352 36.9385C35.162 36.4329 35.6722 35.7913 36.0227 35.0686C36.0271 34.9521 36.0536 34.8356 36.0977 34.7227C36.4623 33.8402 36.6459 32.903 36.6459 31.9359C36.6459 30.1683 36.2478 28.6955 35.4604 27.5562C34.7188 26.4823 33.5686 25.7763 32.0396 25.4533C31.5576 25.351 31.2142 24.9265 31.2142 24.435C31.2142 24.0158 31.4641 23.5437 31.8516 23.3813C32.9957 22.8977 33.8811 22.2103 34.4831 21.3419C35.0764 20.4815 35.3792 19.4138 35.3792 18.1642C35.3792 16.071 34.7347 14.5629 33.4168 13.5569C32.0493 12.5094 30.1452 11.979 27.7582 11.979H14.6225V39.0485Z" fill="#0C0815"/>
<path d="M27.7544 36.9656H18.7254C18.1507 36.9656 17.6837 36.4996 17.6837 35.9243V26.8279C17.6837 26.2525 18.1507 25.7866 18.7254 25.7866H27.7279C29.4652 25.7866 30.867 26.2278 31.8964 27.0988C31.9502 27.1314 32.0023 27.1694 32.0508 27.2126C33.1216 28.1692 33.6716 29.5414 33.6901 31.2905C33.6901 33.0633 33.1446 34.4664 32.0694 35.4742C31.0277 36.4634 29.5738 36.9656 27.7544 36.9656ZM19.7671 34.883H27.7544C29.0212 34.883 29.994 34.5732 30.6419 33.9608C31.2925 33.3501 31.6086 32.4818 31.6086 31.3028C31.5989 30.2183 31.319 29.4144 30.7629 28.8602C30.717 28.831 30.6711 28.7975 30.634 28.7604C29.9799 28.163 29.0273 27.8709 27.7297 27.8709H19.7671V34.883Z" fill="#0C0815"/>
<path d="M27.0197 24.186H18.6863C18.1116 24.186 17.6447 23.7192 17.6447 23.1447V15.0993C17.6447 14.5249 18.1116 14.058 18.6863 14.058H27.0197C28.6369 14.058 29.9284 14.4393 30.8598 15.1911C31.8493 15.9889 32.3516 17.3073 32.3516 19.1048C32.3516 20.7268 31.814 22.0055 30.7529 22.9056C30.7203 22.9347 30.6867 22.9594 30.6514 22.9824C29.676 23.7695 28.4242 24.186 27.0197 24.186ZM19.728 22.1034H27.0197C27.9828 22.1034 28.7826 21.8387 29.3952 21.318C29.4217 21.2951 29.4473 21.2748 29.4738 21.258C30.0079 20.7665 30.2683 20.0623 30.2683 19.1048C30.2683 17.9673 30.0264 17.1943 29.5488 16.8113C28.9989 16.3657 28.147 16.1406 27.0197 16.1406H19.728V22.1034Z" fill="#0C0815"/>
</svg>
