<svg width="259" height="238" viewBox="0 0 259 238" fill="none" xmlns="http://www.w3.org/2000/svg">
<g clip-path="url(#clip0_1_8595)">
<rect x="0.5" y="0.567627" width="258" height="237.36" rx="21.9612" fill="#202130"/>
<g clip-path="url(#clip1_1_8595)">
<rect x="54.707" y="43.6399" width="152.265" height="152.265" rx="76.1323" fill="#202130"/>
<g opacity="0.9">
<path d="M83.2388 108.615C84.6134 108.615 85.869 108.905 87.0057 109.487C88.1689 110.042 89.0809 110.835 89.7417 111.866C90.429 112.897 90.7727 114.047 90.7727 115.316C90.7727 118.673 89.2527 120.788 86.2127 121.66V121.819C89.6756 122.612 91.4071 124.885 91.4071 128.639C91.4071 130.067 91.0503 131.336 90.3365 132.446C89.6492 133.53 88.6976 134.376 87.4816 134.984C86.2656 135.592 84.9306 135.896 83.4767 135.896H65.0781V108.615H83.2388ZM73.8412 119.241H79.8684C80.4499 119.241 80.9257 119.043 81.2958 118.647C81.6924 118.224 81.8906 117.708 81.8906 117.1V116.704C81.8906 116.122 81.6924 115.633 81.2958 115.237C80.8993 114.814 80.4235 114.602 79.8684 114.602H73.8412V119.241ZM73.8412 129.551H80.5028C81.0844 129.551 81.5602 129.353 81.9303 128.956C82.3268 128.533 82.525 128.018 82.525 127.41V127.013C82.525 126.405 82.3268 125.903 81.9303 125.507C81.5602 125.084 81.0844 124.872 80.5028 124.872H73.8412V129.551Z" fill="#FF7A59"/>
<path d="M95.1471 108.615H118.74V115.157H103.91V118.924H116.599V125.189H103.91V129.353H119.018V135.896H95.1471V108.615Z" fill="#FF7A59"/>
<path d="M130.385 135.896L120.71 108.615H130.068L135.54 126.855H135.699L141.21 108.615H150.172L140.536 135.896H130.385Z" fill="#FF7A59"/>
<path fill-rule="evenodd" clip-rule="evenodd" d="M183.665 141.094L179.462 136.375C174.862 136.296 171.32 135.067 168.835 132.688C166.376 130.282 165.147 126.806 165.147 122.259C165.147 117.633 166.416 114.13 168.954 111.751C171.518 109.345 175.153 108.143 179.858 108.143C184.563 108.143 188.198 109.345 190.762 111.751C193.327 114.157 194.609 117.659 194.609 122.259C194.609 125.325 194.027 127.916 192.864 130.031C191.899 131.803 190.554 133.214 188.828 134.262C188.52 134.449 188.2 134.625 187.868 134.789L194.093 141.094H183.665ZM189.587 135.031L196.614 142.147H183.192L178.978 137.417C174.421 137.261 170.75 135.98 168.106 133.448L168.098 133.441C165.378 130.779 164.094 126.994 164.094 122.259C164.094 117.442 165.42 113.621 168.233 110.983M189.587 135.031C191.366 133.903 192.772 132.402 193.788 130.536C195.056 128.23 195.662 125.455 195.662 122.259C195.662 117.462 194.32 113.644 191.483 110.983C188.665 108.339 184.739 107.089 179.858 107.089C174.978 107.089 171.051 108.339 168.233 110.983M183.342 117.077C182.613 116.23 181.512 115.739 179.858 115.739C178.204 115.739 177.103 116.23 176.374 117.077C175.603 117.973 175.162 119.238 175.162 120.99V123.528C175.162 125.279 175.603 126.544 176.374 127.44C177.103 128.288 178.204 128.779 179.858 128.779C181.512 128.779 182.613 128.288 183.342 127.44L183.351 127.43C184.143 126.534 184.594 125.273 184.594 123.528V120.99C184.594 119.245 184.143 117.984 183.351 117.088L183.342 117.077ZM184.14 116.39C185.145 117.527 185.647 119.06 185.647 120.99V123.528C185.647 125.458 185.145 126.991 184.14 128.128C183.162 129.264 181.735 129.833 179.858 129.833C177.981 129.833 176.554 129.264 175.576 128.128C174.598 126.991 174.109 125.458 174.109 123.528V120.99C174.109 119.06 174.598 117.527 175.576 116.39C176.554 115.254 177.981 114.685 179.858 114.685C181.735 114.685 183.162 115.254 184.14 116.39Z" fill="#FF7A59"/>
<path fill-rule="evenodd" clip-rule="evenodd" d="M161.125 100.766L156.774 96.4148L152.422 100.766L156.774 105.118L161.125 100.766ZM156.774 94.925L150.932 100.766L156.774 106.608L162.615 100.766L156.774 94.925Z" fill="#FF7A59"/>
<path fill-rule="evenodd" clip-rule="evenodd" d="M159.848 110.023H153.694V135.178H159.848V110.023ZM152.641 108.97V136.231H160.901V108.97H152.641Z" fill="#FF7A59"/>
</g>
</g>
<g filter="url(#filter0_f_1_8595)">
<ellipse cx="47.406" cy="19.628" rx="55.8474" ry="55.8474" fill="#FF7A59"/>
</g>
</g>
<rect x="0.866021" y="0.933648" width="257.268" height="236.628" rx="21.5952" stroke="#302733" stroke-width="0.732042"/>
<defs>
<filter id="filter0_f_1_8595" x="-250.505" y="-278.283" width="595.821" height="595.821" filterUnits="userSpaceOnUse" color-interpolation-filters="sRGB">
<feFlood flood-opacity="0" result="BackgroundImageFix"/>
<feBlend mode="normal" in="SourceGraphic" in2="BackgroundImageFix" result="shape"/>
<feGaussianBlur stdDeviation="121.032" result="effect1_foregroundBlur_1_8595"/>
</filter>
<clipPath id="clip0_1_8595">
<rect x="0.5" y="0.567627" width="258" height="237.36" rx="21.9612" fill="white"/>
</clipPath>
<clipPath id="clip1_1_8595">
<rect x="54.707" y="43.6399" width="152.265" height="152.265" rx="76.1323" fill="white"/>
</clipPath>
</defs>
</svg>
