<svg width="51" height="46" viewBox="0 0 51 46" fill="none" xmlns="http://www.w3.org/2000/svg">
<path d="M50.5449 45.1225C50.2579 45.4879 49.8795 45.5662 49.4358 45.5662C33.5174 45.5531 17.5989 45.5662 1.68043 45.5531C0.897553 45.5531 0.532211 45.3183 0.545259 44.8094C0.558307 44.3136 0.897553 44.0918 1.66738 44.0918C2.64598 44.0918 3.61152 44.0918 4.65536 44.0918C4.65536 43.883 4.65536 43.7003 4.65536 43.5307C4.65536 41.0908 4.65536 38.6508 4.65536 36.2109C4.65536 34.9192 5.30775 34.2668 6.61255 34.2537C8.20439 34.2537 9.80929 34.2407 11.4011 34.2537C12.6537 34.2668 13.3192 34.9322 13.3192 36.1979C13.3192 38.6117 13.3192 41.0125 13.3192 43.4263C13.3192 43.622 13.3192 43.8178 13.3192 44.0526C14.1151 44.0526 14.8849 44.0526 15.6939 44.0526C15.6939 42.9044 15.6939 41.7693 15.6939 40.6341C15.6939 40.4384 15.6809 40.2427 15.6939 40.047C15.72 39.5511 16.0071 39.251 16.4376 39.251C16.8682 39.251 17.1553 39.5511 17.1553 40.06C17.1683 41.2604 17.1553 42.4738 17.1553 43.6742C17.1553 43.7917 17.1553 43.896 17.1553 44.0526C19.0603 44.0526 20.9392 44.0526 22.8833 44.0526C22.8833 43.896 22.8833 43.7395 22.8833 43.5829C22.8833 39.3946 22.8833 35.2193 22.8833 31.0309C22.8833 30.3916 22.8833 30.3785 22.2309 30.3785C20.7174 30.3785 19.2038 30.3916 17.6902 30.3655C17.2857 30.3655 17.1553 30.496 17.1553 30.9005C17.1683 32.8707 17.1683 34.8409 17.1553 36.8111C17.1553 37.059 17.09 37.3591 16.9465 37.5157C16.803 37.6723 16.4507 37.7766 16.268 37.6984C16.0462 37.607 15.8374 37.333 15.733 37.0982C15.6417 36.8763 15.707 36.5893 15.707 36.3283C15.707 34.5016 15.707 32.688 15.707 30.8613C15.707 29.5826 16.3854 28.9172 17.6772 28.9172C19.256 28.9172 20.8348 28.9172 22.4136 28.9172C23.6923 28.9172 24.3708 29.5957 24.3708 30.8744C24.3708 35.0757 24.3708 39.2771 24.3708 43.4785C24.3708 43.6742 24.3708 43.8569 24.3708 44.0787C25.1797 44.0787 25.9365 44.0787 26.7455 44.0787C26.7455 43.8569 26.7455 43.6481 26.7455 43.4394C26.7455 37.5157 26.7455 31.592 26.7455 25.6683C26.7455 24.22 27.3848 23.5806 28.8201 23.5806C30.3467 23.5806 31.8864 23.5806 33.413 23.5806C34.7439 23.5806 35.4093 24.2591 35.4093 25.6031C35.4093 31.5659 35.4093 37.5157 35.4093 43.4785C35.4093 43.6742 35.4093 43.8569 35.4093 44.0918C36.2052 44.0918 36.962 44.0918 37.784 44.0918C37.784 43.883 37.784 43.6742 37.784 43.4655C37.784 35.7542 37.784 28.0299 37.784 20.3187C37.784 19.7707 37.7971 19.1966 38.2538 18.8313C38.593 18.5573 39.0366 18.2963 39.4411 18.2832C41.2157 18.218 42.9902 18.2311 44.7647 18.2702C45.7563 18.2832 46.4348 19.0139 46.4348 20.0056C46.4479 22.4455 46.4479 24.8854 46.4348 27.3254C46.4348 27.8603 46.1478 28.1735 45.7041 28.1735C45.2605 28.1735 44.9735 27.8603 44.9735 27.3254C44.9735 25.0029 44.9604 22.6673 44.9735 20.3448C44.9735 19.8881 44.8691 19.7055 44.3732 19.7185C42.8466 19.7446 41.307 19.7446 39.7804 19.7185C39.3498 19.7185 39.2193 19.862 39.2193 20.2796C39.2324 28.0821 39.2324 35.8717 39.2324 43.6742C39.2324 43.8047 39.2454 43.9221 39.2585 44.0918C41.1504 44.0918 43.0163 44.0918 44.9474 44.0918C44.9474 43.9091 44.9474 43.7134 44.9474 43.5307C44.9474 39.2771 44.9474 35.0366 44.9474 30.783C44.9474 30.6395 44.9343 30.4829 44.9474 30.3394C44.9865 29.9219 45.2475 29.674 45.6519 29.6609C46.0564 29.6479 46.3174 29.8827 46.3957 30.2872C46.4218 30.4438 46.4087 30.6134 46.4087 30.77C46.4087 34.9975 46.4087 39.238 46.4087 43.4655C46.4087 43.6612 46.4087 43.8439 46.4087 44.1048C47.4395 44.1048 48.4181 44.1179 49.4098 44.1048C49.8534 44.0918 50.2448 44.1831 50.5188 44.5615C50.5449 44.7311 50.5449 44.9268 50.5449 45.1225ZM33.9088 44.0526C33.9219 43.9091 33.9349 43.8047 33.9349 43.7003C33.9349 37.6462 33.9349 31.605 33.948 25.5509C33.948 25.1333 33.7914 25.0159 33.3999 25.0159C31.8994 25.029 30.412 25.0159 28.9115 25.0159C28.2199 25.0159 28.2199 25.0159 28.2199 25.7335C28.2199 31.6572 28.2199 37.5679 28.2199 43.4916C28.2199 43.6612 28.2199 43.8439 28.2199 44.0526C30.1249 44.0526 32.0038 44.0526 33.9088 44.0526ZM11.7926 44.0526C11.8056 43.9482 11.8317 43.87 11.8317 43.7917C11.8317 41.2604 11.8317 38.7161 11.8448 36.1848C11.8448 35.8195 11.7012 35.7151 11.3489 35.7151C9.80929 35.7281 8.25658 35.7412 6.71693 35.7151C6.2472 35.702 6.10368 35.8586 6.10368 36.3283C6.12977 38.7552 6.11672 41.1691 6.11672 43.5959C6.11672 43.7525 6.11672 43.9091 6.11672 44.0657C8.04782 44.0526 9.91367 44.0526 11.7926 44.0526Z" fill="#282C2F"/>
<path d="M40.9669 9.77613C40.706 7.12743 40.445 4.60921 40.184 2.0127C37.6788 2.66509 35.2128 3.30443 32.6293 3.96986C33.2034 4.37435 33.6862 4.71359 34.182 5.05283C34.7431 5.44426 34.8213 5.75741 34.4821 6.33151C33.4122 8.1582 32.0291 9.73698 30.5416 11.2244C30.2024 11.5637 29.7457 11.5506 29.4587 11.2505C29.1716 10.9374 29.2107 10.5459 29.5369 10.1676C30.5938 8.92802 31.6377 7.68848 32.6815 6.4359C32.7859 6.31847 32.8642 6.16189 32.9685 6.00532C32.1726 5.45731 31.4158 4.90931 30.633 4.37435C30.3198 4.16558 30.1241 3.91767 30.2024 3.52624C30.2807 3.13481 30.5547 2.99128 30.92 2.89995C34.0646 2.09098 37.2091 1.26897 40.3537 0.446963C41.2018 0.22515 41.5019 0.433915 41.5932 1.28202C41.9325 4.55701 42.2587 7.81896 42.5588 11.094C42.5849 11.3549 42.4152 11.6942 42.2326 11.8768C41.9716 12.1247 41.6324 12.0203 41.3453 11.8116C40.5755 11.2636 39.7926 10.7286 38.9836 10.1676C38.6183 10.6242 38.266 11.0548 37.9007 11.4984C33.2425 17.0568 27.371 20.8276 20.5339 23.124C16.6717 24.4157 12.7051 25.1464 8.6472 25.4596C7.69471 25.5379 6.96402 25.0159 6.78135 24.1809C6.59868 23.2806 7.02926 22.5369 7.98176 22.2237C11.4395 21.1277 14.8189 19.836 18.0678 18.205C21.3037 16.574 24.3569 14.656 27.1361 12.3335C27.2796 12.2161 27.4493 12.0725 27.6319 12.0203C27.9842 11.916 28.2843 12.0334 28.467 12.3596C28.6758 12.751 28.5453 13.0903 28.206 13.3512C27.1361 14.1732 26.0923 15.0344 24.9832 15.8042C20.0902 19.2227 14.7014 21.6105 9.02559 23.4241C8.85597 23.4763 8.6733 23.5154 8.51672 23.5937C8.41234 23.6459 8.33405 23.7634 8.24272 23.8547C8.3732 23.8938 8.50368 23.9852 8.62111 23.9721C9.97809 23.8286 11.3481 23.7112 12.6921 23.4893C17.4024 22.7456 21.9039 21.3626 26.1184 19.1314C30.7634 16.6654 34.6909 13.3643 37.8615 9.17593C37.9659 9.0324 38.0703 8.88888 38.1877 8.74535C38.527 8.34087 38.8532 8.28868 39.2968 8.58878C39.8318 8.98021 40.3537 9.34555 40.9669 9.77613Z" fill="#282C2F"/>
</svg>
