<svg width="51" height="51" viewBox="0 0 51 51" fill="none" xmlns="http://www.w3.org/2000/svg">
<g clip-path="url(#clip0_1_5644)">
<path d="M50.8418 38.2645C50.4381 39.3826 49.696 40.0327 48.446 40.0197C48.3548 40.0197 48.2506 40.1497 48.1986 40.2407C48.1074 40.3967 48.0944 40.5787 48.0033 40.7347C47.6517 41.3457 47.5345 41.8528 48.1074 42.5158C48.7194 43.2049 48.5241 44.3229 47.8991 45.025C47.4434 45.532 46.9616 46.0131 46.4538 46.4681C45.5944 47.2481 44.3444 47.2351 43.485 46.4421C43.2246 46.1951 43.0163 46.1561 42.7428 46.3381C42.7298 46.3511 42.7168 46.3511 42.7038 46.3511C41.8965 46.5851 41.3105 46.9101 41.2194 47.9502C41.1413 48.8342 40.1647 49.4193 39.2272 49.4453C38.6283 49.4583 38.0293 49.4583 37.4173 49.4453C36.1934 49.4323 35.2689 48.6002 35.2038 47.3781C35.1777 46.9621 35.0085 46.8321 34.6569 46.6761C33.9277 46.3771 33.3418 46.0521 32.5605 46.7541C31.9225 47.3391 30.8158 47.0921 30.1387 46.4811C29.6309 46.0261 29.1491 45.545 28.6934 45.038C27.9121 44.1669 27.9121 42.9319 28.7324 42.0868C28.9798 41.8268 29.0189 41.6318 28.8366 41.3457C28.7194 41.1507 28.6413 40.9297 28.5631 40.7217C28.2767 40.0067 28.2767 40.0067 27.4824 40.0067C25.0475 40.0067 22.5996 40.0067 20.1647 40.0067C19.5267 40.0067 19.11 39.6816 19.0579 39.1486C18.9928 38.5116 19.4095 38.0565 20.1257 38.0565C21.8053 38.0435 23.472 38.0565 25.1517 38.0565C25.321 38.0565 25.5033 38.0565 25.7376 38.0565C25.7376 37.4325 25.7376 36.8474 25.7376 36.2754C25.7506 34.7933 26.5319 33.9742 28.0033 33.8312C28.1465 33.8182 28.3418 33.6752 28.4069 33.5452C28.6283 33.0772 28.7975 32.5962 29.0059 32.0761C28.9017 31.9591 28.7845 31.8421 28.6673 31.6991C27.9251 30.828 27.9382 29.606 28.7194 28.7739C29.1361 28.3189 29.5788 27.8898 30.0215 27.4608C30.9199 26.6028 32.1699 26.5637 33.0944 27.4218C33.3418 27.6558 33.5371 27.7078 33.8105 27.5128C33.9017 27.4478 34.0059 27.3958 34.123 27.3698C34.8262 27.2008 35.2428 26.8758 35.3079 26.0307C35.373 25.1597 36.2064 24.5096 37.1048 24.4316C37.7949 24.3666 38.498 24.3666 39.2012 24.4056C40.4512 24.4576 41.2845 25.2637 41.3756 26.5247C41.4017 26.8498 41.4928 27.0058 41.8184 27.0968C42.209 27.2138 42.5605 27.4218 42.9512 27.5518C43.0814 27.5908 43.3158 27.5908 43.4069 27.4998C43.9408 26.9798 44.5658 26.7458 45.347 26.7978C45.347 23.5215 45.347 20.2453 45.347 16.9431C31.2064 16.9431 17.0788 16.9431 2.88607 16.9431C2.88607 17.1251 2.88607 17.3071 2.88607 17.4761C2.88607 23.1315 2.87305 28.7999 2.89909 34.4553C2.89909 35.0663 3.01628 35.7294 3.25065 36.3014C3.7194 37.4715 4.60482 38.1085 5.93294 38.0825C7.65169 38.0435 9.38346 38.0695 11.1022 38.0695C11.8444 38.0695 12.3001 38.4465 12.2871 39.0576C12.2741 39.6686 11.8314 40.0327 11.0762 40.0327C9.39648 40.0327 7.7168 39.9677 6.05013 40.0457C3.05534 40.1757 1.37565 37.9005 1.01107 35.7814C0.998047 35.6774 0.945964 35.5734 0.919922 35.4693C0.919922 25.8357 0.919922 16.2021 0.919922 6.5684C0.958984 6.4514 0.998047 6.32139 1.02409 6.20438C1.38867 3.68221 3.28971 1.96609 5.63346 1.96609C17.9251 1.96609 30.2298 1.96609 42.5215 1.96609C43.7975 1.96609 44.8652 2.42113 45.7376 3.33119C46.8835 4.52727 47.2871 5.98337 47.2741 7.60847C47.2611 14.2389 47.2741 20.8694 47.2611 27.4998C47.2611 27.9678 47.3783 28.3059 47.7168 28.6439C48.6543 29.5669 48.6543 30.815 47.7819 31.7771C47.6908 31.8681 47.6126 31.9721 47.5475 32.0501C47.7559 32.5572 47.9251 33.0382 48.1595 33.5062C48.2376 33.6492 48.4329 33.8182 48.5892 33.8182C49.1491 33.8572 49.6829 33.9742 50.0605 34.3773C50.373 34.7153 50.5814 35.1443 50.8288 35.5214C50.8418 36.4574 50.8418 37.3545 50.8418 38.2645ZM45.3079 14.902C45.3079 14.3689 45.3079 13.8749 45.3079 13.3939C45.3079 11.2357 45.347 9.07757 45.2819 6.91943C45.2298 5.0473 43.9798 3.91623 42.1048 3.91623C36.9095 3.91623 31.7272 3.91623 26.5319 3.91623C19.6048 3.91623 12.6908 3.92923 5.77669 3.91623C4.64388 3.91623 3.79753 4.39726 3.32878 5.37232C3.04232 5.97036 2.84701 6.65941 2.83398 7.32246C2.7819 9.74062 2.80794 12.1588 2.80794 14.5769C2.80794 14.681 2.83398 14.798 2.84701 14.915C16.9876 14.902 31.1152 14.902 45.3079 14.902ZM31.4928 28.7219C31.2324 28.9689 31.0111 29.1899 30.7767 29.4239C29.9434 30.243 29.9564 30.243 30.7637 31.0881C31.2845 31.6211 31.2845 31.9331 30.959 32.6092C30.6204 33.3242 30.2949 34.0523 30.0475 34.7933C29.7871 35.5734 29.5527 35.8074 28.7324 35.8074C27.6517 35.8204 27.6517 35.8204 27.6517 36.8994C27.6517 38.0435 27.6517 38.0435 28.8236 38.0565C29.5527 38.0565 29.8001 38.2905 30.0345 38.9926C30.2949 39.7596 30.6074 40.5007 30.959 41.2287C31.3105 41.9308 31.2975 42.2558 30.7376 42.8278C29.9694 43.6079 29.9694 43.6079 30.7637 44.3879C31.5579 45.181 31.5579 45.181 32.3652 44.3879C32.9251 43.8419 33.2246 43.8419 33.9277 44.1929C34.6178 44.531 35.347 44.843 36.0762 45.09C36.9486 45.376 37.1309 45.571 37.1439 46.5071C37.1439 47.6382 37.0267 47.5082 38.1725 47.5082C39.5788 47.5082 39.3835 47.6902 39.3965 46.3121C39.4095 45.61 39.6309 45.376 40.3079 45.129C41.0892 44.856 41.8574 44.544 42.5996 44.1929C43.3158 43.8419 43.6022 43.8419 44.1621 44.3879C44.9824 45.181 44.9824 45.181 45.7637 44.3879C46.5579 43.5949 46.5579 43.5949 45.7506 42.7888C45.2038 42.2428 45.2038 41.9308 45.5553 41.2287C45.8939 40.5397 46.2064 39.8246 46.4538 39.0836C46.7402 38.2385 46.9225 38.0565 47.847 38.0565C48.9798 38.0565 48.8756 38.1475 48.8756 37.0425C48.8756 35.8334 48.8756 35.8334 47.6908 35.8074C47.0006 35.7944 46.7402 35.5474 46.5059 34.8843C46.2454 34.1303 45.946 33.3632 45.5814 32.6482C45.1908 31.8681 45.1908 31.5951 45.8027 30.971C46.6621 30.1 46.6491 30.347 45.7897 29.4759C44.9694 28.6569 44.9694 28.6569 44.123 29.4759C43.6152 29.97 43.2637 29.97 42.6387 29.671C41.8835 29.3069 41.1022 28.9819 40.3079 28.7089C39.5918 28.4619 39.3574 28.2149 39.3444 27.4608C39.3314 26.3557 39.3314 26.3557 38.2246 26.3557C37.0918 26.3557 37.0918 26.3557 37.0788 27.4868C37.0658 28.2539 36.8574 28.5009 36.1152 28.7219C35.5293 28.9039 34.9173 29.0859 34.3965 29.3849C32.9121 30.23 32.821 29.97 31.8704 29.0079C31.7793 28.9299 31.6491 28.8519 31.4928 28.7219Z" fill="#282C2F"/>
<path d="M22.8706 27.4748C22.0893 26.5908 21.3341 25.7587 20.5919 24.9267C20.1232 24.3936 20.1101 23.8216 20.5398 23.4186C20.9825 23.0155 21.5815 23.0935 22.0633 23.6266C22.9096 24.5626 23.756 25.5117 24.5893 26.4608C25.1752 27.1368 25.1883 27.7999 24.6154 28.4629C23.756 29.438 22.8966 30.4 22.0242 31.3621C21.5815 31.8561 20.9956 31.9211 20.5659 31.5441C20.1232 31.1541 20.1101 30.556 20.5789 30.036C21.3211 29.2039 22.0763 28.3589 22.8706 27.4748Z" fill="#282C2F"/>
<path d="M8.5882 27.4725C9.33039 28.3046 10.0335 29.0846 10.7366 29.8777C10.8408 29.9947 10.958 30.1117 11.0491 30.2547C11.3356 30.6708 11.2705 31.2168 10.9059 31.5418C10.5413 31.8668 9.95539 31.9058 9.61685 31.5548C8.60122 30.4627 7.59862 29.3447 6.63508 28.2136C6.25747 27.7586 6.32258 27.1085 6.72622 26.6405C7.63768 25.5874 8.57518 24.5473 9.51268 23.5203C9.91633 23.0912 10.5023 23.0782 10.9059 23.4423C11.2965 23.8063 11.3356 24.3913 10.945 24.8464C10.346 25.5484 9.708 26.2245 9.09602 26.9135C8.93977 27.0695 8.78352 27.2515 8.5882 27.4725Z" fill="#282C2F"/>
<path d="M17.7286 23.3142C17.4812 24.3932 17.2599 25.3293 17.0255 26.2784C16.6088 28.0205 16.1921 29.7756 15.7625 31.5177C15.6973 31.7777 15.5802 32.0508 15.4109 32.2458C15.1114 32.5838 14.6947 32.6228 14.2911 32.4018C13.8744 32.1808 13.6921 31.8037 13.7963 31.3357C14.0958 30.0356 14.4083 28.7485 14.7078 27.4614C15.0333 26.0704 15.3588 24.6923 15.7104 23.3012C15.9057 22.4951 16.6739 22.1441 17.2468 22.5991C17.4812 22.7941 17.5984 23.1192 17.7286 23.3142Z" fill="#282C2F"/>
<path d="M15.6337 38.0699C16.1936 38.0699 16.6233 38.5119 16.6103 39.058C16.5973 39.591 16.1806 40.007 15.6468 40.02C15.1129 40.033 14.6442 39.578 14.6311 39.045C14.6181 38.4989 15.0738 38.0569 15.6337 38.0699Z" fill="#282C2F"/>
<path d="M34.4864 12.7554C33.002 12.7554 31.5307 12.7814 30.0463 12.7554C28.6531 12.7294 27.4552 11.8323 27.0125 10.5452C26.5698 9.25816 26.9474 7.88007 27.989 6.97C28.614 6.42397 29.3692 6.17695 30.1895 6.17695C33.0541 6.17695 35.9187 6.16395 38.7833 6.17695C40.7104 6.18995 42.1557 7.62005 42.1557 9.46617C42.1557 11.3253 40.7104 12.7424 38.7833 12.7554C37.351 12.7814 35.9187 12.7684 34.4864 12.7554C34.4864 12.7684 34.4864 12.7684 34.4864 12.7554ZM34.4994 8.14008C33.0672 8.14008 31.6349 8.12708 30.2026 8.14008C29.3823 8.15308 28.7963 8.71212 28.7963 9.45317C28.7963 10.1942 29.3692 10.7793 30.1765 10.7923C33.0541 10.8053 35.9317 10.8053 38.8093 10.7923C39.3953 10.7923 39.838 10.5192 40.0724 9.97321C40.463 9.06315 39.8119 8.15308 38.7182 8.14008C37.325 8.12708 35.9057 8.14008 34.4994 8.14008Z" fill="#282C2F"/>
<path d="M21.8458 9.48129C21.8458 11.3014 20.3354 12.7835 18.5125 12.7705C16.7156 12.7575 15.2312 11.2624 15.2442 9.46829C15.2442 7.67417 16.7286 6.19207 18.5385 6.17907C20.3484 6.16607 21.8458 7.66117 21.8458 9.48129ZM19.8796 9.46829C19.8796 8.74024 19.2677 8.1422 18.5255 8.1552C17.7963 8.1682 17.2234 8.74024 17.2234 9.45529C17.2104 10.1963 17.8093 10.7944 18.5385 10.8074C19.2677 10.8074 19.8796 10.1833 19.8796 9.46829Z" fill="#282C2F"/>
<path d="M13.278 9.46829C13.278 11.3014 11.7936 12.7705 9.95768 12.7575C8.14779 12.7575 6.68945 11.2884 6.68945 9.48129C6.68945 7.64817 8.18685 6.16607 9.99674 6.17907C11.8066 6.19207 13.278 7.66117 13.278 9.46829ZM9.95768 8.1552C9.21549 8.1682 8.62956 8.76624 8.6556 9.50729C8.66862 10.2093 9.26758 10.8074 9.9707 10.8074C10.6999 10.8074 11.2988 10.2093 11.2988 9.46829C11.2988 8.72724 10.6999 8.1422 9.95768 8.1552Z" fill="#282C2F"/>
<path d="M32.2485 36.8734C32.2875 33.5582 34.9959 30.906 38.3292 30.945C41.6495 30.984 44.3318 33.7142 44.2797 37.0164C44.2276 40.3057 41.4672 42.9838 38.1599 42.9318C34.8787 42.8798 32.2094 40.1497 32.2485 36.8734ZM34.2276 36.9124C34.2146 39.1356 35.9985 40.9297 38.2381 40.9687C40.4516 40.9947 42.3266 39.1486 42.3136 36.9254C42.3136 34.7023 40.5037 32.9082 38.2771 32.9082C36.0245 32.9082 34.2276 34.6893 34.2276 36.9124Z" fill="#282C2F"/>
</g>
<defs>
<clipPath id="clip0_1_5644">
<rect width="50" height="47.5052" fill="white" transform="translate(0.841797 1.96609)"/>
</clipPath>
</defs>
</svg>
