<svg width="52" height="58" viewBox="0 0 52 58" fill="none" xmlns="http://www.w3.org/2000/svg">
<path d="M51.791 57.3198C51.504 57.6851 51.1256 57.7634 50.6819 57.7634C34.7635 57.7504 18.845 57.7634 2.92652 57.7504C2.14365 57.7504 1.7783 57.5155 1.79135 57.0067C1.8044 56.5108 2.14365 56.289 2.91347 56.289C3.89207 56.289 4.85762 56.289 5.90145 56.289C5.90145 56.0803 5.90145 55.8976 5.90145 55.728C5.90145 53.288 5.90145 50.8481 5.90145 48.4082C5.90145 47.1164 6.55385 46.4641 7.85864 46.451C9.45049 46.451 11.0554 46.438 12.6472 46.451C13.8998 46.4641 14.5653 47.1295 14.5653 48.3951C14.5653 50.809 14.5653 53.2098 14.5653 55.6236C14.5653 55.8193 14.5653 56.015 14.5653 56.2499C15.3612 56.2499 16.131 56.2499 16.94 56.2499C16.94 55.1017 16.94 53.9665 16.94 52.8314C16.94 52.6357 16.9269 52.4399 16.94 52.2442C16.9661 51.7484 17.2531 51.4483 17.6837 51.4483C18.1143 51.4483 18.4014 51.7484 18.4014 52.2573C18.4144 53.4577 18.4014 54.6711 18.4014 55.8715C18.4014 55.9889 18.4014 56.0933 18.4014 56.2499C20.3064 56.2499 22.1853 56.2499 24.1294 56.2499C24.1294 56.0933 24.1294 55.9367 24.1294 55.7802C24.1294 51.5918 24.1294 47.4165 24.1294 43.2282C24.1294 42.5889 24.1294 42.5758 23.477 42.5758C21.9634 42.5758 20.4499 42.5889 18.9363 42.5628C18.5318 42.5628 18.4014 42.6932 18.4014 43.0977C18.4144 45.0679 18.4144 47.0382 18.4014 49.0084C18.4014 49.2563 18.3361 49.5564 18.1926 49.713C18.0491 49.8695 17.6968 49.9739 17.5141 49.8956C17.2923 49.8043 17.0835 49.5303 16.9791 49.2954C16.8878 49.0736 16.953 48.7866 16.953 48.5256C16.953 46.6989 16.953 44.8853 16.953 43.0586C16.953 41.7799 17.6315 41.1145 18.9233 41.1145C20.5021 41.1145 22.0809 41.1145 23.6597 41.1145C24.9384 41.1145 25.6169 41.7929 25.6169 43.0716C25.6169 47.273 25.6169 51.4744 25.6169 55.6758C25.6169 55.8715 25.6169 56.0542 25.6169 56.276C26.4258 56.276 27.1826 56.276 27.9916 56.276C27.9916 56.0542 27.9916 55.8454 27.9916 55.6366C27.9916 49.7129 27.9916 43.7893 27.9916 37.8656C27.9916 36.4173 28.6309 35.7779 30.0662 35.7779C31.5928 35.7779 33.1325 35.7779 34.6591 35.7779C35.99 35.7779 36.6554 36.4564 36.6554 37.8003C36.6554 43.7632 36.6554 49.7129 36.6554 55.6758C36.6554 55.8715 36.6554 56.0542 36.6554 56.289C37.4513 56.289 38.2081 56.289 39.0301 56.289C39.0301 56.0803 39.0301 55.8715 39.0301 55.6627C39.0301 47.9515 39.0301 40.2272 39.0301 32.516C39.0301 31.968 39.0432 31.3939 39.4999 31.0285C39.8391 30.7545 40.2827 30.4936 40.6872 30.4805C42.4617 30.4153 44.2363 30.4283 46.0108 30.4675C47.0024 30.4805 47.6809 31.2112 47.6809 32.2028C47.694 34.6428 47.694 37.0827 47.6809 39.5226C47.6809 40.0576 47.3939 40.3707 46.9502 40.3707C46.5066 40.3707 46.2195 40.0576 46.2195 39.5226C46.2195 37.2001 46.2065 34.8646 46.2195 32.5421C46.2195 32.0854 46.1152 31.9027 45.6193 31.9158C44.0927 31.9419 42.5531 31.9419 41.0265 31.9158C40.5959 31.9158 40.4654 32.0593 40.4654 32.4768C40.4785 40.2794 40.4785 48.0689 40.4785 55.8715C40.4785 56.002 40.4915 56.1194 40.5046 56.289C42.3965 56.289 44.2624 56.289 46.1935 56.289C46.1935 56.1064 46.1935 55.9106 46.1935 55.728C46.1935 51.4744 46.1935 47.2339 46.1935 42.9803C46.1935 42.8368 46.1804 42.6802 46.1935 42.5367C46.2326 42.1191 46.4936 41.8712 46.898 41.8582C47.3025 41.8451 47.5635 42.08 47.6418 42.4845C47.6679 42.6411 47.6548 42.8107 47.6548 42.9672C47.6548 47.1947 47.6548 51.4353 47.6548 55.6627C47.6548 55.8585 47.6548 56.0411 47.6548 56.3021C48.6856 56.3021 49.6642 56.3151 50.6558 56.3021C51.0995 56.289 51.4909 56.3804 51.7649 56.7588C51.791 56.9284 51.791 57.1241 51.791 57.3198ZM35.1549 56.2499C35.168 56.1064 35.181 56.002 35.181 55.8976C35.181 49.8434 35.181 43.8023 35.194 37.7481C35.194 37.3306 35.0375 37.2132 34.646 37.2132C33.1455 37.2262 31.6581 37.2132 30.1575 37.2132C29.466 37.2132 29.466 37.2132 29.466 37.9308C29.466 43.8545 29.466 49.7651 29.466 55.6888C29.466 55.8585 29.466 56.0411 29.466 56.2499C31.371 56.2499 33.2499 56.2499 35.1549 56.2499ZM13.0387 56.2499C13.0517 56.1455 13.0778 56.0672 13.0778 55.9889C13.0778 53.4577 13.0778 50.9133 13.0909 48.3821C13.0909 48.0167 12.9473 47.9124 12.595 47.9124C11.0554 47.9254 9.50268 47.9384 7.96302 47.9124C7.4933 47.8993 7.34977 48.0559 7.34977 48.5256C7.37587 50.9525 7.36282 53.3663 7.36282 55.7932C7.36282 55.9498 7.36282 56.1064 7.36282 56.2629C9.29391 56.2499 11.1598 56.2499 13.0387 56.2499Z" fill="#282C2F"/>
<path d="M12.1716 30.2054C11.698 30.2054 11.2802 30.2054 10.8624 30.2054C10.361 30.2054 10.0406 29.9689 9.94315 29.468C9.8178 28.9116 9.70638 28.3551 9.56711 27.7986C9.46961 27.4091 7.79831 26.6995 7.46404 26.9082C6.99051 27.2004 6.5309 27.5064 6.05736 27.7986C5.52811 28.1186 5.2217 28.0907 4.80388 27.6734C4.19106 27.0752 3.60611 26.4769 2.99329 25.8648C2.61725 25.4892 2.57546 25.0857 2.86794 24.6406C3.1465 24.2232 3.41112 23.7919 3.68967 23.3746C3.74538 23.2911 3.81502 23.2076 3.8568 23.1102C3.99608 22.8181 3.20221 21.1765 2.8958 21.1069C2.35262 20.9817 1.80945 20.8565 1.26627 20.7452C0.750952 20.6339 0.486328 20.3278 0.486328 19.7992C0.486328 18.9505 0.486328 18.1019 0.486328 17.2532C0.486328 16.7524 0.709169 16.4324 1.21056 16.3211C1.30806 16.2933 1.41948 16.2516 1.51697 16.2516C2.84009 16.2655 3.53647 15.5281 3.82895 14.3178C3.8568 14.1787 3.8568 13.9839 3.78716 13.8587C3.50861 13.3857 3.18828 12.9266 2.8958 12.4536C2.57546 11.9388 2.58939 11.6189 3.00722 11.2015C3.60611 10.5894 4.20499 9.99114 4.80388 9.39292C5.17992 9.0173 5.56989 8.96165 6.01558 9.2538C6.11307 9.32336 6.22449 9.37901 6.32198 9.44857C7.75652 10.3668 7.75652 10.3668 9.27463 9.65725C9.39998 9.60161 9.52532 9.42075 9.55318 9.28163C9.69246 8.76688 9.77602 8.23822 9.90137 7.70956C10.0406 7.11134 10.4306 6.79137 10.9181 6.88875C11.4195 6.98614 11.6562 7.41741 11.5448 8.01563C11.3916 8.79471 11.2523 9.58769 11.0156 10.3529C10.932 10.6311 10.6395 10.9233 10.361 11.0624C9.65067 11.4241 8.89858 11.6745 8.17435 12.0084C7.79831 12.1753 7.47797 12.1753 7.14371 11.9527C6.73981 11.6884 6.32198 11.438 5.91808 11.1598C5.69524 11.0067 5.54204 10.9928 5.34705 11.2015C5.11028 11.4658 4.84566 11.6745 4.55318 11.9527C4.88744 12.4675 5.17992 12.9544 5.50026 13.4135C5.79273 13.8309 5.79273 14.2204 5.55597 14.6656C5.23563 15.2916 4.98494 15.9594 4.74817 16.6272C4.59496 17.0585 4.37212 17.3367 3.89858 17.4341C3.32755 17.5454 2.75652 17.6984 2.17156 17.8236C2.17156 18.3106 2.17156 18.7557 2.17156 19.2288C2.7426 19.3679 3.31363 19.507 3.88466 19.6183C4.33034 19.7018 4.56711 19.9522 4.72031 20.3696C4.98493 21.0791 5.27741 21.7886 5.59775 22.4703C5.77881 22.8598 5.79273 23.1937 5.55597 23.5415C5.27741 23.9589 4.99886 24.3762 4.74817 24.8214C4.67853 24.9327 4.70638 25.1831 4.78995 25.2944C5.51418 26.1431 5.51418 26.1431 6.47519 25.5309C6.6841 25.4057 6.89301 25.2805 7.088 25.1414C7.47797 24.8631 7.84009 24.9049 8.25792 25.0997C8.91251 25.4196 9.58104 25.6979 10.2635 25.9344C10.6952 26.0874 10.9738 26.3378 11.0574 26.7969C11.1549 27.3534 11.2941 27.9099 11.4334 28.4942C11.6702 28.4942 11.893 28.4942 12.1298 28.4942C12.1298 26.8387 12.1298 25.197 12.1298 23.5276C10.6395 23.458 9.38605 22.9155 8.39719 21.8025C6.47519 19.6461 6.82338 16.2238 9.14928 14.5265C9.39998 14.3456 9.80388 14.2343 10.0964 14.29C10.3053 14.3317 10.6117 14.6656 10.6256 14.9021C10.6395 15.1803 10.4863 15.5699 10.2635 15.7368C9.52532 16.335 9.03786 17.0446 8.8568 17.9767C8.49468 19.9383 10.1242 21.8721 12.1437 21.8164C12.1437 21.6077 12.1437 21.413 12.1437 21.2043C12.1437 15.6951 12.1437 10.1998 12.1437 4.69064C12.1437 1.90823 13.8847 0.16922 16.6562 0.16922C22.5058 0.16922 28.3693 0.16922 34.2189 0.16922C37.1298 0.16922 38.8289 1.86649 38.8289 4.74629C38.8289 9.65725 38.8289 14.5682 38.8289 19.4792C38.8289 19.6879 38.8289 19.8965 38.8289 20.1609C39.2328 20.1609 39.6089 20.1609 39.9849 20.1609C40.6952 20.1609 40.9459 20.3556 41.0991 21.0652C41.2106 21.5521 41.3081 22.0529 41.4195 22.5398C41.5309 22.9989 43.1883 23.6667 43.5782 23.4302C44.0518 23.1381 44.5114 22.832 44.9849 22.5398C45.4167 22.2616 45.8067 22.3033 46.1549 22.665C46.7677 23.2772 47.3805 23.8893 47.9933 24.5014C48.3554 24.8631 48.3972 25.2527 48.1186 25.67C47.8401 26.0874 47.5755 26.5187 47.3108 26.936C47.2551 27.0195 47.1994 27.103 47.1437 27.2004C46.9905 27.4786 47.7426 29.1481 48.049 29.2315C48.62 29.3707 49.205 29.4959 49.776 29.6211C50.2496 29.7324 50.4863 30.0384 50.4863 30.5114C50.4863 31.374 50.4863 32.2505 50.4863 33.113C50.4863 33.6138 50.2496 33.9199 49.7482 34.0312C49.205 34.1564 48.6618 34.2816 48.1186 34.4068C47.659 34.5181 46.9627 36.1598 47.2133 36.5632C47.5058 37.0362 47.8122 37.4953 48.1186 37.9683C48.3972 38.3996 48.3554 38.7891 47.9933 39.1509C47.3805 39.763 46.7677 40.389 46.1549 41.0012C45.7788 41.3768 45.3749 41.4046 44.9292 41.1125C44.5114 40.8342 44.0796 40.5699 43.6618 40.2916C43.5782 40.236 43.4947 40.1664 43.3972 40.1247C43.1047 39.9856 41.4752 40.7925 41.3916 41.0985C41.2663 41.6272 41.1688 42.1559 41.0434 42.6706C40.9042 43.2688 40.5003 43.5749 40.0267 43.4636C39.5392 43.3523 39.3025 42.9349 39.4278 42.3228C39.581 41.5576 39.7621 40.7925 39.9153 40.0412C39.9989 39.6378 40.2217 39.4291 40.6117 39.2761C41.3359 38.9978 42.0601 38.7057 42.7705 38.3718C43.1604 38.1909 43.4947 38.1909 43.8429 38.4135C44.2468 38.6778 44.6646 38.9283 45.0685 39.2065C45.3053 39.3734 45.4445 39.3317 45.6395 39.1369C45.8763 38.8865 46.1548 38.6778 46.4334 38.4413C46.0713 37.8709 45.7788 37.384 45.4445 36.911C45.166 36.5076 45.166 36.1458 45.3749 35.7007C45.6952 35.0468 45.9599 34.379 46.2106 33.6973C46.3638 33.266 46.6145 32.9878 47.0741 32.9043C47.6312 32.793 48.1883 32.6539 48.7732 32.5287C48.7732 32.0557 48.7732 31.5827 48.7732 31.0958C48.2161 30.9706 47.659 30.8314 47.1019 30.734C46.6145 30.6367 46.3638 30.3723 46.2106 29.9132C45.9738 29.2455 45.7092 28.5916 45.4028 27.9516C45.1938 27.5204 45.1521 27.1447 45.4445 26.7413C45.7092 26.3796 45.9181 25.9761 46.1827 25.6144C46.3777 25.3501 46.322 25.1831 46.0991 24.9605C45.3749 24.251 45.3888 24.2371 44.5114 24.7936C44.4 24.8632 44.2746 24.9327 44.1632 25.0162C43.5922 25.4892 43.049 25.4892 42.4083 25.0857C41.9069 24.7797 41.2941 24.5988 40.7231 24.418C40.2635 24.2649 39.971 24.0284 39.8874 23.5415C39.7899 22.985 39.6507 22.4285 39.5253 21.8581C39.2746 21.8581 39.0657 21.8581 38.815 21.8581C38.815 23.5137 38.815 25.1275 38.815 26.7969C39.1632 26.8526 39.5253 26.8665 39.8735 26.9639C41.8791 27.4786 43.2161 28.7446 43.6618 30.7619C44.1214 32.8069 43.439 34.532 41.7816 35.8259C41.5588 35.9928 41.2106 36.118 40.932 36.0902C40.3192 36.0206 40.0824 35.2276 40.5003 34.7546C40.6256 34.6155 40.7927 34.5042 40.932 34.3929C42.0044 33.5025 42.3944 32.0279 41.9209 30.7062C41.4473 29.3985 40.2217 28.522 38.7872 28.522C38.7872 28.7168 38.7872 28.9255 38.7872 29.1202C38.7872 34.6294 38.7872 40.1247 38.7872 45.6339C38.7872 48.4441 37.0601 50.1692 34.2328 50.1692C28.3554 50.1692 22.4919 50.1692 16.6145 50.1692C13.8289 50.1692 12.1019 48.4302 12.088 45.6617C12.088 40.7368 12.088 35.798 12.088 30.8732C12.1716 30.6923 12.1716 30.4836 12.1716 30.2054ZM13.8289 25.1692C13.8289 32.0279 13.8289 38.8865 13.8289 45.7452C13.8289 47.5398 14.8317 48.5415 16.6423 48.5415C22.5476 48.5415 28.4529 48.5415 34.3721 48.5415C36.1827 48.5415 37.1855 47.5398 37.1855 45.7452C37.1855 32.0557 37.1855 18.3523 37.1855 4.66282C37.1855 2.86816 36.1827 1.86649 34.3721 1.86649C28.4808 1.86649 22.5894 1.86649 16.698 1.86649C14.7899 1.86649 13.8289 2.84034 13.8289 4.7602C13.8289 11.5632 13.8289 18.3662 13.8289 25.1692Z" fill="#282C2F"/>
<path d="M42.1973 7.76527C42.1973 7.23661 42.5594 6.84708 43.0468 6.86099C43.4925 6.8749 43.8546 7.25053 43.8546 7.69571C43.8546 8.18263 43.4229 8.61391 42.9772 8.6C42.5037 8.6 42.1973 8.26611 42.1973 7.76527Z" fill="#282C2F"/>
<path d="M42.1973 11.1032C42.1973 10.5745 42.5594 10.185 43.0468 10.1989C43.4925 10.2128 43.8686 10.5884 43.8686 11.0336C43.8686 11.5205 43.4507 11.9518 42.9911 11.9518C42.5176 11.9379 42.1973 11.604 42.1973 11.1032Z" fill="#282C2F"/>
<path d="M42.1977 14.4143C42.2116 13.8857 42.5877 13.51 43.0751 13.5379C43.5208 13.5657 43.8829 13.9552 43.8551 14.4004C43.8411 14.8595 43.4372 15.2769 43.0055 15.2908C42.518 15.2908 42.1838 14.9291 42.1977 14.4143Z" fill="#282C2F"/>
<path d="M7.1582 35.9232C7.17213 35.3946 7.53425 35.019 8.02171 35.0329C8.46739 35.0468 8.82951 35.4363 8.81558 35.8815C8.80166 36.3684 8.39776 36.7719 7.92422 36.758C7.45068 36.758 7.1582 36.4241 7.1582 35.9232Z" fill="#282C2F"/>
<path d="M7.1582 39.2483C7.17213 38.7196 7.54818 38.344 8.03564 38.3718C8.48132 38.3997 8.84344 38.7892 8.82951 39.2344C8.81558 39.7352 8.41168 40.1248 7.93815 40.1109C7.45068 40.083 7.1582 39.7491 7.1582 39.2483Z" fill="#282C2F"/>
<path d="M7.1582 42.6148C7.1582 42.0861 7.52032 41.6966 7.99386 41.6966C8.43954 41.6966 8.81558 42.0722 8.81558 42.5313C8.81558 43.0182 8.41168 43.4356 7.95207 43.4356C7.47854 43.4356 7.1582 43.1156 7.1582 42.6148Z" fill="#282C2F"/>
<path d="M19.1761 25.2236C20.0257 26.0583 20.8196 26.8513 21.6274 27.6443C21.7388 27.7556 21.8502 27.8669 21.9477 27.9782C22.2402 28.3538 22.2263 28.799 21.9199 29.105C21.6135 29.425 21.126 29.4807 20.7917 29.1468C19.6357 28.0199 18.4937 26.8791 17.3655 25.7244C17.0313 25.3766 17.0731 24.9453 17.4073 24.5975C18.5076 23.4846 19.6079 22.3855 20.7221 21.2865C21.0842 20.9247 21.5577 20.9386 21.892 21.2586C22.2402 21.5925 22.2541 22.0794 21.892 22.469C21.1399 23.2481 20.3739 23.9993 19.6079 24.7506C19.4965 24.8897 19.3711 25.0288 19.1761 25.2236Z" fill="#282C2F"/>
<path d="M31.8486 25.1963C30.9294 24.292 30.052 23.4434 29.2302 22.5669C29.0213 22.3444 28.8681 21.9548 28.896 21.6627C28.9656 21.0644 29.7456 20.814 30.1912 21.2314C31.3751 22.3583 32.5172 23.513 33.6453 24.6955C33.9795 25.0433 33.896 25.4746 33.5617 25.8224C32.4754 26.9214 31.389 28.0205 30.2887 29.0917C29.9127 29.4673 29.4113 29.4534 29.077 29.1056C28.7428 28.7717 28.7567 28.2848 29.1328 27.8953C30.0102 27.0049 30.9155 26.1423 31.8486 25.1963Z" fill="#282C2F"/>
<path d="M27.1845 21.9414C26.9756 22.7623 26.7667 23.6109 26.5578 24.4734C26.2235 25.8229 25.8893 27.1585 25.5411 28.494C25.374 29.1618 24.9701 29.4679 24.4687 29.3288C23.9673 29.1896 23.7723 28.7584 23.9394 28.1184C24.4687 26.0038 24.9979 23.8891 25.5272 21.7745C25.6664 21.2458 26.0564 20.9537 26.5021 21.0511C26.9338 21.1485 27.1567 21.4406 27.1845 21.9414Z" fill="#282C2F"/>
<path d="M25.4725 5.19194C24.7064 5.19194 23.9404 5.19194 23.1744 5.19194C22.5616 5.19194 22.1855 4.87197 22.1855 4.37113C22.1855 3.8703 22.5477 3.53641 23.1605 3.53641C24.7204 3.53641 26.2942 3.53641 27.8541 3.53641C28.4669 3.53641 28.8429 3.85639 28.8429 4.35722C28.8429 4.85805 28.4669 5.19194 27.8541 5.19194C27.0602 5.20586 26.2663 5.19194 25.4725 5.19194Z" fill="#282C2F"/>
</svg>
