<svg width="50" height="37" viewBox="0 0 50 37" fill="none" xmlns="http://www.w3.org/2000/svg">
<path d="M12.5007 31.0429C11.7502 31.0429 11.2505 30.7923 10.7507 30.291L0.750284 20.2723C-0.250095 19.2706 -0.250095 17.7677 0.750284 16.7651L10.7507 6.74647C11.7502 5.74393 13.2504 5.74393 14.2508 6.74647C15.2503 7.74817 15.2503 9.25114 14.2508 10.2528L6.00038 18.5187L14.2508 26.7846C15.2503 27.7863 15.2503 29.2893 14.2508 30.291C13.7502 30.7923 13.2504 31.0429 12.5007 31.0429Z" fill="#0C0815"/>
<path d="M37.4998 31.0427C36.7502 31.0427 36.2504 30.7921 35.7498 30.2908C34.7502 29.2891 34.7502 27.7862 35.7498 26.7845L44.0002 18.5186L35.7498 10.2527C34.7502 9.25095 34.7502 7.74799 35.7498 6.74629C36.7502 5.74375 38.2503 5.74375 39.2498 6.74629L49.2503 16.765C50.2498 17.7675 50.2498 19.2705 49.2503 20.2722L39.2498 30.2908C38.7501 30.7921 38.2503 31.0427 37.4998 31.0427Z" fill="#0C0815"/>
<mask id="mask0_1_627" style="mask-type:luminance" maskUnits="userSpaceOnUse" x="17" y="0" width="16" height="37">
<path d="M17.5188 0.638855H32.7601V36.0529H17.5188V0.638855Z" fill="white"/>
</mask>
<g mask="url(#mask0_1_627)">
<path d="M20.0001 36.0504C19.7502 36.0504 19.4995 36.0504 19.2496 35.7998C18.0002 35.2993 17.2497 34.047 17.7495 32.544L27.7499 2.48634C28.2497 1.23401 29.4999 0.482107 31.0001 0.983376C32.2503 1.48464 33 2.73698 32.5002 4.23995L22.4998 34.2976C22 35.2993 20.9996 36.0504 20.0001 36.0504Z" fill="#0C0815"/>
</g>
</svg>
