<svg width="63" height="37" viewBox="0 0 63 37" fill="none" xmlns="http://www.w3.org/2000/svg">
<path d="M0.261719 3.6386C0.261719 1.97176 1.51418 0.662109 3.39286 0.662109C5.27155 0.662109 6.524 1.97176 6.524 3.6386C6.524 5.30543 5.27155 6.61509 3.39286 6.61509C1.51418 6.49603 0.261719 5.18637 0.261719 3.6386Z" fill="#520909"/>
<path d="M5.92048 8.02148L0.660156 8.02148L0.660156 24.2136L5.92048 24.2136L5.92048 8.02148Z" fill="#520909"/>
<path d="M9.60156 2.77148L14.8619 2.77148L14.8619 24.3213L9.60156 24.3213L9.60156 2.77148Z" fill="#6F0606"/>
<path d="M25.5741 24.4457C21.0652 24.4457 17.9341 22.0645 17.6836 18.8499L22.8187 18.8499C22.9439 19.9214 23.9459 20.7548 25.4488 20.7548C26.8265 20.7548 27.4528 20.1595 27.4528 19.4452C27.4528 16.8259 18.1846 18.7308 18.1846 12.7778C18.1846 10.0395 20.6895 7.77734 25.0731 7.77734C29.4567 7.77734 31.9616 10.1585 32.2121 13.2541L27.3275 13.2541C27.2023 12.1826 26.3255 11.4682 24.8226 11.4682C23.5701 11.4682 22.9439 11.9444 22.9439 12.7778C22.9439 15.3972 32.2121 13.6113 32.2121 19.5642C32.4626 22.3026 29.8324 24.4457 25.5741 24.4457Z" fill="#9E101D"/>
<path d="M42.4788 7.66016C44.9837 7.66016 46.8624 8.73169 47.7391 10.1604L47.7391 7.89828L52.9994 7.89828L52.9994 24.0904L47.8644 24.0904L47.8644 21.8282C46.8624 23.257 45.109 24.3285 42.604 24.3285C38.4709 24.3285 35.0893 21.1139 35.0893 15.9943C34.9641 10.8748 38.3457 7.66016 42.4788 7.66016ZM43.9817 11.9463C42.1031 11.9463 40.2244 13.375 40.2244 15.8753C40.2244 18.4946 41.9778 19.9233 43.9817 19.9233C45.9857 19.9233 47.7391 18.4946 47.7391 15.8753C47.7391 13.375 45.9857 11.9463 43.9817 11.9463Z" fill="#C8202F"/>
<path d="M59.221 24.203C57.3423 24.203 56.0898 22.8933 56.0898 21.2265C56.0898 19.5597 57.3423 18.25 59.221 18.25C61.0997 18.25 62.3521 19.5597 62.3521 21.2265C62.2269 23.0124 61.0997 24.203 59.221 24.203Z" fill="#DB0B0B"/>
<path d="M0.503906 29.0073C0.503906 28.6501 0.879641 28.293 1.25538 28.293C1.63111 28.293 2.00685 28.6501 2.00685 29.0073C2.00685 29.3645 1.63111 29.7217 1.25538 29.7217C0.879641 29.7217 0.503906 29.3645 0.503906 29.0073ZM0.62915 30.6742L1.75636 30.6742L1.75636 36.8652L0.62915 36.8652L0.62915 30.6742Z" fill="#454545"/>
<path d="M8.11871 33.2442C8.11871 31.9346 7.36723 31.3393 6.36527 31.3393C5.23806 31.3393 4.48658 31.9346 4.48658 33.3633L4.48658 36.816L3.35938 36.816L3.35938 30.6249L4.48658 30.6249L4.48658 31.4583C4.86232 30.863 5.73904 30.5059 6.61576 30.5059C8.11871 30.5059 9.24592 31.3393 9.24592 33.1252L9.24592 36.816L8.11871 36.816L8.11871 33.2442Z" fill="#454545"/>
<path d="M11.1033 31.432L10.2266 31.432L10.2266 30.5986L11.1033 30.5986L11.1033 29.0508L12.2305 29.0508L12.2305 30.5986L13.8587 30.5986L13.8587 31.432L12.2305 31.432L12.2305 35.1228C12.2305 35.7181 12.481 35.9562 13.1072 35.9562L13.8587 35.9562L13.8587 36.7897L12.8567 36.7897C11.7295 36.7897 11.1033 36.3134 11.1033 35.1228L11.1033 31.432Z" fill="#454545"/>
<path d="M18.1546 36.8316C16.2759 36.8316 15.0234 35.641 15.0234 33.617C15.0234 31.712 16.4011 30.4023 18.1546 30.4023C20.0333 30.4023 21.2857 31.712 21.2857 33.3788C21.2857 33.617 21.2857 33.736 21.2857 33.9741L16.1507 33.9741C16.2759 35.2838 17.1526 35.8791 18.2798 35.8791C19.2818 35.8791 19.908 35.4028 20.1585 34.8076L21.1605 34.8076C20.7847 35.9981 19.7828 36.8316 18.1546 36.8316ZM16.0254 33.2598L20.1585 33.2598C20.1585 32.0692 19.2818 31.3548 18.1546 31.3548C17.0274 31.3548 16.2759 32.0692 16.0254 33.2598Z" fill="#454545"/>
<path d="M23.6585 36.7164L22.5313 36.7164L22.5313 30.5253L23.6585 30.5253L23.6585 31.4778C24.0342 30.7634 24.7857 30.4062 25.7876 30.4062L25.7876 31.4778L25.5371 31.4778C24.5352 31.4778 23.7837 31.954 23.7837 33.3827L23.7837 36.7164L23.6585 36.7164Z" fill="#454545"/>
<path d="M30.0332 30.5078C31.2857 30.5078 32.0372 31.1031 32.4129 31.6984L32.4129 30.6269L33.5401 30.6269L33.5401 36.818L32.4129 36.818L32.4129 35.6274C32.0372 36.2227 31.1605 36.937 30.0332 36.937C28.2798 36.937 27.0273 35.6274 27.0273 33.7224C27.0273 31.8175 28.2798 30.5078 30.0332 30.5078ZM30.2837 31.4603C29.1565 31.4603 28.1546 32.2937 28.1546 33.7224C28.1546 35.1511 29.1565 35.9845 30.2837 35.9845C31.4109 35.9845 32.4129 35.1511 32.4129 33.7224C32.4129 32.2937 31.4109 31.4603 30.2837 31.4603Z" fill="#454545"/>
<path d="M37.9827 30.5195C39.6109 30.5195 40.6129 31.3529 40.9886 32.5435L39.8614 32.5435C39.6109 31.8292 38.9847 31.3529 37.9827 31.3529C36.8555 31.3529 35.9788 32.1864 35.9788 33.6151C35.9788 35.1629 36.8555 35.8772 37.9827 35.8772C38.9847 35.8772 39.6109 35.401 39.8614 34.6866L40.9886 34.6866C40.6129 35.8772 39.6109 36.7106 37.9827 36.7106C36.104 36.7106 34.8516 35.52 34.8516 33.496C34.8516 31.8292 36.104 30.5195 37.9827 30.5195Z" fill="#454545"/>
<path d="M42.5955 31.4322L41.7188 31.4322L41.7188 30.5988L42.5955 30.5988L42.5955 29.051L43.7227 29.051L43.7227 30.5988L45.3509 30.5988L45.3509 31.4322L43.7227 31.4322L43.7227 35.1231C43.7227 35.7184 43.9732 35.9565 44.5994 35.9565L45.3509 35.9565L45.3509 36.7899L44.3489 36.7899C43.2217 36.7899 42.5955 36.3137 42.5955 35.1231L42.5955 31.4322Z" fill="#454545"/>
<path d="M46.2148 29.0073C46.2148 28.6501 46.5906 28.293 46.9663 28.293C47.3421 28.293 47.7178 28.6501 47.7178 29.0073C47.7178 29.3645 47.3421 29.7217 46.9663 29.7217C46.5906 29.7217 46.2148 29.3645 46.2148 29.0073ZM46.4653 30.6742L47.5925 30.6742L47.5925 36.8652L46.4653 36.8652L46.4653 30.6742Z" fill="#454545"/>
<path d="M50.0178 30.6309L52.0218 35.8695L54.0257 30.6309L55.1529 30.6309L52.648 36.822L51.3955 36.822L48.8906 30.6309L50.0178 30.6309Z" fill="#454545"/>
<path d="M59.1311 36.8277C57.2525 36.8277 56 35.6371 56 33.613C56 31.7081 57.3777 30.3984 59.1311 30.3984C61.0098 30.3984 62.2623 31.7081 62.2623 33.3749C62.2623 33.613 62.2623 33.7321 62.2623 33.9702L57.1272 33.9702C57.2525 35.2799 58.1292 35.8752 59.2564 35.8752C60.2584 35.8752 60.8846 35.3989 61.1351 34.8036L62.2623 34.8036C61.7613 35.9942 60.7593 36.8277 59.1311 36.8277ZM57.002 33.2559L61.1351 33.2559C61.1351 32.0653 60.2584 31.3509 59.1311 31.3509C58.0039 31.3509 57.1272 32.0653 57.002 33.2559Z" fill="#454545"/>
</svg>
