<svg width="19" height="20" viewBox="0 0 19 20" fill="none" xmlns="http://www.w3.org/2000/svg">
<path d="M12.8641 3.29297H6.41319C4.631 3.29297 3.18115 4.74325 3.18115 6.52596V12.4293C3.18115 14.2121 4.631 15.6623 6.41319 15.6623H12.8641C14.6463 15.6623 16.0962 14.2121 16.0962 12.4293V6.52596C16.0962 4.74325 14.6463 3.29297 12.8641 3.29297ZM4.32131 6.52596C4.32131 5.37231 5.25988 4.43345 6.41319 4.43345H12.8641C14.0174 4.43345 14.956 5.37231 14.956 6.52596V12.4293C14.956 13.583 14.0174 14.5218 12.8641 14.5218H6.41319C5.25988 14.5218 4.32131 13.583 4.32131 12.4293V6.52596Z" fill="#3B3B3B"/>
<path d="M9.63672 12.4832C11.294 12.4832 12.6431 11.1345 12.6431 9.47597C12.6431 7.81747 11.2947 6.46875 9.63672 6.46875C7.9787 6.46875 6.63037 7.81747 6.63037 9.47597C6.63037 11.1345 7.9787 12.4832 9.63672 12.4832ZM9.63672 7.60997C10.6659 7.60997 11.5029 8.44726 11.5029 9.4767C11.5029 10.5061 10.6659 11.3434 9.63672 11.3434C8.60758 11.3434 7.77053 10.5061 7.77053 9.4767C7.77053 8.44726 8.60758 7.60997 9.63672 7.60997Z" fill="#3B3B3B"/>
<path d="M12.9248 6.95645C13.371 6.95645 13.7348 6.59334 13.7348 6.1462C13.7348 5.69906 13.3718 5.33594 12.9248 5.33594C12.4778 5.33594 12.1147 5.69906 12.1147 6.1462C12.1147 6.59334 12.4778 6.95645 12.9248 6.95645Z" fill="#3B3B3B"/>
</svg>
