<svg width="50" height="51" viewBox="0 0 50 51" fill="none" xmlns="http://www.w3.org/2000/svg">
<mask id="mask0_1_653" style="mask-type:luminance" maskUnits="userSpaceOnUse" x="-1" y="0" width="52" height="51">
<path d="M-0.00012207 0H50.0001V50.0529H-0.00012207V0Z" fill="white"/>
</mask>
<g mask="url(#mask0_1_653)">
<path fill-rule="evenodd" clip-rule="evenodd" d="M0.483269 0.475601C0.815544 0.100164 1.2918 -0.115234 1.79324 -0.115234H48.37C48.8715 -0.115234 49.3487 0.100164 49.68 0.475601C50.0113 0.851039 50.1653 1.35028 50.1039 1.84751L45.446 39.0963C45.3735 39.6761 45.0161 40.1804 44.4935 40.4411L25.863 49.7535C25.3716 49.9991 24.7927 49.9991 24.3003 49.7535L5.66977 40.4411C5.14719 40.1804 4.78975 39.6761 4.71725 39.0963L3.26229 27.4558C3.14247 26.4995 3.82112 25.6269 4.77867 25.5071C5.73623 25.3873 6.6092 26.0657 6.72801 27.0229L8.06819 37.7355L25.0816 46.2397L42.0951 37.7355L46.3915 3.37744H3.77178L5.56405 17.7105C5.68387 18.6677 5.00421 19.5404 4.04767 19.6601C3.09011 19.7799 2.21714 19.1005 2.09732 18.1443L0.0603747 1.84751C-0.00205249 1.35028 0.152002 0.851039 0.483269 0.475601Z" fill="#0C0815"/>
</g>
<path fill-rule="evenodd" clip-rule="evenodd" d="M21.5889 6.87244C22.5545 6.87244 23.3359 7.65451 23.3359 8.61877V38.8833C23.3359 39.5053 23.0046 40.081 22.4659 40.3931C21.9282 40.7061 21.2637 40.7081 20.723 40.3991L12.5722 35.7429C11.7344 35.2648 11.4435 34.1978 11.9217 33.3604C12.401 32.524 13.4673 32.2321 14.305 32.7112L19.8429 35.8747V8.61877C19.8429 7.65451 20.6243 6.87244 21.5889 6.87244Z" fill="#0C0815"/>
<path fill-rule="evenodd" clip-rule="evenodd" d="M26.8246 8.61877C26.8246 7.65451 27.606 6.87244 28.5716 6.87244H40.2153C41.1799 6.87244 41.9622 7.65451 41.9622 8.61877C41.9622 9.58303 41.1799 10.3641 40.2153 10.3641H30.3175V21.5739L38.6717 19.7178C39.2165 19.597 39.7864 19.743 40.2052 20.1114C40.6231 20.4798 40.8406 21.0253 40.7902 21.5809L39.6263 34.385C39.5709 34.987 39.2094 35.5184 38.6677 35.7882L29.3519 40.4444C28.49 40.8762 27.4409 40.5259 27.0089 39.6643C26.5779 38.8017 26.9273 37.7529 27.7902 37.3211L36.235 33.0997L37.0949 23.6453L28.9502 25.4551C28.4326 25.5698 27.8919 25.444 27.4781 25.1129C27.0653 24.7817 26.8246 24.2804 26.8246 23.751V8.61877Z" fill="#0C0815"/>
</svg>
