<svg width="50" height="49" viewBox="0 0 50 49" fill="none" xmlns="http://www.w3.org/2000/svg">
<path d="M2.92952 33.1541C2.97788 33.262 3.03182 33.3624 3.09042 33.4619C3.11739 33.5205 3.15459 33.5809 3.18807 33.6348C3.24201 33.7436 3.30061 33.8477 3.35734 33.9519L3.68379 34.5013C3.74424 34.6036 3.80283 34.7031 3.87166 34.8035C3.98605 34.9997 4.12184 35.1912 4.23996 35.3864C4.29483 35.4683 4.34412 35.5491 4.40457 35.63C4.6343 35.9861 4.84263 36.2818 5.06491 36.5691C5.22395 36.7838 5.38206 36.9939 5.55319 37.205C5.60899 37.284 5.6713 37.3631 5.7299 37.4421L6.19027 37.9999C6.24607 38.065 6.30281 38.1394 6.36326 38.2063C6.56694 38.4518 6.78364 38.6898 7.00034 38.9315C7.00034 38.9352 7.00685 38.9399 7.0115 38.9455C7.28029 39.283 7.56953 39.5833 7.88575 39.8492L7.89412 39.8575C8.06153 40.0286 8.22801 40.1978 8.40472 40.3642L8.61491 40.566C8.84649 40.7826 9.07807 40.9974 9.32175 41.2057C9.32547 41.2057 9.32733 41.2094 9.33198 41.2112L9.45102 41.3154C9.66307 41.5013 9.87792 41.6845 10.0965 41.8555L10.3569 42.074C10.5336 42.2153 10.7178 42.3483 10.8982 42.4887L11.1818 42.7053C11.3753 42.8504 11.5818 42.9926 11.7799 43.1339C11.8524 43.186 11.9259 43.2381 12.0003 43.2855L12.0607 43.3338L12.6467 43.7169L12.8969 43.8833C13.2028 44.0795 13.507 44.2626 13.8111 44.4458C13.8985 44.4895 13.9859 44.5378 14.0669 44.5871C14.2919 44.7163 14.5254 44.8474 14.7523 44.9664C14.8779 45.0371 15.0071 45.0975 15.1364 45.1626C15.2927 45.25 15.4545 45.3355 15.621 45.4229C15.6675 45.4369 15.7047 45.4518 15.7419 45.4722L15.7502 45.4648C15.8191 45.4955 15.8842 45.5289 15.9502 45.5624C16.2004 45.687 16.4608 45.806 16.7315 45.9222C16.7817 45.9436 16.8356 45.964 16.8905 45.9929C17.19 46.1249 17.4904 46.2495 17.801 46.3703C17.8717 46.3908 17.9461 46.4261 18.0196 46.454C18.3004 46.56 18.5897 46.6679 18.878 46.7701L18.9822 46.8073C19.3002 46.9161 19.6155 47.0202 19.9401 47.1178C20.0155 47.1383 20.0926 47.1662 20.1717 47.1866C20.5028 47.2871 20.8237 47.4051 21.1585 47.4674C42.5608 51.3481 48.7791 34.6678 48.7791 34.6678C43.5541 41.4362 34.2815 43.2213 25.5009 41.2345C25.1754 41.1592 24.8508 41.055 24.5215 40.9593C23.9254 40.7863 23.5301 40.6618 23.1404 40.5242L23.3376 40.5846L23.2092 40.5344C22.9256 40.4386 22.6521 40.3326 22.3759 40.2266C22.3238 40.2034 22.2466 40.1746 22.1695 40.1476L22.1462 40.1411C21.8402 40.0184 21.5426 39.8938 21.2459 39.7618C21.1817 39.7413 21.1278 39.7125 21.0627 39.6874C20.5168 39.4457 20.2694 39.3285 20.021 39.2086L20.3084 39.335C20.2322 39.3016 20.1633 39.2662 20.088 39.2272C19.8918 39.1351 19.6964 39.031 19.5049 38.9334C19.3254 38.8478 19.1989 38.7809 19.0733 38.7121L19.1152 38.7335C18.8799 38.608 18.6446 38.4732 18.4065 38.3458C18.3358 38.2956 18.2549 38.2547 18.173 38.2082C17.7238 37.946 17.4253 37.761 17.1277 37.5713L17.2588 37.6503C17.1593 37.5881 17.0774 37.5341 17.0002 37.4774L17.0133 37.4858C16.7566 37.3277 16.5529 37.192 16.3548 37.0525C16.2841 37.007 16.219 36.9568 16.1465 36.9066C15.8795 36.7234 15.6796 36.5802 15.4843 36.4324L15.5335 36.4677C15.4461 36.3971 15.3531 36.3301 15.2592 36.2613C15.076 36.1172 14.89 35.9805 14.7067 35.8299L14.4612 35.6347C14.1961 35.4218 13.9757 35.2367 13.759 35.0471C13.7386 35.0266 13.7153 35.0071 13.6902 34.9913L13.6883 34.9885L12.9648 34.333L12.7564 34.1369C12.5862 33.9639 12.4114 33.7994 12.2356 33.6292L12.0338 33.421C11.8171 33.2062 11.6087 32.9896 11.4023 32.7646L11.3902 32.7497L11.3548 32.7209C11.1344 32.4792 10.9196 32.2356 10.7029 31.9855C10.6461 31.9213 10.5941 31.8525 10.5364 31.7837L10.063 31.211C9.89838 31.0065 9.66772 30.7052 9.438 30.3965L9.35523 30.2803C4.48363 23.6653 2.72119 14.538 6.61902 7.0481L3.17784 11.3993C-1.2492 17.728 -0.701397 25.9589 2.68398 32.679C2.76118 32.8436 2.84674 32.9979 2.92952 33.1541Z" fill="#0C0815"/>
<path d="M17.8399 24.0366C17.8316 24.0263 17.8251 24.0142 17.8167 24.003C17.8111 23.9946 17.8046 23.9862 17.7981 23.9778L17.8399 24.0366Z" fill="#0C0815"/>
<mask id="mask0_1_637" style="mask-type:luminance" maskUnits="userSpaceOnUse" x="14" y="2" width="36" height="31">
<path d="M14.4076 2.36127H49.9987V32.5888H14.4076V2.36127Z" fill="white"/>
</mask>
<g mask="url(#mask0_1_637)">
<path d="M20.1686 26.77L20.3565 26.9578C20.5937 27.1865 20.8373 27.4097 21.0857 27.6319L21.1173 27.6598C21.3665 27.8801 21.6483 28.1116 21.9376 28.3366L21.9813 28.3691C22.052 28.4175 22.1124 28.4733 22.1813 28.5216C22.4733 28.7466 22.7672 28.9614 23.0732 29.1752L23.1048 29.1938C23.2332 29.2877 23.3708 29.3733 23.5168 29.4653C23.5754 29.5025 23.6414 29.5527 23.7047 29.5899C23.9251 29.7312 24.1418 29.8623 24.365 29.998C24.4004 30.0129 24.4311 30.0315 24.4645 30.0464C24.6524 30.1607 24.8561 30.2705 25.0523 30.3709C25.1212 30.4127 25.1881 30.4434 25.2588 30.4834C25.3983 30.5522 25.536 30.6247 25.669 30.6953L25.7359 30.7251C26.0168 30.8627 26.3042 30.9919 26.586 31.1184C26.6567 31.1453 26.7171 31.1686 26.7776 31.1974C27.0082 31.2978 27.2435 31.3936 27.4751 31.481C27.5793 31.5163 27.6769 31.5581 27.7755 31.5888C27.9876 31.6688 28.2108 31.7413 28.421 31.8138L28.713 31.9077C29.0171 32.0016 29.325 32.1243 29.6477 32.1746C46.1747 34.894 50 22.2385 50 22.2385C46.556 27.1679 39.8913 29.5174 32.7894 27.6821C32.3588 27.5714 32.0463 27.4803 31.7357 27.3799L31.8547 27.4134C31.7543 27.3864 31.6668 27.3548 31.571 27.326C31.3543 27.2507 31.1311 27.1782 30.9209 27.101L30.6205 26.9885C30.388 26.8946 30.1499 26.8072 29.923 26.7077C29.8523 26.6761 29.7872 26.6556 29.7333 26.624C29.4422 26.4929 29.1483 26.3637 28.8627 26.2261L28.4331 26.0039L28.1857 25.8784C27.9941 25.7789 27.8164 25.6748 27.6332 25.5688C27.5811 25.5437 27.5402 25.5204 27.4984 25.4935L27.5039 25.4953C27.2835 25.3577 27.0547 25.2248 26.8417 25.0853C26.7711 25.0453 26.7069 24.9979 26.6399 24.9561L26.2065 24.6753C25.9061 24.467 25.6131 24.2439 25.3146 24.0273C25.2486 23.9668 25.1835 23.9166 25.1193 23.8627C21.9962 21.4194 19.5334 18.0816 18.3653 14.3013C17.1339 10.3713 17.4045 5.96437 19.5316 2.38861L16.9172 6.07129C13.7067 10.6549 13.888 16.7818 16.388 21.6304C16.8437 22.5258 17.3069 23.2816 17.8165 24.0022C18.2918 24.6809 18.8173 25.4767 19.4506 26.0225C19.6757 26.2782 19.9166 26.5218 20.1686 26.77Z" fill="#0C0815"/>
</g>
<path d="M13.7395 35.0325L13.7604 35.0477L13.7642 35.0544L13.7395 35.0325Z" fill="#0C0815"/>
<mask id="mask1_1_637" style="mask-type:luminance" maskUnits="userSpaceOnUse" x="26" y="0" width="23" height="20">
<path d="M26.7904 0.158142H48.6949V19.0308H26.7904V0.158142Z" fill="white"/>
</mask>
<g mask="url(#mask1_1_637)">
<path d="M28.472 2.08827C26.5784 4.85238 26.397 8.28403 27.701 11.3308C29.0867 14.5672 31.9178 17.1082 35.2176 18.3122C35.3534 18.3642 35.4846 18.4079 35.6241 18.4581L35.8073 18.5139C35.9989 18.5744 36.1923 18.645 36.3904 18.6887C45.517 20.4403 47.9881 14.0279 48.6531 13.0852C46.4796 16.1877 42.8366 16.9334 38.3658 15.8521C37.9278 15.7442 37.5679 15.6299 37.22 15.4988L37.2879 15.5211C36.7615 15.3361 36.3365 15.1594 35.9217 14.9595L36.0007 14.9949C35.1469 14.5783 34.4131 14.1284 33.7323 13.6114C29.7359 10.5916 27.2657 4.84215 29.8736 0.158142L28.472 2.08827Z" fill="#0C0815"/>
</g>
</svg>
