<svg width="19" height="20" viewBox="0 0 19 20" fill="none" xmlns="http://www.w3.org/2000/svg">
<path d="M3.65988 6.0158C3.35744 5.73499 3.20703 5.3874 3.20703 4.97383C3.20703 4.56026 3.35824 4.19737 3.65988 3.91576C3.96232 3.63495 4.35163 3.49414 4.82861 3.49414C5.3056 3.49414 5.67963 3.63495 5.98127 3.91576C6.2837 4.19656 6.43411 4.5498 6.43411 4.97383C6.43411 5.39786 6.2829 5.73499 5.98127 6.0158C5.67883 6.2966 5.29514 6.43741 4.82861 6.43741C4.36208 6.43741 3.96232 6.2966 3.65988 6.0158ZM6.17994 7.62663V16.236H3.4604V7.62663H6.17994Z" fill="#3B3B3B"/>
<path d="M15.2347 8.47725C15.8275 9.12094 16.1235 10.0044 16.1235 11.1293V16.084H13.5407V11.4785C13.5407 10.9112 13.3935 10.4703 13.0999 10.1565C12.8063 9.84268 12.4106 9.68497 11.9151 9.68497C11.4196 9.68497 11.0238 9.84188 10.7303 10.1565C10.4367 10.4703 10.2895 10.9112 10.2895 11.4785V16.084H7.69141V7.60265H10.2895V8.72749C10.5525 8.35255 10.9072 8.05644 11.3529 7.8384C11.7985 7.62035 12.2996 7.51172 12.857 7.51172C13.8496 7.51172 14.6427 7.83356 15.2347 8.47725Z" fill="#3B3B3B"/>
</svg>
