<svg width="289" height="407" viewBox="0 0 289 407" fill="none" xmlns="http://www.w3.org/2000/svg">
<rect x="0.770352" y="0.644009" width="287.82" height="405.9" rx="24.19" fill="#FEFBF7"/>
<rect x="0.770352" y="0.644009" width="287.82" height="405.9" rx="24.19" stroke="#BDBDBD" stroke-width="0.82"/>
<path d="M222.053 141.491C220.378 136.968 217.735 132.582 214.613 129.152C211.354 125.358 206.148 122.954 200.679 122.726C197.66 122.601 194.663 123.159 192.02 124.344C178.736 130.394 174.965 150.378 174.839 161.236C174.577 182.189 183.487 200.623 194.276 220.824C186.084 229.243 169.655 239.133 169.655 239.133H181.538L181.687 239.019C181.687 239.019 185.891 235.954 188.021 234.291C191.838 231.317 197.238 226.327 197.238 226.327L197.421 226.668C201.534 234.279 205.179 241.127 208.187 247.917C210.454 253.409 217.336 270.1 211.537 277.312C209.976 279.26 208.176 280.161 206.045 280.069C203.265 279.955 199.893 278.076 196.258 274.635C187.121 266.42 180.433 256.098 173.962 246.106C173.962 246.106 170.054 239.873 169.598 239.133C166.306 233.687 163.207 228.241 159.948 222.168C156.667 216.118 147.86 199.564 143.428 191.212C133.607 172.698 123.456 153.546 109.237 136.74C104.771 131.317 94.8704 123.102 85.9154 122.738C81.529 122.555 77.906 124.23 75.1374 127.728C70.3523 133.789 71.2865 144.636 77.9288 159.983C81.0847 166.887 84.8216 173.826 88.7637 181.163L89.527 182.587L89.641 182.792C76.1628 197.08 67.5951 214.147 64.8722 232.16C63.5392 240.944 62.2745 253.944 66.6609 265.429C68.3357 269.952 70.9789 274.338 74.1007 277.768C77.3591 281.562 82.5658 283.966 88.0345 284.194C91.0537 284.319 94.0501 283.761 96.6934 282.576C109.978 276.526 113.749 256.542 113.874 245.684C114.136 224.732 105.227 206.297 94.4375 186.096C102.629 177.677 119.058 167.787 119.058 167.787H107.186L107.038 167.901C107.038 167.901 102.834 170.966 100.704 172.629C96.887 175.603 91.4867 180.593 91.4867 180.593L91.3044 180.252C87.1914 172.641 83.5456 165.793 80.5378 159.003C78.2706 153.511 71.3891 136.82 77.1882 129.608C78.7491 127.66 80.5492 126.76 82.6797 126.851C85.4597 126.965 88.8321 128.845 92.4665 132.285C101.604 140.5 108.292 150.822 114.763 160.815C114.763 160.815 118.671 167.047 119.127 167.787C122.419 173.233 125.518 178.679 128.777 184.752C132.058 190.802 140.865 207.357 145.297 215.708C155.118 234.222 165.269 253.375 179.488 270.18C183.954 275.603 193.855 283.818 202.821 284.194C207.207 284.376 210.83 282.701 213.599 279.203C218.384 273.142 217.45 262.296 210.808 246.949C207.652 240.044 203.915 233.106 199.973 225.768L199.209 224.344L199.095 224.139C212.574 209.852 221.141 192.784 223.864 174.771C225.197 165.987 226.462 152.987 222.075 141.503L222.053 141.491ZM92.5918 188.352C102.287 206.73 111.584 226.258 111.037 245.627C110.604 253.705 109.704 262.922 104.612 270.066C101.034 275.033 95.7819 277.643 89.8461 277.392C83.6595 277.141 77.7807 273.803 74.112 268.471C64.6215 254.696 65.3051 244.864 67.2989 232.456C69.5548 218.465 78.5326 202.822 92.6146 188.341L92.5918 188.352ZM221.415 174.452C219.159 188.444 210.181 204.087 196.099 218.568C186.403 200.19 177.107 180.662 177.653 161.293C178.086 153.215 178.986 143.998 184.079 136.854C187.657 131.887 192.909 129.278 198.845 129.528C205.031 129.779 210.91 133.117 214.579 138.449C224.069 152.224 223.386 162.056 221.392 174.464L221.415 174.452Z" fill="#151515"/>
</svg>
