<svg width="289" height="408" viewBox="0 0 289 408" fill="none" xmlns="http://www.w3.org/2000/svg">
<g clip-path="url(#clip0_251_55344)">
<rect x="0.360352" y="0.941162" width="288.64" height="406.72" rx="24.6" fill="#F1B20F"/>
<path fill-rule="evenodd" clip-rule="evenodd" d="M132.773 203.093C132.929 203.093 133.085 203.093 133.241 203.093C138.149 203.051 142.503 203.87 145.41 206.99C148.913 203.983 152.785 202.938 157.948 203.051C167.039 203.248 174.911 195.497 174.911 186.475C174.911 177.284 167.195 169.844 157.679 169.844C152.785 169.844 148.36 171.82 145.226 174.983C142.091 171.82 137.666 169.844 132.773 169.844C123.257 169.844 115.541 177.284 115.541 186.461C115.541 195.653 123.257 203.093 132.773 203.093ZM132.263 197.869C125.88 197.869 120.704 192.716 120.704 186.362C120.704 180.009 125.88 174.856 132.263 174.856C138.645 174.856 143.822 180.009 143.822 186.362C143.836 192.716 138.659 197.869 132.263 197.869ZM158.501 197.869C152.119 197.869 146.942 192.716 146.942 186.362C146.942 180.009 152.119 174.856 158.501 174.856C164.883 174.856 170.06 180.009 170.06 186.362C170.06 192.716 164.883 197.869 158.501 197.869Z" fill="white"/>
<mask id="mask0_251_55344" style="mask-type:alpha" maskUnits="userSpaceOnUse" x="117" y="142" width="57" height="34">
<rect x="123.162" y="142.093" width="27.236" height="28.3279" transform="rotate(12 123.162 142.093)" fill="#D9D9D9"/>
<rect x="140.658" y="147.757" width="27.2411" height="28.3279" transform="rotate(-12 140.658 147.757)" fill="#D9D9D9"/>
</mask>
<g mask="url(#mask0_251_55344)">
<path fill-rule="evenodd" clip-rule="evenodd" d="M133.242 203.092H132.774C123.258 203.092 115.542 195.652 115.542 186.46C115.542 177.283 123.258 169.843 132.774 169.843C137.667 169.843 142.092 171.819 145.227 174.982C148.361 171.819 152.786 169.843 157.679 169.843C167.196 169.843 174.912 177.283 174.912 186.474C174.912 195.496 167.04 203.247 157.949 203.05C152.786 202.937 148.914 203.982 145.411 206.989C142.504 203.869 138.15 203.05 133.242 203.092Z" fill="white"/>
</g>
<path fill-rule="evenodd" clip-rule="evenodd" d="M179.428 224.866L179.456 233.196H182.86L182.846 214.616L178.18 221.224L173.627 227.464L171.386 224.372L164.564 214.842L164.521 233.267H167.897L167.94 225.445L173.542 232.999L179.428 224.866Z" fill="white"/>
<path fill-rule="evenodd" clip-rule="evenodd" d="M146.551 233.253L158.408 233.267L158.422 229.865H150.069V215.464L146.537 215.478L146.551 233.253Z" fill="white"/>
<path fill-rule="evenodd" clip-rule="evenodd" d="M105.693 230.049C102.544 230.049 99.991 227.508 99.991 224.373C99.991 221.239 102.544 218.698 105.693 218.698C108.841 218.698 111.394 221.239 111.394 224.373C111.394 227.508 108.841 230.049 105.693 230.049ZM105.693 233.551C110.784 233.551 114.911 229.442 114.911 224.373C114.911 219.305 110.784 215.196 105.693 215.196C100.601 215.196 96.4736 219.305 96.4736 224.373C96.4736 229.442 100.601 233.551 105.693 233.551Z" fill="white"/>
<path fill-rule="evenodd" clip-rule="evenodd" d="M121.943 215.647L125.418 225.785L128.155 219.078L126.737 215.647H130.24L134.24 225.432L137.275 215.647H140.977L134.126 234.002L129.914 223.483L124.893 233.988L117.83 215.647H121.943Z" fill="white"/>
<path d="M193.439 215.435H190.007V233.239H193.439V215.435Z" fill="white"/>
<g filter="url(#filter0_f_251_55344)">
<ellipse cx="52.9103" cy="21.872" rx="62.5578" ry="62.5578" fill="#FF7A59"/>
</g>
</g>
<rect x="0.770352" y="1.35116" width="287.82" height="405.9" rx="24.19" stroke="#BDBDBD" stroke-width="0.82"/>
<defs>
<filter id="filter0_f_251_55344" x="-280.796" y="-311.834" width="667.412" height="667.412" filterUnits="userSpaceOnUse" color-interpolation-filters="sRGB">
<feFlood flood-opacity="0" result="BackgroundImageFix"/>
<feBlend mode="normal" in="SourceGraphic" in2="BackgroundImageFix" result="shape"/>
<feGaussianBlur stdDeviation="135.574" result="effect1_foregroundBlur_251_55344"/>
</filter>
<clipPath id="clip0_251_55344">
<rect x="0.360352" y="0.941162" width="288.64" height="406.72" rx="24.6" fill="white"/>
</clipPath>
</defs>
</svg>
