<svg width="50" height="51" viewBox="0 0 50 51" fill="none" xmlns="http://www.w3.org/2000/svg">
<mask id="mask0_1_592" style="mask-type:luminance" maskUnits="userSpaceOnUse" x="29" y="40" width="21" height="11">
<path d="M29.1211 40.5178H49.9939V50.0516H29.1211V40.5178Z" fill="white"/>
</mask>
<g mask="url(#mask0_1_592)">
<path d="M30.2583 50.0131C29.8405 50.0131 29.4458 49.7594 29.2887 49.3488C29.0823 48.8123 29.3481 48.2124 29.8848 48.0071L48.5826 40.8204C49.1254 40.6171 49.7214 40.8828 49.9248 41.4163C50.1312 41.9528 49.8644 42.5527 49.3288 42.758L30.6299 49.9446C30.508 49.9899 30.3832 50.0131 30.2583 50.0131Z" fill="#0C0815"/>
</g>
<mask id="mask1_1_592" style="mask-type:luminance" maskUnits="userSpaceOnUse" x="32" y="3" width="18" height="27">
<path d="M32.4727 3.14471H49.9945V29.1695H32.4727V3.14471Z" fill="white"/>
</mask>
<g mask="url(#mask1_1_592)">
<path d="M48.9532 29.1538C48.631 29.1538 48.3088 29.0048 48.1075 28.7199L32.9226 7.51539C32.7122 7.22451 32.6689 6.84807 32.8038 6.51792C32.9387 6.18778 33.2337 5.95125 33.5871 5.88884L48.4216 3.293C48.8344 3.22053 49.2543 3.40674 49.4809 3.76406L49.792 4.26229C50.0961 4.74845 49.948 5.39061 49.4637 5.69358C49.0066 5.98044 48.4186 5.86771 48.0974 5.45704L35.5747 7.65027L49.801 27.5111C50.1333 27.9781 50.0246 28.6263 49.5594 28.9605C49.3731 29.0914 49.1627 29.1538 48.9532 29.1538Z" fill="#0C0815"/>
</g>
<mask id="mask2_1_592" style="mask-type:luminance" maskUnits="userSpaceOnUse" x="0" y="19" width="50" height="15">
<path d="M0 19.3967H50V33.8263H0V19.3967Z" fill="white"/>
</mask>
<g mask="url(#mask2_1_592)">
<path d="M1.16633 33.6251C0.699136 33.6251 0.277251 33.3111 0.159445 32.84C0.0225082 32.2814 0.358809 31.7177 0.913603 31.5788L48.7005 19.575C49.2633 19.4401 49.8201 19.7743 49.9601 20.3309C50.097 20.8875 49.7577 21.4501 49.2029 21.589L1.42007 33.5939C1.33549 33.614 1.2499 33.6251 1.16633 33.6251Z" fill="#0C0815"/>
</g>
<path d="M22.4449 50.0108C22.0814 50.0108 21.728 49.8196 21.5367 49.4794L0.262154 11.5362C-0.0187678 11.038 0.160458 10.4049 0.660881 10.1221C1.15728 9.84627 1.79363 10.0204 2.07556 10.5206L23.3501 48.4658C23.631 48.964 23.4518 49.5971 22.9513 49.88C22.7913 49.9665 22.6171 50.0108 22.4449 50.0108Z" fill="#0C0815"/>
<mask id="mask3_1_592" style="mask-type:luminance" maskUnits="userSpaceOnUse" x="0" y="0" width="50" height="51">
<path d="M0 0.0646362H50V50.0529H0V0.0646362Z" fill="white"/>
</mask>
<g mask="url(#mask3_1_592)">
<path d="M44.7974 50.0155H5.32243C2.45784 50.0155 0.128906 47.6874 0.128906 44.8228V5.36279C0.128906 2.49821 2.45784 0.170105 5.32243 0.170105H44.7974C47.3861 0.170105 49.5983 2.1117 49.9416 4.6854C49.9688 4.9018 49.991 5.13431 49.991 5.36279V44.8228C49.991 47.6874 47.662 50.0155 44.7974 50.0155ZM5.32243 2.24758C3.60468 2.24758 2.20611 3.64464 2.20611 5.36279V44.8228C2.20611 46.5409 3.60468 47.938 5.32243 47.938H44.7974C46.5152 47.938 47.9138 46.5409 47.9138 44.8228V5.36279C47.9138 5.21886 47.8946 5.07593 47.8805 4.94911C47.6771 3.41415 46.349 2.24758 44.7974 2.24758H5.32243Z" fill="#0C0815"/>
</g>
</svg>
