<svg width="19" height="20" viewBox="0 0 19 20" fill="none" xmlns="http://www.w3.org/2000/svg">
<path fill-rule="evenodd" clip-rule="evenodd" d="M8.93897 12.6071C8.92735 12.6475 8.91641 12.6817 8.90752 12.7159C8.39118 14.7394 8.33373 15.1889 7.80304 16.1288C7.55 16.5755 7.26482 16.999 6.94954 17.4039C6.91398 17.4498 6.88047 17.5086 6.80934 17.4943C6.73138 17.4778 6.72523 17.408 6.71702 17.3451C6.63222 16.7301 6.58503 16.1138 6.60555 15.4926C6.63222 14.684 6.73207 14.4063 7.77431 10.0226C7.78936 9.95556 7.77226 9.90016 7.75038 9.83996C7.50076 9.16681 7.45152 8.48341 7.66968 7.79111C8.14156 6.29569 9.83624 6.18144 10.1324 7.41486C10.315 8.17762 9.83213 9.1764 9.46147 10.6527C9.1544 11.8703 10.5878 12.7364 11.8127 11.8471C12.9425 11.0275 13.3808 9.06283 13.2974 7.67002C13.1333 4.8933 10.0893 4.29335 8.15866 5.18746C5.94491 6.21154 5.44157 8.95611 6.44141 10.2107C6.56793 10.3701 6.80661 10.468 6.76489 10.6294C6.70061 10.8805 6.64384 11.1336 6.57409 11.3833C6.52211 11.5693 6.22599 11.6371 6.03792 11.5604C5.6693 11.4113 5.36224 11.1767 5.1133 10.8675C4.26459 9.81602 4.02181 7.73638 5.14408 5.97553C6.38739 4.02519 8.7003 3.23575 10.8121 3.47518C13.3343 3.76181 14.9285 5.48572 15.2266 7.44153C15.3627 8.33222 15.2649 10.5288 14.0148 12.0817C12.5766 13.8658 10.2452 13.9842 9.16944 12.889C9.08669 12.8048 9.02036 12.707 8.93897 12.6064V12.6071Z" fill="#3B3B3B"/>
</svg>
