<svg width="50" height="51" viewBox="0 0 50 51" fill="none" xmlns="http://www.w3.org/2000/svg">
<g clip-path="url(#clip0_1_5661)">
<path d="M45.0971 50.9712C43.8958 50.6717 43.0339 49.883 42.1887 49.0316C39.0359 45.8581 35.8536 42.714 32.6998 39.5444C32.3995 39.243 32.2038 39.2352 31.8507 39.4583C28.3035 41.6914 24.416 42.7404 20.2369 42.6416C10.5553 42.4087 2.16389 35.2906 0.381532 25.8151C0.231861 25.0215 0.118384 24.221 -0.00976562 23.4244V20.201C0.119363 19.4025 0.217187 18.5962 0.381532 17.8055C1.6826 11.5847 5.0771 6.85531 10.5748 3.67594C13.8089 1.80687 17.3237 0.951602 21.0587 0.966281C30.3539 1.00444 38.7287 7.53346 40.9689 16.6312C42.6094 23.2786 41.2623 29.3526 37.095 34.7876L36.8514 35.1017L39.4438 37.0148C42.3746 39.1768 45.3048 41.3388 48.2343 43.5008C49.6038 44.5107 50.2045 45.8875 49.9218 47.5481C49.6283 49.291 48.5522 50.4114 46.8256 50.8753C46.767 50.8985 46.7112 50.9284 46.6593 50.9643L45.0971 50.9712ZM39.9613 21.7736C39.9221 11.1718 31.3811 2.62985 20.8268 2.62985C10.2814 2.62398 1.6239 11.2931 1.65325 21.8186C1.66439 26.8951 3.68794 31.7598 7.28001 35.3457C10.8721 38.9317 15.7393 40.9459 20.8141 40.9467C31.4026 40.9555 40.0004 32.3461 39.9613 21.7736ZM33.7289 38.1783C33.8531 38.3104 33.949 38.4181 34.0507 38.5199L38.0615 42.5202C40.0539 44.5087 42.0469 46.4968 44.0406 48.4846C44.7733 49.2127 45.6517 49.4378 46.6388 49.1305C47.6043 48.8291 48.1531 48.1353 48.2793 47.1479C48.4133 46.1077 47.9242 45.3473 47.1005 44.7436C43.7706 42.2997 40.4445 39.8497 37.1224 37.3935C36.6558 37.0491 36.1843 36.7085 35.7284 36.3817L33.7289 38.1783Z" fill="#282C2F"/>
<path d="M38.433 21.792C38.3215 30.3359 32.0969 37.6869 23.728 39.054C14.3183 40.5913 5.58062 34.5653 3.63685 25.2004C1.85547 16.6164 7.04505 7.78185 15.4257 5.13971C16.0126 4.95574 16.4558 5.12993 16.6309 5.61432C16.806 6.09871 16.5438 6.5283 15.9246 6.73968C11.6125 8.20753 8.44394 10.9818 6.4855 15.0967C2.1059 24.2952 7.74254 35.4098 17.7353 37.3004C26.3086 38.9258 34.3948 33.6053 36.2808 25.0957C38.1464 16.6986 32.6027 8.08032 24.1917 6.34825C23.1479 6.13296 22.0689 6.07621 21.0036 5.97443C20.3188 5.90985 19.9833 5.65053 19.9911 5.11427C19.999 4.57802 20.3648 4.28934 21.031 4.29032C28.9753 4.30597 36.1742 10.0883 37.8568 17.8474C38.1336 19.1421 38.2432 20.4759 38.433 21.792Z" fill="#282C2F"/>
<path d="M12.4903 21.7792C12.5154 19.5825 13.4058 17.4843 14.9681 15.9403C16.5304 14.3963 18.6385 13.5311 20.8346 13.5325C23.0308 13.5339 25.1377 14.4019 26.698 15.9479C28.2583 17.4939 29.146 19.5932 29.1683 21.79C29.1683 26.3795 25.3982 30.1538 20.8151 30.148C18.6021 30.1415 16.4822 29.2564 14.9212 27.6872C13.3602 26.1179 12.4858 23.993 12.4903 21.7792ZM27.4652 21.7792C27.4652 20.017 26.7664 18.3266 25.5221 17.0791C24.2777 15.8316 22.5895 15.1288 20.8278 15.125C17.1692 15.1201 14.1425 18.1527 14.1533 21.8105C14.1578 23.5764 14.8634 25.2681 16.1149 26.5136C17.3663 27.759 19.0611 28.4562 20.8264 28.4516C22.5916 28.4471 24.2828 27.7412 25.5278 26.4894C26.7729 25.2375 27.4698 23.5422 27.4652 21.7763V21.7792Z" fill="#282C2F"/>
<path d="M19.8118 23.0372C20.7637 21.6134 21.6519 20.2924 22.5314 18.9674C22.7788 18.5945 23.089 18.3636 23.5507 18.4996C24.1298 18.6699 24.3255 19.2883 23.9664 19.8422C23.3932 20.7298 22.7984 21.6036 22.2124 22.4844C21.7351 23.2016 21.2635 23.9238 20.7774 24.6372C20.346 25.2694 19.8206 25.3163 19.2758 24.782C18.7886 24.3032 18.306 23.8198 17.828 23.3318C17.3936 22.8875 17.3701 22.41 17.7497 22.043C18.1107 21.6946 18.5832 21.7162 19.0038 22.1321C19.2806 22.3982 19.5223 22.7084 19.8118 23.0372Z" fill="#282C2F"/>
</g>
<defs>
<clipPath id="clip0_1_5661">
<rect width="50" height="50" fill="white" transform="translate(-0.00976562 0.966095)"/>
</clipPath>
</defs>
</svg>
