<svg width="1354" height="6" viewBox="0 0 1354 6" fill="none" xmlns="http://www.w3.org/2000/svg">
<path d="M1353.72 3.05594C1353.72 1.58318 1352.52 0.389272 1351.05 0.389272C1349.58 0.389272 1348.38 1.58318 1348.38 3.05594C1348.38 4.5287 1349.58 5.72261 1351.05 5.72261C1352.52 5.72261 1353.72 4.5287 1353.72 3.05594ZM5.6178 3.05594C5.6178 1.58318 4.42395 0.389272 2.95117 0.389272C1.47839 0.389272 0.284546 1.58318 0.284546 3.05594C0.284546 4.5287 1.47839 5.72261 2.95117 5.72261C4.42395 5.72261 5.6178 4.5287 5.6178 3.05594ZM1351.05 2.55594L2.95117 2.55594V3.55594L1351.05 3.55594V2.55594Z" fill="url(#paint0_linear_1_5612)"/>
<defs>
<linearGradient id="paint0_linear_1_5612" x1="1277.74" y1="2.29318" x2="1253.72" y2="148.66" gradientUnits="userSpaceOnUse">
<stop stop-color="#520909"/>
<stop offset="1" stop-color="#DB0B0B"/>
</linearGradient>
</defs>
</svg>
