<svg width="290" height="408" viewBox="0 0 290 408" fill="none" xmlns="http://www.w3.org/2000/svg">
<rect x="0.797207" y="0.908779" width="287.82" height="405.9" rx="24.19" fill="#EAEAE1"/>
<rect x="0.797207" y="0.908779" width="287.82" height="405.9" rx="24.19" stroke="#BDBDBD" stroke-width="0.82"/>
<path d="M123.42 192.883H127.565V196.783H127.642C127.771 196.237 128.017 195.704 128.378 195.184C128.766 194.664 129.218 194.196 129.734 193.78C130.277 193.338 130.871 192.987 131.516 192.726C132.162 192.466 132.82 192.336 133.492 192.336C134.008 192.336 134.357 192.349 134.538 192.375C134.745 192.401 134.951 192.427 135.158 192.453V196.744C134.848 196.692 134.525 196.653 134.189 196.627C133.879 196.575 133.569 196.549 133.26 196.549C132.511 196.549 131.8 196.705 131.129 197.017C130.483 197.303 129.915 197.745 129.424 198.343C128.934 198.915 128.546 199.631 128.262 200.489C127.978 201.347 127.836 202.335 127.836 203.453V213.049H123.42V192.883Z" fill="black"/>
<path d="M154.626 213.049H150.288V210.24H150.21C149.668 211.254 148.854 212.074 147.77 212.698C146.711 213.296 145.626 213.595 144.516 213.595C141.881 213.595 139.97 212.945 138.782 211.645C137.62 210.318 137.039 208.329 137.039 205.677V192.883H141.455V205.248C141.455 207.016 141.791 208.264 142.462 208.992C143.134 209.72 144.077 210.084 145.29 210.084C146.22 210.084 146.995 209.941 147.615 209.655C148.235 209.369 148.738 208.992 149.126 208.524C149.513 208.03 149.784 207.445 149.939 206.769C150.12 206.093 150.21 205.365 150.21 204.584V192.883H154.626V213.049Z" fill="black"/>
<path d="M159.284 192.883H163.467V195.691H163.584C163.919 195.197 164.281 194.742 164.668 194.326C165.056 193.91 165.482 193.559 165.947 193.273C166.437 192.987 166.993 192.766 167.612 192.609C168.232 192.427 168.943 192.336 169.743 192.336C170.957 192.336 172.08 192.609 173.113 193.156C174.172 193.702 174.921 194.547 175.36 195.691C176.109 194.651 176.974 193.832 177.956 193.234C178.937 192.635 180.164 192.336 181.636 192.336C183.754 192.336 185.394 192.857 186.556 193.897C187.744 194.937 188.338 196.679 188.338 199.124V213.049H183.922V201.269C183.922 200.463 183.896 199.735 183.844 199.085C183.792 198.408 183.638 197.836 183.379 197.368C183.147 196.874 182.785 196.497 182.295 196.237C181.804 195.977 181.132 195.847 180.28 195.847C178.782 195.847 177.698 196.315 177.026 197.251C176.355 198.187 176.019 199.514 176.019 201.23V213.049H171.603V200.099C171.603 198.694 171.344 197.641 170.828 196.939C170.337 196.211 169.42 195.847 168.077 195.847C167.509 195.847 166.954 195.964 166.412 196.198C165.895 196.432 165.43 196.77 165.017 197.212C164.63 197.654 164.307 198.2 164.049 198.85C163.816 199.501 163.7 200.242 163.7 201.074V213.049H159.284V192.883Z" fill="black"/>
<path d="M202.172 213.595C200.571 213.595 199.138 213.335 197.872 212.815C196.633 212.269 195.574 211.528 194.696 210.591C193.843 209.655 193.185 208.537 192.72 207.237C192.281 205.937 192.061 204.506 192.061 202.946C192.061 201.412 192.281 199.995 192.72 198.694C193.185 197.394 193.843 196.276 194.696 195.34C195.574 194.404 196.633 193.676 197.872 193.156C199.138 192.609 200.571 192.336 202.172 192.336C203.773 192.336 205.194 192.609 206.433 193.156C207.699 193.676 208.758 194.404 209.61 195.34C210.488 196.276 211.147 197.394 211.586 198.694C212.051 199.995 212.283 201.412 212.283 202.946C212.283 204.506 212.051 205.937 211.586 207.237C211.147 208.537 210.488 209.655 209.61 210.591C208.758 211.528 207.699 212.269 206.433 212.815C205.194 213.335 203.773 213.595 202.172 213.595ZM202.172 210.084C203.154 210.084 204.006 209.876 204.729 209.46C205.452 209.044 206.046 208.498 206.511 207.822C206.976 207.146 207.312 206.392 207.518 205.56C207.751 204.701 207.867 203.83 207.867 202.946C207.867 202.088 207.751 201.23 207.518 200.372C207.312 199.514 206.976 198.759 206.511 198.109C206.046 197.433 205.452 196.887 204.729 196.471C204.006 196.055 203.154 195.847 202.172 195.847C201.191 195.847 200.339 196.055 199.615 196.471C198.892 196.887 198.298 197.433 197.833 198.109C197.369 198.759 197.02 199.514 196.787 200.372C196.581 201.23 196.478 202.088 196.478 202.946C196.478 203.83 196.581 204.701 196.787 205.56C197.02 206.392 197.369 207.146 197.833 207.822C198.298 208.498 198.892 209.044 199.615 209.46C200.339 209.876 201.191 210.084 202.172 210.084Z" fill="black"/>
<path d="M215.954 192.883H220.1V196.783H220.177C220.306 196.237 220.551 195.704 220.913 195.184C221.3 194.664 221.752 194.196 222.269 193.78C222.811 193.338 223.405 192.987 224.051 192.726C224.697 192.466 225.355 192.336 226.027 192.336C226.543 192.336 226.892 192.349 227.073 192.375C227.279 192.401 227.486 192.427 227.692 192.453V196.744C227.382 196.692 227.06 196.653 226.724 196.627C226.414 196.575 226.104 196.549 225.794 196.549C225.045 196.549 224.335 196.705 223.664 197.017C223.018 197.303 222.45 197.745 221.959 198.343C221.468 198.915 221.081 199.631 220.797 200.489C220.513 201.347 220.371 202.335 220.371 203.453V213.049H215.954V192.883Z" fill="black"/>
<path d="M73.5225 202.966C73.5225 213.283 72.4485 221.647 71.1236 221.647C69.7988 221.647 68.7247 213.283 68.7247 202.966C68.7247 192.648 69.7988 184.284 71.1236 184.284C72.4485 184.284 73.5225 192.648 73.5225 202.966Z" fill="black"/>
<path d="M102.949 202.966C102.949 213.283 101.875 221.647 100.55 221.647C99.2254 221.647 98.1513 213.283 98.1513 202.966C98.1513 192.648 99.2254 184.284 100.55 184.284C101.875 184.284 102.949 192.648 102.949 202.966Z" fill="black"/>
<path d="M95.5925 203.127C95.5925 215.668 94.1605 225.835 92.3939 225.835C90.6274 225.835 89.1954 215.668 89.1954 203.127C89.1954 190.585 90.6274 180.419 92.3939 180.419C94.1605 180.419 95.5925 190.585 95.5925 203.127Z" fill="black"/>
<path d="M82.4785 203.127C82.4785 215.668 81.0464 225.835 79.2799 225.835C77.5134 225.835 76.0814 215.668 76.0814 203.127C76.0814 190.585 77.5134 180.419 79.2799 180.419C81.0464 180.419 82.4785 190.585 82.4785 203.127Z" fill="black"/>
<path d="M90.155 203.127C90.155 216.557 88.2933 227.445 85.9969 227.445C83.7004 227.445 81.8388 216.557 81.8388 203.127C81.8388 189.696 83.7004 178.808 85.9969 178.808C88.2933 178.808 90.155 189.696 90.155 203.127Z" fill="black"/>
<path d="M65.846 202.966C65.846 208.658 65.0584 213.273 64.0868 213.273C63.1153 213.273 62.3276 208.658 62.3276 202.966C62.3276 197.273 63.1153 192.659 64.0868 192.659C65.0584 192.659 65.846 197.273 65.846 202.966Z" fill="black"/>
<path d="M109.346 202.966C109.346 208.658 108.559 213.273 107.587 213.273C106.615 213.273 105.828 208.658 105.828 202.966C105.828 197.273 106.615 192.659 107.587 192.659C108.559 192.659 109.346 197.273 109.346 202.966Z" fill="black"/>
</svg>
