<svg width="51" height="51" viewBox="0 0 51 51" fill="none" xmlns="http://www.w3.org/2000/svg">
<g clip-path="url(#clip0_1_5632)">
<path d="M50.6938 6.33561V45.3997C50.6869 45.53 50.6689 45.6594 50.64 45.7866C50.5842 46.0055 50.4889 46.1887 50.4115 46.3698C49.1891 49.2513 47.6871 50.9363 44.5509 50.9441C31.9696 50.9757 19.3879 50.9757 6.80588 50.9441C4.90305 50.9407 3.02695 50.432 2.08479 48.6767C1.35847 47.3244 0.79557 45.6923 0.782894 44.1788C0.678057 32.3695 0.77707 20.5571 0.693817 8.74646C0.668464 5.05095 1.69011 2.23532 5.41387 1.03265C5.55218 0.988281 5.69656 0.965827 5.84179 0.966097H45.2755C45.4106 0.966171 45.545 0.985577 45.6747 1.02373C48.248 1.78115 50.0651 3.29496 50.6602 6.03203C50.6823 6.13171 50.6936 6.2335 50.6938 6.33561ZM3.96637 13.1702C3.59454 13.1695 3.23758 13.3164 2.97376 13.5788C2.70994 13.8411 2.56077 14.1975 2.55895 14.5698V14.5846C2.55553 24.4351 2.55553 34.2856 2.55895 44.1359C2.56067 47.7622 3.91704 49.1312 7.50102 49.1319C19.5888 49.1346 31.6764 49.1346 43.764 49.1319C47.4572 49.1319 48.8146 47.7848 48.816 44.1051C48.8201 34.3005 48.8201 24.496 48.816 14.6916V14.5804C48.816 14.2067 48.6677 13.8483 48.4038 13.584C48.1398 13.3197 47.7819 13.1713 47.4086 13.1713L3.96637 13.1702ZM47.4086 11.3316C47.7811 11.3315 48.1383 11.1836 48.4021 10.9203C48.6659 10.657 48.8147 10.2998 48.816 9.92684C48.8194 8.95228 48.8225 8.02094 48.8095 7.08995C48.7721 4.4575 47.2808 2.86857 44.6366 2.86239C31.9109 2.83312 19.185 2.83426 6.45882 2.86582C4.57826 2.86925 3.22052 3.78378 2.86387 5.62828C2.59698 7.00728 2.57266 8.43293 2.52812 9.8795C2.52239 10.0681 2.55454 10.2559 2.62268 10.4319C2.69081 10.6078 2.79354 10.7682 2.92477 10.9037C3.056 11.0391 3.21306 11.1467 3.38663 11.2202C3.56019 11.2938 3.74674 11.3316 3.93519 11.3316H47.4086Z" fill="#282C2F"/>
<path d="M32.2248 20.0348C32.884 20.5922 33.3403 20.9521 33.7665 21.3442C35.4206 22.8628 36.6495 24.6774 37.1987 26.8585C37.5636 28.3088 37.9069 29.5492 39.2951 30.5478C40.8632 31.6757 40.5727 34.2354 39.0704 35.4981C38.7201 35.794 38.3144 36.0169 37.877 36.1539C37.4397 36.2908 36.9794 36.339 36.5232 36.2957C36.067 36.2524 35.624 36.1184 35.2201 35.9016C34.8162 35.6848 34.4596 35.3895 34.1711 35.033C32.9035 33.4698 33.1214 31.1303 34.8615 30.1152C36.0006 29.4508 35.9164 28.7681 35.643 27.7634C34.6676 24.1773 32.4153 21.8183 28.9865 20.5322C26.6982 23.2484 24.6967 23.2518 22.3797 20.5459C18.6052 21.9373 16.3341 24.6342 15.5687 28.5791C15.4971 28.9489 15.8692 29.5739 16.2197 29.8274C17.6864 30.8908 18.313 32.3292 17.8299 33.8426C17.3503 35.341 15.9055 36.3986 14.4196 36.3372C12.9427 36.2761 11.5479 35.1709 11.1872 33.7775C10.7781 32.195 11.413 30.7704 12.9201 29.8086C13.2013 29.6288 13.5943 29.3681 13.6327 29.1009C14.1654 25.3927 15.9093 22.4117 19.223 20.0506H15.3776C15.2422 20.2849 15.0624 20.6392 14.8435 20.9672C13.9496 22.305 12.3767 22.8645 10.884 22.3887C9.48444 21.9428 8.44086 20.5003 8.47135 19.0544C8.50287 17.5735 9.54199 16.233 10.9885 15.8069C12.4432 15.3788 14.0531 15.8714 14.7866 17.2374C15.2642 18.1262 15.8202 18.3124 16.7175 18.2768C18.2712 18.215 19.8321 18.3111 21.3834 18.2253C21.8113 18.2016 22.3708 17.8662 22.6062 17.5025C24.2257 15.0028 27.1426 15.0114 28.7707 17.519C29.005 17.8802 29.5682 18.1883 30.004 18.2263C31.1398 18.3248 32.2899 18.2524 33.4338 18.2606C34.8097 18.2716 36.0287 18.4394 36.9801 16.8199C37.9548 15.1596 40.3884 15.2632 41.8009 16.6268C43.1796 17.9574 43.2436 20.041 41.9489 21.4375C40.6093 22.8823 38.146 23.1461 37.1237 21.5404C35.8715 19.5683 34.2581 19.9497 32.2248 20.0348ZM13.633 19.169C13.5498 18.1584 13.0718 17.5015 12.03 17.4538C11.0022 17.4079 10.3937 17.9653 10.2896 18.9882C10.2644 19.2164 10.2884 19.4473 10.3598 19.6654C10.4313 19.8836 10.5485 20.0838 10.7037 20.2528C10.8588 20.4218 11.0484 20.5556 11.2595 20.6451C11.4706 20.7347 11.6984 20.7779 11.9275 20.772C12.9667 20.7545 13.4888 20.1552 13.633 19.169ZM27.3749 19.0606C27.2426 18.0795 26.7342 17.4483 25.6893 17.4538C24.6577 17.459 24.0818 18.0438 24.028 19.0723C24.0136 19.3016 24.0486 19.5314 24.1307 19.746C24.2127 19.9606 24.3398 20.1551 24.5034 20.3162C24.667 20.4774 24.8632 20.6015 25.0789 20.6801C25.2945 20.7588 25.5245 20.7901 25.7533 20.772C26.7877 20.703 27.2872 20.0828 27.3749 19.0606ZM39.3883 20.7991C40.4052 20.7013 41.0239 20.1998 41.0866 19.1628C41.1462 18.1793 40.3637 17.3938 39.3756 17.4477C38.3447 17.5049 37.7688 18.0878 37.7692 19.1193C37.7698 20.1672 38.4071 20.6691 39.3883 20.7991ZM14.5012 34.5435C15.5006 34.4748 16.1248 33.9576 16.157 32.926C16.1889 31.9114 15.6544 31.2829 14.6136 31.1996C13.6433 31.1217 12.7717 31.9117 12.8341 32.8619C12.8995 33.8492 13.4497 34.4515 14.5012 34.5435ZM36.8263 31.179C35.8393 31.2541 35.227 31.7913 35.2075 32.819C35.1883 33.8354 35.7403 34.4539 36.7811 34.5236C37.7472 34.5884 38.6212 33.7737 38.5393 32.8331C38.4547 31.8517 37.9055 31.2448 36.827 31.179H36.8263Z" fill="#282C2F"/>
<path d="M25.7034 46.6053C24.3785 46.6053 23.0465 46.6835 21.7329 46.5614C21.2841 46.5199 20.6366 46.0575 20.4995 45.6462C19.6252 43.057 18.8288 40.4424 18.1102 37.8024C17.9831 37.3345 18.1897 36.5956 18.5148 36.2141C20.5592 33.8146 22.6884 31.4881 24.7711 29.1209C25.3912 28.4156 25.936 28.3662 26.5763 29.0938C28.6898 31.495 30.851 33.8544 32.9207 36.292C33.2328 36.6597 33.3554 37.413 33.2245 37.8953C32.5291 40.4444 31.6931 42.9537 30.9795 45.499C30.7321 46.3823 30.2569 46.6516 29.4007 46.618C28.1701 46.5693 26.9367 46.6057 25.7034 46.6053ZM26.8028 32.0281L26.4944 32.1509V36.2718H24.7855V31.7873C23.1212 33.6493 21.6702 35.2265 20.2875 36.8618C20.0476 37.1451 19.9387 37.7159 20.0381 38.0809C20.5862 40.1028 21.1847 42.1143 21.859 44.0977C21.9745 44.437 22.5319 44.8305 22.8995 44.8452C24.7698 44.9207 26.6462 44.9217 28.5161 44.8425C28.8724 44.8274 29.4031 44.4006 29.5217 44.0511C30.1959 42.0677 30.7921 40.0561 31.3536 38.037C31.4457 37.7056 31.3601 37.1832 31.1446 36.93C29.73 35.2698 28.2568 33.6575 26.8028 32.0281Z" fill="#282C2F"/>
<path d="M18.1226 7.13904C18.0883 8.16814 17.2167 8.99931 16.216 8.95506C15.9691 8.94631 15.7263 8.88886 15.5016 8.78602C15.2769 8.68318 15.0747 8.53696 14.9065 8.35574C14.7384 8.17452 14.6076 7.96186 14.5216 7.72995C14.4357 7.49803 14.3963 7.25142 14.4057 7.00423C14.4399 6.01183 15.3307 5.17379 16.3098 5.21564C17.3253 5.26024 18.1551 6.14047 18.1226 7.13904ZM16.2756 6.55897C16.2082 6.55435 16.1405 6.56353 16.0767 6.58597C16.0129 6.60841 15.9544 6.64362 15.9047 6.68946C15.8549 6.7353 15.8151 6.79081 15.7875 6.8526C15.7599 6.91438 15.7452 6.98115 15.7442 7.04882C15.7401 7.11897 15.75 7.18923 15.7731 7.25556C15.7963 7.32189 15.8323 7.38297 15.8792 7.43529C15.926 7.48762 15.9828 7.53014 16.0461 7.56043C16.1094 7.59071 16.1781 7.60815 16.2482 7.61174C16.384 7.616 16.5159 7.56624 16.6152 7.47336C16.7145 7.38047 16.7729 7.252 16.7778 7.11605C16.7919 6.80973 16.575 6.5696 16.2756 6.55897Z" fill="#282C2F"/>
<path d="M9.50897 7.07549C9.51245 7.56926 9.32062 8.04434 8.97539 8.39695C8.63015 8.74956 8.15957 8.95104 7.66645 8.95737C6.65508 8.96835 5.79686 8.12037 5.79103 7.10499C5.78887 6.61157 5.98066 6.13711 6.32496 5.78409C6.66927 5.43107 7.13845 5.22784 7.63116 5.2183C8.62369 5.20115 9.50041 6.06799 9.50897 7.07549ZM7.65343 6.55888C7.35845 6.55064 7.13952 6.7352 7.12651 7.00002C7.11143 7.34305 7.3396 7.61165 7.64932 7.61336C7.78898 7.61391 7.92313 7.55888 8.02227 7.46039C8.12141 7.3619 8.17741 7.22801 8.17796 7.08818C8.1785 6.94834 8.12355 6.81402 8.02518 6.71476C7.92681 6.61549 7.79309 6.55942 7.65343 6.55888Z" fill="#282C2F"/>
<path d="M13.814 7.12026C13.7979 8.14593 12.9387 8.98431 11.9297 8.95892C11.4369 8.94715 10.9685 8.74193 10.6254 8.38752C10.2823 8.0331 10.0921 7.55789 10.0958 7.06434C10.1074 6.04725 10.9756 5.19618 11.9801 5.21848C12.9846 5.24077 13.8295 6.11654 13.814 7.12026ZM11.9417 6.5618C11.6286 6.5642 11.4278 6.75973 11.4329 7.05302C11.4412 7.38577 11.6693 7.62486 11.9705 7.61526C12.1067 7.60678 12.2343 7.54567 12.3264 7.44481C12.4186 7.34396 12.4679 7.21123 12.4642 7.07461C12.4605 6.938 12.4039 6.80817 12.3064 6.7125C12.209 6.61684 12.0782 6.56281 11.9417 6.5618Z" fill="#282C2F"/>
</g>
<defs>
<clipPath id="clip0_1_5632">
<rect width="50" height="50" fill="white" transform="translate(0.693359 0.966095)"/>
</clipPath>
</defs>
</svg>
