<svg width="278" height="333" viewBox="0 0 278 333" fill="none" xmlns="http://www.w3.org/2000/svg">
<rect x="0.635177" y="0.3936" width="276.213" height="332.213" rx="23.2224" fill="#092A3C"/>
<rect x="0.635177" y="0.3936" width="276.213" height="332.213" rx="23.2224" stroke="#BDBDBD" stroke-width="0.7872"/>
<path d="M194.269 194.843C186.982 194.843 181.153 189.466 181.153 181.073C181.153 173.033 186.982 167.655 194.269 167.655C201.556 167.655 207.335 172.982 207.335 181.073C207.335 189.365 201.456 194.843 194.269 194.843ZM194.269 191.124C199.345 191.124 203.013 187.054 203.013 181.073C203.013 175.394 199.295 171.374 194.269 171.374C189.143 171.374 185.475 175.394 185.475 181.073C185.475 187.003 189.193 191.124 194.269 191.124Z" fill="white"/>
<path d="M173.25 163.484V158.106H178.075V163.484H173.25ZM173.301 194.29V168.258H178.025V194.29H173.301Z" fill="white"/>
<path d="M135.646 179.565V194.289H130.218V168.257H135.545V171.373C137.053 169.011 139.666 167.654 143.134 167.654C146.199 167.654 149.265 168.961 150.923 172.026C152.682 169.162 155.747 167.654 159.316 167.654C164.391 167.654 168.814 170.368 168.814 177.705V194.289H163.386V178.459C163.386 174.388 161.074 172.378 158.009 172.378C154.994 172.378 152.23 174.841 152.23 179.565V194.289H146.802V178.459C146.802 174.388 144.49 172.378 141.425 172.378C138.41 172.378 135.646 174.79 135.646 179.565Z" fill="white"/>
<path d="M119.576 180.268V194.29H113.143V168.258H119.425V172.228C119.978 171.323 120.631 170.469 121.485 169.765C123.043 168.559 124.5 168.057 126.762 168.057C127.465 168.057 128.119 168.107 128.571 168.207V174.288C127.315 174.188 126.712 174.188 126.008 174.188C123.194 174.188 119.576 175.193 119.576 180.268Z" fill="white"/>
<path d="M110.504 186.451C108.896 192.28 103.167 194.894 97.4379 194.894C89.8997 194.894 83.5676 189.717 83.5676 181.124C83.5676 172.782 90.1007 167.605 97.2871 167.605C104.675 167.605 110.755 172.53 110.755 181.677V183.235H91.2063C91.6083 187.004 94.2718 189.265 97.6892 189.265C99.9004 189.265 102.112 188.511 103.167 186.451H110.504ZM97.1866 173.184C94.0708 173.184 91.5581 175.093 91.1561 178.41H103.066C102.815 175.244 100.453 173.184 97.1866 173.184Z" fill="white"/>
<path d="M54.0209 194.29V159.111H70.3033C79.0476 159.111 83.6208 164.137 83.6208 170.971C83.6208 178.057 78.8969 183.083 70.2531 183.083H63.8708V194.29H54.0209ZM63.8708 175.444H68.4942C71.9115 175.444 73.6704 173.735 73.6704 171.122C73.6704 168.509 71.8612 166.75 68.4942 166.75H63.8708V175.444Z" fill="white"/>
<path d="M216.326 151.07H214.701V155.2H213.999V151.07H212.373V150.417H216.326V151.07ZM222.223 150.417V155.2H221.521V151.009L219.921 155.2H218.934L217.354 151.008V155.2H216.668V150.417H217.861L219.436 154.625L221.034 150.417H222.223Z" fill="white"/>
</svg>
