<svg width="289" height="408" viewBox="0 0 289 408" fill="none" xmlns="http://www.w3.org/2000/svg">
<rect x="0.770352" y="1.32443" width="287.82" height="405.9" rx="24.19" fill="white"/>
<rect x="0.770352" y="1.32443" width="287.82" height="405.9" rx="24.19" stroke="#BDBDBD" stroke-width="0.82"/>
<path d="M246.552 206.705V178.577H265.848V181.323H252.489V190.748H263.585V193.494H252.489V203.959H265.848V206.705H246.552Z" fill="black"/>
<path d="M221.734 178.577L239.842 197.613V178.577H242.848V206.705H239.842L221.734 187.297V206.705H218.728V178.577H221.734Z" fill="black"/>
<path d="M201.44 207.187C193.499 207.187 186.04 201.769 186.04 192.492C186.04 183.216 193.499 177.798 201.44 177.798C209.381 177.798 216.839 183.216 216.839 192.492C216.839 201.769 209.381 207.187 201.44 207.187ZM201.699 204.738C205.967 204.738 210.197 201.844 210.197 193.903C210.197 185.108 206.486 180.247 201.18 180.247C196.913 180.247 192.682 183.141 192.682 191.082C192.682 199.877 196.393 204.738 201.699 204.738Z" fill="black"/>
<path d="M173.059 206.705V181.323H163.002V178.577H189.052V181.323H178.996V206.705H173.059Z" fill="black"/>
<path d="M153.737 207.187C150.842 207.187 148.43 206.89 145.944 206L144.423 196.686H146.093L149.136 202.697C150.063 204.515 151.956 204.812 154.034 204.812C156.891 204.812 159.229 203.365 159.229 200.619C159.229 197.873 157.336 196.463 153.774 195.276L151.733 194.608C147.095 193.086 144.608 190.229 144.608 185.924C144.608 180.47 149.952 177.798 155.555 177.798C157.596 177.798 159.822 178.058 161.604 178.688L163.236 187.52H161.567L158.412 181.583C157.782 180.395 156.223 180.173 154.665 180.173C152.03 180.173 149.803 181.546 149.803 184.143C149.803 185.962 150.657 187.743 153.403 188.633L155.444 189.301C160.824 191.045 164.572 193.235 164.572 198.541C164.572 204.07 159.043 207.187 153.737 207.187Z" fill="black"/>
<path d="M124.569 206.705V178.577H143.865V181.323H130.506V190.748H141.601V193.494H130.506V203.959H143.865V206.705H124.569Z" fill="black"/>
<path d="M108.032 206.705V181.323H97.9756V178.577H124.025V181.323H113.969V206.705H108.032Z" fill="black"/>
<path d="M91.4951 206.705V178.577H97.4323V206.705H91.4951Z" fill="black"/>
<path d="M62.8721 206.705V178.577H68.8093V190.748H81.834V178.577H87.7712V206.705H81.834V193.494H68.8093V206.705H62.8721Z" fill="black"/>
<path d="M32.0025 206.705L22.7627 178.577H28.9968L35.2308 198.207L42.6152 178.577H44.953L52.7085 198.43L59.0168 178.577H62.2822L53.0795 206.705H49.9254L42.3926 187.817L35.1937 206.705H32.0025Z" fill="black"/>
<path d="M26.4956 227.684V220.872H23.8951V219.138H30.9763V220.872H28.3758V227.684H26.4956ZM32.1674 227.684V218.772H34.0232V222.068C34.4505 221.519 35.0121 221.018 35.94 221.018C37.3562 221.018 38.162 221.934 38.162 223.448V227.684H36.3063V224.034C36.3063 223.155 35.9034 222.703 35.183 222.703C34.4627 222.703 34.0232 223.155 34.0232 224.034V227.684H32.1674ZM42.8753 227.831C40.9097 227.831 39.4568 226.451 39.4568 224.449V224.425C39.4568 222.557 40.7876 221.018 42.6922 221.018C44.8776 221.018 45.8787 222.715 45.8787 224.571C45.8787 224.718 45.8665 224.876 45.8543 225.06H41.3003C41.4835 225.902 42.0695 226.341 42.8997 226.341C43.5224 226.341 43.9619 226.146 44.4869 225.67L45.5491 226.61C44.9264 227.379 44.0596 227.831 42.8753 227.831ZM41.2759 223.9H44.0718C43.9619 223.069 43.4736 222.508 42.6922 222.508C41.9108 222.508 41.4224 223.057 41.2759 223.9ZM50.3849 227.684L54.0476 219.077H55.7813L59.4441 227.684H57.4784L56.697 225.768H53.0831L52.3018 227.684H50.3849ZM53.7546 224.107H56.0255L54.8901 221.336L53.7546 224.107ZM60.5678 227.684V221.14H62.4235V222.459C62.802 221.568 63.4003 220.969 64.5113 221.018V222.96H64.4136C63.1805 222.96 62.4235 223.692 62.4235 225.267V227.684H60.5678ZM68.5808 227.831C66.6152 227.831 65.1745 226.305 65.1745 224.449V224.425C65.1745 222.557 66.6029 221.018 68.6052 221.018C69.8384 221.018 70.5953 221.433 71.218 222.117L70.0825 223.338C69.6552 222.898 69.2645 222.618 68.593 222.618C67.6651 222.618 67.0058 223.423 67.0058 224.4V224.425C67.0058 225.438 67.6529 226.232 68.6663 226.232C69.2889 226.232 69.7163 225.963 70.168 225.536L71.2546 226.634C70.6197 227.33 69.8872 227.831 68.5808 227.831ZM72.4668 227.684V218.772H74.3226V222.068C74.7499 221.519 75.3115 221.018 76.2394 221.018C77.6557 221.018 78.4615 221.934 78.4615 223.448V227.684H76.6057V224.034C76.6057 223.155 76.2028 222.703 75.4825 222.703C74.7621 222.703 74.3226 223.155 74.3226 224.034V227.684H72.4668ZM80.1103 220.42V218.772H82.0637V220.42H80.1103ZM80.1591 227.684V221.14H82.0149V227.684H80.1591ZM85.9677 227.794C84.8444 227.794 84.063 227.343 84.063 225.829V222.728H83.2817V221.14H84.063V219.468H85.9188V221.14H87.4572V222.728H85.9188V225.523C85.9188 225.951 86.1142 226.158 86.5171 226.158C86.8467 226.158 87.1519 226.085 87.4327 225.926V227.416C87.0421 227.648 86.5903 227.794 85.9677 227.794ZM91.7473 227.831C89.7817 227.831 88.3288 226.451 88.3288 224.449V224.425C88.3288 222.557 89.6596 221.018 91.5642 221.018C93.7496 221.018 94.7507 222.715 94.7507 224.571C94.7507 224.718 94.7385 224.876 94.7263 225.06H90.1723C90.3555 225.902 90.9415 226.341 91.7717 226.341C92.3944 226.341 92.8339 226.146 93.3589 225.67L94.4211 226.61C93.7984 227.379 92.9316 227.831 91.7473 227.831ZM90.1479 223.9H92.9438C92.8339 223.069 92.3456 222.508 91.5642 222.508C90.7828 222.508 90.2944 223.057 90.1479 223.9ZM99.2227 227.831C97.257 227.831 95.8164 226.305 95.8164 224.449V224.425C95.8164 222.557 97.2448 221.018 99.2471 221.018C100.48 221.018 101.237 221.433 101.86 222.117L100.724 223.338C100.297 222.898 99.9064 222.618 99.2349 222.618C98.307 222.618 97.6477 223.423 97.6477 224.4V224.425C97.6477 225.438 98.2948 226.232 99.3082 226.232C99.9308 226.232 100.358 225.963 100.81 225.536L101.896 226.634C101.262 227.33 100.529 227.831 99.2227 227.831ZM105.319 227.794C104.195 227.794 103.414 227.343 103.414 225.829V222.728H102.633V221.14H103.414V219.468H105.27V221.14H106.808V222.728H105.27V225.523C105.27 225.951 105.465 226.158 105.868 226.158C106.198 226.158 106.503 226.085 106.784 225.926V227.416C106.393 227.648 105.941 227.794 105.319 227.794ZM108.042 223.033L108.261 219.138H110.337V219.199L109.006 223.033H108.042ZM113.965 227.807C113.037 227.807 112.036 227.501 111.157 226.818L111.95 225.597C112.67 226.122 113.391 226.378 114.013 226.378C114.551 226.378 114.795 226.183 114.795 225.89V225.865C114.795 225.462 114.16 225.34 113.44 225.108C112.524 224.852 111.486 224.412 111.486 223.143V223.118C111.486 221.787 112.561 221.043 113.879 221.043C114.709 221.043 115.601 221.324 116.321 221.8L115.613 223.082C114.966 222.703 114.319 222.471 113.843 222.471C113.391 222.471 113.159 222.667 113.159 222.923V222.947C113.159 223.289 113.782 223.509 114.49 223.729C115.405 224.022 116.468 224.473 116.468 225.67V225.694C116.468 227.147 115.381 227.807 113.965 227.807ZM125.658 227.831C123.143 227.831 121.275 225.89 121.275 223.436V223.411C121.275 220.982 123.106 218.992 125.731 218.992C127.331 218.992 128.32 219.529 129.101 220.31L127.904 221.69C127.233 221.092 126.586 220.725 125.719 220.725C124.278 220.725 123.241 221.922 123.241 223.387V223.411C123.241 224.876 124.254 226.097 125.719 226.097C126.696 226.097 127.294 225.719 127.965 225.096L129.162 226.305C128.283 227.245 127.318 227.831 125.658 227.831ZM130.472 227.684V218.772H132.328V222.068C132.755 221.519 133.316 221.018 134.244 221.018C135.661 221.018 136.466 221.934 136.466 223.448V227.684H134.611V224.034C134.611 223.155 134.208 222.703 133.487 222.703C132.767 222.703 132.328 223.155 132.328 224.034V227.684H130.472ZM141.29 227.831C139.275 227.831 137.761 226.341 137.761 224.449V224.425C137.761 222.544 139.275 221.018 141.314 221.018C143.328 221.018 144.842 222.508 144.842 224.4V224.425C144.842 226.305 143.328 227.831 141.29 227.831ZM141.314 226.232C142.376 226.232 143.011 225.426 143.011 224.449V224.425C143.011 223.46 142.315 222.618 141.29 222.618C140.227 222.618 139.593 223.423 139.593 224.4V224.425C139.593 225.389 140.288 226.232 141.314 226.232ZM146.223 220.42V218.772H148.176V220.42H146.223ZM146.272 227.684V221.14H148.127V227.684H146.272ZM152.959 227.831C150.994 227.831 149.553 226.305 149.553 224.449V224.425C149.553 222.557 150.981 221.018 152.984 221.018C154.217 221.018 154.974 221.433 155.596 222.117L154.461 223.338C154.034 222.898 153.643 222.618 152.971 222.618C152.044 222.618 151.384 223.423 151.384 224.4V224.425C151.384 225.438 152.031 226.232 153.045 226.232C153.667 226.232 154.095 225.963 154.546 225.536L155.633 226.634C154.998 227.33 154.266 227.831 152.959 227.831ZM159.768 227.831C157.802 227.831 156.349 226.451 156.349 224.449V224.425C156.349 222.557 157.68 221.018 159.584 221.018C161.77 221.018 162.771 222.715 162.771 224.571C162.771 224.718 162.759 224.876 162.747 225.06H158.193C158.376 225.902 158.962 226.341 159.792 226.341C160.415 226.341 160.854 226.146 161.379 225.67L162.441 226.61C161.819 227.379 160.952 227.831 159.768 227.831ZM158.168 223.9H160.964C160.854 223.069 160.366 222.508 159.584 222.508C158.803 222.508 158.315 223.057 158.168 223.9ZM168.132 227.684V222.728H167.363V221.201H168.132V220.786C168.132 220.078 168.303 219.553 168.657 219.199C168.999 218.857 169.499 218.686 170.158 218.686C170.745 218.686 171.135 218.76 171.477 218.87V220.408C171.196 220.31 170.964 220.249 170.635 220.249C170.183 220.249 169.963 220.481 169.963 220.957V221.214H171.465V222.728H169.988V227.684H168.132ZM175.568 227.831C173.553 227.831 172.04 226.341 172.04 224.449V224.425C172.04 222.544 173.553 221.018 175.592 221.018C177.607 221.018 179.121 222.508 179.121 224.4V224.425C179.121 226.305 177.607 227.831 175.568 227.831ZM175.592 226.232C176.655 226.232 177.289 225.426 177.289 224.449V224.425C177.289 223.46 176.594 222.618 175.568 222.618C174.506 222.618 173.871 223.423 173.871 224.4V224.425C173.871 225.389 174.567 226.232 175.592 226.232ZM180.465 227.684V221.14H182.32V222.459C182.699 221.568 183.297 220.969 184.408 221.018V222.96H184.31C183.077 222.96 182.32 223.692 182.32 225.267V227.684H180.465ZM189.423 227.684V219.138H195.87V220.811H191.291V222.544H195.32V224.217H191.291V226.012H195.931V227.684H189.423ZM197.407 227.684V221.14H199.263V222.068C199.69 221.519 200.252 221.018 201.18 221.018C202.596 221.018 203.402 221.934 203.402 223.448V227.684H201.546V224.034C201.546 223.155 201.143 222.703 200.423 222.703C199.702 222.703 199.263 223.155 199.263 224.034V227.684H197.407ZM207.224 227.794C206.1 227.794 205.319 227.343 205.319 225.829V222.728H204.538V221.14H205.319V219.468H207.175V221.14H208.713V222.728H207.175V225.523C207.175 225.951 207.37 226.158 207.773 226.158C208.103 226.158 208.408 226.085 208.689 225.926V227.416C208.298 227.648 207.846 227.794 207.224 227.794ZM210.118 220.42V218.772H212.071V220.42H210.118ZM210.167 227.684V221.14H212.022V227.684H210.167ZM215.975 227.794C214.852 227.794 214.07 227.343 214.07 225.829V222.728H213.289V221.14H214.07V219.468H215.926V221.14H217.465V222.728H215.926V225.523C215.926 225.951 216.122 226.158 216.524 226.158C216.854 226.158 217.159 226.085 217.44 225.926V227.416C217.049 227.648 216.598 227.794 215.975 227.794ZM218.918 227.684V218.772H220.774V227.684H218.918ZM225.618 227.831C223.652 227.831 222.199 226.451 222.199 224.449V224.425C222.199 222.557 223.53 221.018 225.435 221.018C227.62 221.018 228.621 222.715 228.621 224.571C228.621 224.718 228.609 224.876 228.597 225.06H224.043C224.226 225.902 224.812 226.341 225.642 226.341C226.265 226.341 226.704 226.146 227.229 225.67L228.292 226.61C227.669 227.379 226.802 227.831 225.618 227.831ZM224.018 223.9H226.814C226.704 223.069 226.216 222.508 225.435 222.508C224.653 222.508 224.165 223.057 224.018 223.9ZM230.004 227.684V221.14H231.86V222.068C232.287 221.519 232.849 221.018 233.789 221.018C234.656 221.018 235.291 221.385 235.633 222.056C236.206 221.372 236.89 221.018 237.781 221.018C239.161 221.018 239.991 221.849 239.991 223.423V227.684H238.135V224.034C238.135 223.155 237.745 222.703 237.049 222.703C236.353 222.703 235.926 223.155 235.926 224.034V227.684H234.07V224.034C234.07 223.155 233.679 222.703 232.983 222.703C232.287 222.703 231.86 223.155 231.86 224.034V227.684H230.004ZM244.706 227.831C242.741 227.831 241.288 226.451 241.288 224.449V224.425C241.288 222.557 242.619 221.018 244.523 221.018C246.709 221.018 247.71 222.715 247.71 224.571C247.71 224.718 247.698 224.876 247.685 225.06H243.131C243.314 225.902 243.901 226.341 244.731 226.341C245.353 226.341 245.793 226.146 246.318 225.67L247.38 226.61C246.757 227.379 245.891 227.831 244.706 227.831ZM243.107 223.9H245.903C245.793 223.069 245.305 222.508 244.523 222.508C243.742 222.508 243.253 223.057 243.107 223.9ZM249.093 227.684V221.14H250.949V222.068C251.376 221.519 251.938 221.018 252.865 221.018C254.282 221.018 255.087 221.934 255.087 223.448V227.684H253.232V224.034C253.232 223.155 252.829 222.703 252.108 222.703C251.388 222.703 250.949 223.155 250.949 224.034V227.684H249.093ZM258.909 227.794C257.786 227.794 257.005 227.343 257.005 225.829V222.728H256.223V221.14H257.005V219.468H258.861V221.14H260.399V222.728H258.861V225.523C258.861 225.951 259.056 226.158 259.459 226.158C259.789 226.158 260.094 226.085 260.375 225.926V227.416C259.984 227.648 259.532 227.794 258.909 227.794ZM264.062 227.807C263.134 227.807 262.133 227.501 261.254 226.818L262.048 225.597C262.768 226.122 263.488 226.378 264.111 226.378C264.648 226.378 264.892 226.183 264.892 225.89V225.865C264.892 225.462 264.257 225.34 263.537 225.108C262.621 224.852 261.584 224.412 261.584 223.143V223.118C261.584 221.787 262.658 221.043 263.977 221.043C264.807 221.043 265.698 221.324 266.418 221.8L265.71 223.082C265.063 222.703 264.416 222.471 263.94 222.471C263.488 222.471 263.256 222.667 263.256 222.923V222.947C263.256 223.289 263.879 223.509 264.587 223.729C265.503 224.022 266.565 224.473 266.565 225.67V225.694C266.565 227.147 265.478 227.807 264.062 227.807Z" fill="black"/>
</svg>
