<svg width="290" height="333" viewBox="0 0 290 333" fill="none" xmlns="http://www.w3.org/2000/svg">
<rect x="1.24832" y="0.41" width="288.18" height="332.18" rx="24.19" fill="#002C2C"/>
<rect x="1.24832" y="0.41" width="288.18" height="332.18" rx="24.19" stroke="#BDBDBD" stroke-width="0.82"/>
<path d="M233.303 178.627V154.271H250.011V156.649H238.444V164.811H248.051V167.188H238.444V176.249H250.011V178.627H233.303Z" fill="white"/>
<path d="M211.812 154.271L227.492 170.755V154.271H230.095V178.627H227.492L211.812 161.822V178.627H209.209V154.271H211.812Z" fill="white"/>
<path d="M194.24 179.045C187.364 179.045 180.906 174.354 180.906 166.321C180.906 158.288 187.364 153.597 194.24 153.597C201.116 153.597 207.574 158.288 207.574 166.321C207.574 174.354 201.116 179.045 194.24 179.045ZM194.465 176.924C198.16 176.924 201.823 174.418 201.823 167.542C201.823 159.927 198.61 155.717 194.015 155.717C190.32 155.717 186.657 158.224 186.657 165.1C186.657 172.715 189.87 176.924 194.465 176.924Z" fill="white"/>
<path d="M169.667 178.627V156.649H160.959V154.271H183.515V156.649H174.808V178.627H169.667Z" fill="white"/>
<path d="M152.936 179.045C150.43 179.045 148.342 178.788 146.189 178.017L144.872 169.952H146.317L148.952 175.157C149.755 176.731 151.394 176.988 153.193 176.988C155.668 176.988 157.692 175.735 157.692 173.357C157.692 170.98 156.053 169.759 152.969 168.731L151.201 168.152C147.185 166.835 145.032 164.361 145.032 160.633C145.032 155.91 149.659 153.597 154.511 153.597C156.278 153.597 158.206 153.822 159.748 154.368L161.162 162.015H159.716L156.985 156.874C156.439 155.846 155.089 155.653 153.74 155.653C151.458 155.653 149.531 156.842 149.531 159.091C149.531 160.666 150.27 162.208 152.647 162.979L154.414 163.557C159.073 165.068 162.319 166.963 162.319 171.558C162.319 176.346 157.531 179.045 152.936 179.045Z" fill="white"/>
<path d="M127.677 178.627V154.271H144.385V156.649H132.818V164.811H142.425V167.188H132.818V176.249H144.385V178.627H127.677Z" fill="white"/>
<path d="M113.358 178.627V156.649H104.651V154.271H127.207V156.649H118.499V178.627H113.358Z" fill="white"/>
<path d="M99.0423 178.627V154.272H104.183V178.627H99.0423Z" fill="white"/>
<path d="M74.2561 178.627V154.271H79.3971V164.811H90.675V154.271H95.816V178.627H90.675V167.188H79.3971V178.627H74.2561Z" fill="white"/>
<path d="M47.5264 178.627L39.5258 154.272H44.9238L50.3218 171.269L56.7159 154.272H58.7401L65.4555 171.462L70.9178 154.272H73.7453L65.7768 178.627H63.0457L56.5231 162.272L50.2897 178.627H47.5264Z" fill="white"/>
<path d="M42.762 196.403V190.504H40.5103V189.003H46.6419V190.504H44.3901V196.403H42.762ZM47.6732 196.403V188.686H49.2801V191.54C49.6501 191.065 50.1364 190.631 50.9398 190.631C52.1662 190.631 52.8639 191.424 52.8639 192.735V196.403H51.257V193.242C51.257 192.481 50.9081 192.09 50.2844 192.09C49.6607 192.09 49.2801 192.481 49.2801 193.242V196.403H47.6732ZM56.9451 196.53C55.243 196.53 53.985 195.336 53.985 193.602V193.581C53.985 191.963 55.1373 190.631 56.7865 190.631C58.6788 190.631 59.5457 192.101 59.5457 193.708C59.5457 193.834 59.5351 193.972 59.5246 194.13H55.5813C55.7399 194.86 56.2473 195.24 56.9662 195.24C57.5054 195.24 57.886 195.071 58.3405 194.659L59.2603 195.473C58.7211 196.139 57.9705 196.53 56.9451 196.53ZM55.5602 193.126H57.9811C57.886 192.407 57.4631 191.921 56.7865 191.921C56.1099 191.921 55.687 192.397 55.5602 193.126ZM63.4476 196.403L66.6191 188.95H68.1203L71.2918 196.403H69.5898L68.9132 194.744H65.7839L65.1074 196.403H63.4476ZM66.3654 193.306H68.3317L67.3486 190.906L66.3654 193.306ZM72.2648 196.403V190.737H73.8717V191.879C74.1995 191.107 74.7175 190.589 75.6795 190.631V192.312H75.5949C74.5272 192.312 73.8717 192.946 73.8717 194.31V196.403H72.2648ZM79.2033 196.53C77.5012 196.53 76.2538 195.209 76.2538 193.602V193.581C76.2538 191.963 77.4906 190.631 79.2244 190.631C80.2922 190.631 80.9476 190.991 81.4868 191.583L80.5036 192.64C80.1336 192.259 79.7953 192.016 79.2138 192.016C78.4104 192.016 77.8395 192.714 77.8395 193.56V193.581C77.8395 194.458 78.3998 195.145 79.2773 195.145C79.8164 195.145 80.1864 194.913 80.5776 194.543L81.5185 195.494C80.9687 196.097 80.3344 196.53 79.2033 196.53ZM82.5681 196.403V188.686H84.175V191.54C84.545 191.065 85.0313 190.631 85.8348 190.631C87.0611 190.631 87.7588 191.424 87.7588 192.735V196.403H86.1519V193.242C86.1519 192.481 85.8031 192.09 85.1793 192.09C84.5556 192.09 84.175 192.481 84.175 193.242V196.403H82.5681ZM89.1865 190.113V188.686H90.878V190.113H89.1865ZM89.2288 196.403V190.737H90.8357V196.403H89.2288ZM94.2584 196.498C93.2858 196.498 92.6092 196.107 92.6092 194.796V192.111H91.9326V190.737H92.6092V189.289H94.2161V190.737H95.5481V192.111H94.2161V194.532C94.2161 194.902 94.3853 195.082 94.7341 195.082C95.0196 195.082 95.2839 195.018 95.527 194.881V196.171C95.1887 196.372 94.7976 196.498 94.2584 196.498ZM99.2629 196.53C97.5609 196.53 96.3029 195.336 96.3029 193.602V193.581C96.3029 191.963 97.4552 190.631 99.1044 190.631C100.997 190.631 101.864 192.101 101.864 193.708C101.864 193.834 101.853 193.972 101.842 194.13H97.8992C98.0578 194.86 98.5652 195.24 99.2841 195.24C99.8232 195.24 100.204 195.071 100.658 194.659L101.578 195.473C101.039 196.139 100.288 196.53 99.2629 196.53ZM97.8781 193.126H100.299C100.204 192.407 99.781 191.921 99.1044 191.921C98.4278 191.921 98.0049 192.397 97.8781 193.126ZM105.736 196.53C104.034 196.53 102.786 195.209 102.786 193.602V193.581C102.786 191.963 104.023 190.631 105.757 190.631C106.825 190.631 107.48 190.991 108.019 191.583L107.036 192.64C106.666 192.259 106.328 192.016 105.746 192.016C104.943 192.016 104.372 192.714 104.372 193.56V193.581C104.372 194.458 104.932 195.145 105.81 195.145C106.349 195.145 106.719 194.913 107.11 194.543L108.051 195.494C107.501 196.097 106.867 196.53 105.736 196.53ZM111.014 196.498C110.042 196.498 109.365 196.107 109.365 194.796V192.111H108.688V190.737H109.365V189.289H110.972V190.737H112.304V192.111H110.972V194.532C110.972 194.902 111.141 195.082 111.49 195.082C111.775 195.082 112.04 195.018 112.283 194.881V196.171C111.944 196.372 111.553 196.498 111.014 196.498ZM113.372 192.375L113.562 189.003H115.36V189.056L114.207 192.375H113.372ZM118.501 196.509C117.697 196.509 116.83 196.245 116.069 195.653L116.756 194.596C117.38 195.05 118.004 195.272 118.543 195.272C119.008 195.272 119.22 195.103 119.22 194.849V194.828C119.22 194.479 118.67 194.374 118.046 194.173C117.253 193.951 116.355 193.57 116.355 192.471V192.449C116.355 191.297 117.285 190.652 118.427 190.652C119.146 190.652 119.917 190.895 120.541 191.308L119.928 192.418C119.368 192.09 118.807 191.889 118.395 191.889C118.004 191.889 117.803 192.058 117.803 192.28V192.301C117.803 192.597 118.342 192.788 118.955 192.978C119.748 193.232 120.668 193.623 120.668 194.659V194.68C120.668 195.938 119.727 196.509 118.501 196.509ZM128.626 196.53C126.448 196.53 124.831 194.849 124.831 192.724V192.703C124.831 190.599 126.416 188.876 128.689 188.876C130.074 188.876 130.931 189.341 131.607 190.018L130.571 191.213C129.99 190.695 129.429 190.377 128.679 190.377C127.431 190.377 126.533 191.413 126.533 192.682V192.703C126.533 193.972 127.41 195.029 128.679 195.029C129.525 195.029 130.043 194.701 130.624 194.162L131.66 195.209C130.899 196.023 130.064 196.53 128.626 196.53ZM132.794 196.403V188.686H134.401V191.54C134.771 191.065 135.257 190.631 136.061 190.631C137.287 190.631 137.985 191.424 137.985 192.735V196.403H136.378V193.242C136.378 192.481 136.029 192.09 135.405 192.09C134.782 192.09 134.401 192.481 134.401 193.242V196.403H132.794ZM142.161 196.53C140.417 196.53 139.106 195.24 139.106 193.602V193.581C139.106 191.953 140.417 190.631 142.182 190.631C143.927 190.631 145.238 191.921 145.238 193.56V193.581C145.238 195.209 143.927 196.53 142.161 196.53ZM142.182 195.145C143.102 195.145 143.652 194.448 143.652 193.602V193.581C143.652 192.746 143.049 192.016 142.161 192.016C141.241 192.016 140.692 192.714 140.692 193.56V193.581C140.692 194.416 141.294 195.145 142.182 195.145ZM146.433 190.113V188.686H148.124V190.113H146.433ZM146.475 196.403V190.737H148.082V196.403H146.475ZM152.266 196.53C150.564 196.53 149.316 195.209 149.316 193.602V193.581C149.316 191.963 150.553 190.631 152.287 190.631C153.355 190.631 154.01 190.991 154.549 191.583L153.566 192.64C153.196 192.259 152.858 192.016 152.276 192.016C151.473 192.016 150.902 192.714 150.902 193.56V193.581C150.902 194.458 151.462 195.145 152.34 195.145C152.879 195.145 153.249 194.913 153.64 194.543L154.581 195.494C154.031 196.097 153.397 196.53 152.266 196.53ZM158.161 196.53C156.459 196.53 155.201 195.336 155.201 193.602V193.581C155.201 191.963 156.353 190.631 158.003 190.631C159.895 190.631 160.762 192.101 160.762 193.708C160.762 193.834 160.751 193.972 160.741 194.13H156.797C156.956 194.86 157.463 195.24 158.182 195.24C158.721 195.24 159.102 195.071 159.557 194.659L160.476 195.473C159.937 196.139 159.187 196.53 158.161 196.53ZM156.776 193.126H159.197C159.102 192.407 158.679 191.921 158.003 191.921C157.326 191.921 156.903 192.397 156.776 193.126ZM165.404 196.403V192.111H164.738V190.79H165.404V190.43C165.404 189.817 165.552 189.363 165.858 189.056C166.154 188.76 166.588 188.612 167.159 188.612C167.666 188.612 168.004 188.675 168.3 188.771V190.103C168.057 190.018 167.856 189.965 167.571 189.965C167.18 189.965 166.989 190.166 166.989 190.578V190.8H168.29V192.111H167.011V196.403H165.404ZM171.843 196.53C170.098 196.53 168.787 195.24 168.787 193.602V193.581C168.787 191.953 170.098 190.631 171.864 190.631C173.608 190.631 174.919 191.921 174.919 193.56V193.581C174.919 195.209 173.608 196.53 171.843 196.53ZM171.864 195.145C172.783 195.145 173.333 194.448 173.333 193.602V193.581C173.333 192.746 172.731 192.016 171.843 192.016C170.923 192.016 170.373 192.714 170.373 193.56V193.581C170.373 194.416 170.976 195.145 171.864 195.145ZM176.082 196.403V190.737H177.689V191.879C178.017 191.107 178.535 190.589 179.497 190.631V192.312H179.413C178.345 192.312 177.689 192.946 177.689 194.31V196.403H176.082ZM183.84 196.403V189.003H189.422V190.451H185.457V191.953H188.946V193.401H185.457V194.955H189.474V196.403H183.84ZM190.753 196.403V190.737H192.36V191.54C192.73 191.065 193.216 190.631 194.019 190.631C195.246 190.631 195.944 191.424 195.944 192.735V196.403H194.337V193.242C194.337 192.481 193.988 192.09 193.364 192.09C192.74 192.09 192.36 192.481 192.36 193.242V196.403H190.753ZM199.253 196.498C198.28 196.498 197.604 196.107 197.604 194.796V192.111H196.927V190.737H197.604V189.289H199.211V190.737H200.543V192.111H199.211V194.532C199.211 194.902 199.38 195.082 199.729 195.082C200.014 195.082 200.278 195.018 200.522 194.881V196.171C200.183 196.372 199.792 196.498 199.253 196.498ZM201.759 190.113V188.686H203.45V190.113H201.759ZM201.801 196.403V190.737H203.408V196.403H201.801ZM206.831 196.498C205.858 196.498 205.182 196.107 205.182 194.796V192.111H204.505V190.737H205.182V189.289H206.788V190.737H208.12V192.111H206.788V194.532C206.788 194.902 206.958 195.082 207.306 195.082C207.592 195.082 207.856 195.018 208.099 194.881V196.171C207.761 196.372 207.37 196.498 206.831 196.498ZM209.379 196.403V188.686H210.986V196.403H209.379ZM215.18 196.53C213.478 196.53 212.22 195.336 212.22 193.602V193.581C212.22 191.963 213.372 190.631 215.022 190.631C216.914 190.631 217.781 192.101 217.781 193.708C217.781 193.834 217.77 193.972 217.76 194.13H213.817C213.975 194.86 214.483 195.24 215.201 195.24C215.741 195.24 216.121 195.071 216.576 194.659L217.495 195.473C216.956 196.139 216.206 196.53 215.18 196.53ZM213.795 193.126H216.216C216.121 192.407 215.698 191.921 215.022 191.921C214.345 191.921 213.922 192.397 213.795 193.126ZM218.978 196.403V190.737H220.585V191.54C220.955 191.065 221.442 190.631 222.256 190.631C223.006 190.631 223.556 190.948 223.852 191.53C224.349 190.938 224.941 190.631 225.713 190.631C226.907 190.631 227.626 191.35 227.626 192.714V196.403H226.019V193.242C226.019 192.481 225.681 192.09 225.078 192.09C224.476 192.09 224.106 192.481 224.106 193.242V196.403H222.499V193.242C222.499 192.481 222.161 192.09 221.558 192.09C220.955 192.09 220.585 192.481 220.585 193.242V196.403H218.978ZM231.709 196.53C230.007 196.53 228.749 195.336 228.749 193.602V193.581C228.749 191.963 229.901 190.631 231.55 190.631C233.443 190.631 234.31 192.101 234.31 193.708C234.31 193.834 234.299 193.972 234.288 194.13H230.345C230.504 194.86 231.011 195.24 231.73 195.24C232.269 195.24 232.65 195.071 233.104 194.659L234.024 195.473C233.485 196.139 232.734 196.53 231.709 196.53ZM230.324 193.126H232.745C232.65 192.407 232.227 191.921 231.55 191.921C230.874 191.921 230.451 192.397 230.324 193.126ZM235.507 196.403V190.737H237.114V191.54C237.484 191.065 237.97 190.631 238.774 190.631C240 190.631 240.698 191.424 240.698 192.735V196.403H239.091V193.242C239.091 192.481 238.742 192.09 238.118 192.09C237.495 192.09 237.114 192.481 237.114 193.242V196.403H235.507ZM244.007 196.498C243.035 196.498 242.358 196.107 242.358 194.796V192.111H241.682V190.737H242.358V189.289H243.965V190.737H245.297V192.111H243.965V194.532C243.965 194.902 244.134 195.082 244.483 195.082C244.768 195.082 245.033 195.018 245.276 194.881V196.171C244.938 196.372 244.546 196.498 244.007 196.498ZM248.469 196.509C247.666 196.509 246.799 196.245 246.037 195.653L246.725 194.596C247.348 195.05 247.972 195.272 248.511 195.272C248.976 195.272 249.188 195.103 249.188 194.849V194.828C249.188 194.479 248.638 194.374 248.014 194.173C247.222 193.951 246.323 193.57 246.323 192.471V192.449C246.323 191.297 247.253 190.652 248.395 190.652C249.114 190.652 249.886 190.895 250.509 191.308L249.896 192.418C249.336 192.09 248.776 191.889 248.363 191.889C247.972 191.889 247.771 192.058 247.771 192.28V192.301C247.771 192.597 248.31 192.788 248.924 192.978C249.716 193.232 250.636 193.623 250.636 194.659V194.68C250.636 195.938 249.695 196.509 248.469 196.509Z" fill="white"/>
</svg>
